<svg width="195" height="43" viewBox="0 0 195 43" fill="none" xmlns="http://www.w3.org/2000/svg">
<path d="M12.8748 0H0V12.8748H12.8748V0Z" transform="translate(9.80811 15.5292) scale(0.998196 1.0018) rotate(-45)" fill="url(#paint0_linear)"/>
<path d="M12.8748 0H0V12.8748H12.8748V0Z" transform="translate(19.6131 25.3727) scale(0.998196 1.0018) rotate(-45)" fill="url(#paint1_linear)"/>
<path d="M12.8748 0H0V12.8748H12.8748V0Z" transform="translate(0 25.3697) scale(0.998196 1.0018) rotate(-45)" fill="url(#paint2_linear)"/>
<path d="M8.13128 8.16064H5.83431L-1.31434e-07 2.30527V3.07786e-07" transform="translate(11.9084 14.3734)" stroke="#A27667" stroke-width="0.3" stroke-miterlimit="10"/>
<path d="M8.13128 8.17217H5.83431L8.76225e-08 2.30527V0" transform="translate(21.728 24.2053)" stroke="#A27667" stroke-width="0.3" stroke-miterlimit="10"/>
<path d="M8.11979 8.17217H5.82282L3.83348e-08 2.30527V0" transform="translate(2.11182 24.2053)" stroke="#A27667" stroke-width="0.3" stroke-miterlimit="10"/>
<path d="M8.52566 0H0V8.52566H8.52566V0Z" transform="translate(12.8693 36.2219) scale(0.998196 1.0018) rotate(-45)" fill="#1F6937"/>
<path d="M2.18212 3.95353H1.2863V0.703106H6.30882e-06V0H3.44546V0.703106H2.15915V3.95353H2.18212ZM8.09682 3.95353H7.26992V0.645474L6.47746 3.95353H5.58165L4.80067 0.645474V3.95353H3.97376V0H5.27155L6.04103 3.11211L6.81052 0H8.09682V3.95353Z" transform="translate(186.903)" fill="#802719"/>
<path d="M30.0444 1.49236C29.8248 2.28628 29.6636 3.09529 29.562 3.91289C29.457 4.81187 29.4072 5.71647 29.4127 6.62158C29.3886 10.2006 29.6343 13.7762 30.1477 17.318C30.5465 20.1909 31.2789 23.0071 32.3299 25.7092C31.8152 25.995 31.2725 26.2267 30.7105 26.4008C30.2304 26.5495 29.7313 26.6271 29.229 26.6313C28.8219 26.6473 28.4201 26.5344 28.0805 26.3086C27.759 26.0396 27.5366 25.6703 27.4488 25.2597C27.3799 24.9677 27.2459 22.7623 27.0468 18.6435C26.8478 14.5248 26.5645 10.5021 26.197 6.57548C23.6856 11.332 21.0403 16.5381 18.2609 22.1937C17.7556 23.2464 17.4072 23.9572 17.2158 24.326C17.0537 24.6927 16.8238 25.0252 16.5382 25.3058C16.3259 25.4937 16.0518 25.5963 15.7687 25.5939C15.1945 25.5939 14.6011 24.9292 13.9886 23.5999L13.6555 22.8391C11.7107 18.8741 10.0684 15.566 8.72849 12.915C7.38859 10.2639 6.30136 8.193 5.46679 6.70227C5.26006 9.77595 5.06482 13.5182 4.88107 17.9289C4.87597 20.5011 4.66086 23.0685 4.23791 25.6054C4.15299 25.9306 3.96318 26.2184 3.69812 26.4238C3.40665 26.6076 3.06561 26.6962 2.72191 26.6774C2.32938 26.6617 1.94178 26.5839 1.57343 26.4469C1.032 26.2573 0.505961 26.0261 1.92769e-06 25.7553C1.03027 23.0489 1.75078 20.2338 2.14767 17.3641C2.66232 13.7877 2.90802 10.1774 2.8827 6.56395C2.88788 5.67801 2.83802 4.79261 2.73339 3.91289C2.63394 3.13641 2.4882 2.36661 2.29697 1.60763C2.62468 1.30566 2.99172 1.04975 3.38803 0.84689C3.71869 0.691911 4.07971 0.613146 4.44464 0.616363C5.60844 0.616363 7.47664 3.30584 10.0492 8.68479C11.0216 10.6981 11.8103 12.3041 12.4151 13.5028C13.7703 16.2076 14.7006 17.9942 15.2059 18.8625C15.4094 19.3797 15.7512 19.8304 16.1936 20.165C16.5152 20.165 18.1576 17.149 21.1206 11.1168L24.0608 5.15774C24.6169 3.92271 25.3228 2.7613 26.1625 1.69984C26.3744 1.4087 26.646 1.16651 26.959 0.989561C27.272 0.81261 27.6192 0.705007 27.9771 0.673995C28.3307 0.673211 28.68 0.751984 28.9993 0.904522C29.3674 1.06275 29.7177 1.2598 30.0444 1.49236ZM48.4201 27.15C46.6677 27.165 44.9275 26.8563 43.2864 26.2394C41.7186 25.6481 40.2852 24.7466 39.0715 23.5883C37.7956 22.3903 36.7961 20.9269 36.1428 19.3005C35.4654 17.5604 35.13 15.7051 35.1551 13.8371C35.1384 11.9557 35.4977 10.0901 36.2117 8.35053C36.9196 6.65414 37.9808 5.1293 39.3241 3.87831C40.6615 2.60809 42.2447 1.62728 43.9755 0.996732C45.8172 0.333409 47.7612 0.00173585 49.7179 0.0169936C53.3051 -0.162075 56.819 1.07966 59.503 3.47489C60.7324 4.66225 61.6959 6.09857 62.3295 7.68842C62.9632 9.27827 63.2525 10.9853 63.1782 12.696C63.1886 14.5301 62.8495 16.3494 62.179 18.0557C61.5133 19.7335 60.5217 21.2616 59.2618 22.551C57.8848 24.0337 56.2145 25.2114 54.3578 26.0089C52.466 26.7822 50.4398 27.1701 48.3972 27.15H48.4201ZM59.4456 12.9841C59.5088 11.6391 59.298 10.2953 58.826 9.03481C58.3541 7.77435 57.6309 6.62375 56.7007 5.65337C55.7278 4.7183 54.5754 3.99183 53.3137 3.51822C52.052 3.04461 50.7074 2.83378 49.3619 2.89858C47.9646 2.83358 46.569 3.05907 45.2627 3.56089C43.9563 4.06271 42.7674 4.83003 41.7704 5.81474C40.7945 6.85499 40.0382 8.08244 39.5467 9.42338C39.0553 10.7643 38.839 12.1911 38.9107 13.6181C38.7924 16.4266 39.7829 19.1685 41.667 21.2485C42.5867 22.2222 43.7026 22.988 44.9403 23.4948C46.1781 24.0016 47.5092 24.2378 48.8451 24.1877C50.2649 24.2396 51.6796 23.9891 52.9959 23.4527C54.3123 22.9163 55.5006 22.1061 56.4825 21.0756C57.4838 19.9897 58.2611 18.7157 58.7696 17.327C59.2782 15.9383 59.5079 14.4623 59.4456 12.9841ZM67.0486 22.6317C67.5456 22.9003 68.0742 23.1055 68.622 23.2425C69.1786 23.3766 69.7494 23.4424 70.3218 23.4385C71.5238 23.5061 72.7133 23.165 73.6983 22.4703C74.0997 22.164 74.4219 21.7654 74.6378 21.3081C74.8537 20.8507 74.9568 20.348 74.9387 19.8423C74.9387 18.5129 73.8629 16.9761 71.7114 15.2317L71.5506 15.105C68.4191 12.5769 66.8533 10.36 66.8533 8.45427C66.857 7.55474 67.0529 6.66647 67.4276 5.84932C67.8324 4.98803 68.3888 4.20711 69.0699 3.54405C70.0664 2.54461 71.2333 1.7326 72.5154 1.14657C73.7063 0.606357 74.9984 0.327358 76.3054 0.328205C77.0403 0.279475 77.7738 0.443496 78.4186 0.800784C78.6476 0.95335 78.8327 1.16345 78.9557 1.41017C79.0786 1.65689 79.1349 1.93161 79.1192 2.207C79.0996 2.50744 79.0215 2.80113 78.8895 3.07147C78.6889 3.50571 78.4587 3.92551 78.2004 4.32784C77.7361 4.13842 77.2556 3.99181 76.7648 3.88984C76.2774 3.78881 75.7809 3.7386 75.2832 3.74C73.9948 3.66274 72.7187 4.02866 71.6655 4.77737C71.2392 5.11482 70.8984 5.54861 70.6708 6.04337C70.4433 6.53813 70.3355 7.07985 70.3562 7.62437C70.3471 8.31778 70.53 9.00011 70.8845 9.59537C71.4337 10.4011 72.104 11.1165 72.8714 11.7162L73.5031 12.2464C76.7724 14.9974 78.4071 17.3257 78.4071 19.2314C78.4047 19.9599 78.2724 20.682 78.0166 21.3638C77.7383 22.1051 77.3512 22.8005 76.8681 23.427C75.9987 24.541 74.8764 25.4302 73.5949 26.0204C72.2702 26.6327 70.827 26.9436 69.3685 26.931C68.5679 26.981 67.77 26.7968 67.0715 26.4008C66.8173 26.2296 66.6117 25.9952 66.4748 25.7205C66.338 25.4457 66.2745 25.14 66.2906 24.8332C66.2945 24.4909 66.3567 24.1517 66.4743 23.8304C66.6134 23.406 66.8023 22.9997 67.0371 22.6201L67.0486 22.6317ZM96.5647 18.2286H86.814C86.0503 19.8369 85.3792 21.4879 84.8042 23.1734C84.4626 24.1648 84.2729 25.2024 84.2414 26.2509V26.5391L83.6327 26.5967H83.2767C82.6463 26.6371 82.0204 26.4669 81.4965 26.1126C81.2906 25.944 81.1279 25.7283 81.022 25.4837C80.9161 25.239 80.8701 24.9725 80.8878 24.7064C80.8878 24.0917 82.0363 21.4329 84.3333 16.7302C86.6303 12.0274 88.6707 7.67816 90.4547 3.68237C90.262 3.40283 90.055 3.13352 89.8345 2.87552C89.6125 2.61426 89.3751 2.353 89.1225 2.09173C89.4699 1.63322 89.8797 1.22584 90.3399 0.881468C90.6726 0.635158 91.0749 0.501897 91.4883 0.5011C91.8005 0.536162 92.0998 0.645427 92.3615 0.819827C92.6231 0.994226 92.8396 1.22873 92.9929 1.50389C93.6861 2.58931 94.2563 3.74916 94.6926 4.96179C95.2592 6.34495 96.0249 8.266 96.9896 10.725C100.328 19.1776 102.655 24.0225 103.972 25.2597C103.61 25.685 103.184 26.0507 102.709 26.3431C102.342 26.554 101.926 26.6653 101.503 26.6659C100.293 26.6659 98.9191 24.5911 97.3801 20.4417L96.5647 18.2286ZM91.9707 6.56395L91.1094 8.59258L88.0659 15.762H95.6573C95.0448 14.1099 94.4323 12.5192 93.8198 10.9901C93.2073 9.4609 92.5718 8.0009 91.9133 6.61005L91.9707 6.56395ZM112.827 25.6516C112.311 25.9342 111.769 26.1658 111.208 26.3431C110.728 26.4925 110.229 26.5702 109.726 26.5737C109.481 26.6037 109.232 26.5709 109.003 26.4781C108.774 26.3854 108.573 26.2358 108.417 26.0434C108.124 25.4018 108.001 24.695 108.061 23.9918C108.061 23.4692 108.115 21.8325 108.222 19.0815C108.329 16.3306 108.383 13.8179 108.383 11.5433C108.41 9.30031 108.321 7.05738 108.118 4.82347C108.053 3.62895 107.769 2.45675 107.28 1.36557C107.812 1.07431 108.37 0.831296 108.945 0.639415C109.398 0.491765 109.87 0.414035 110.346 0.408889C110.594 0.381383 110.845 0.416546 111.076 0.511171C111.306 0.605796 111.51 0.756873 111.667 0.950627C111.973 1.54739 112.104 2.21863 112.046 2.88705C112.046 3.03305 111.981 4.53147 111.851 7.38232C111.721 10.2332 111.66 13.0225 111.667 15.7504C111.641 17.894 111.733 20.0373 111.943 22.1706C112.005 23.3878 112.29 24.5832 112.781 25.6977L112.827 25.6516ZM136.337 4.08579C135.658 3.77869 134.944 3.55425 134.212 3.41726C133.405 3.26736 132.586 3.19404 131.766 3.19826C128.748 3.05699 125.788 4.06105 123.474 6.01069C122.437 6.92966 121.616 8.06786 121.07 9.3434C120.524 10.6189 120.266 12.0001 120.315 13.3875C120.27 14.7609 120.512 16.1285 121.024 17.4027C121.536 18.677 122.308 19.8299 123.29 20.7874C124.305 21.7552 125.502 22.5096 126.812 23.0064C128.122 23.5033 129.517 23.7324 130.916 23.6805C131.842 23.684 132.764 23.5678 133.661 23.3348C134.571 23.0891 135.447 22.729 136.268 22.2628C136.573 22.6477 136.835 23.0651 137.049 23.5077C137.199 23.8168 137.282 24.1549 137.29 24.4989C137.252 24.9365 137.072 25.3494 136.777 25.6743C136.482 25.9991 136.09 26.2179 135.659 26.297C134.234 26.7692 132.737 26.9801 131.237 26.9195C129.334 26.9395 127.439 26.6594 125.621 26.0896C123.989 25.5824 122.472 24.7602 121.154 23.669C119.694 22.4806 118.517 20.9803 117.708 19.2775C116.928 17.5598 116.536 15.6901 116.56 13.8025C116.549 11.7952 117.03 9.81602 117.961 8.03932C118.98 6.14401 120.413 4.50474 122.153 3.24437C123.621 2.17257 125.265 1.3688 127.011 0.869942C128.923 0.302061 130.908 0.0185748 132.903 0.0285202C134.032 -0.0320043 135.162 0.104494 136.245 0.431942C136.532 0.524418 136.782 0.708286 136.956 0.955749C137.13 1.20321 137.219 1.50082 137.21 1.80358C137.195 2.14545 137.117 2.4816 136.98 2.79484C136.786 3.25839 136.556 3.70553 136.291 4.13189L136.337 4.08579Z" transform="translate(46.2137 15.1977)" fill="#5C160E"/>
<path d="M17.3766 0.188616L14.804 7.1851C14.717 7.30038 14.6008 7.39009 14.4674 7.44484C14.3341 7.49958 14.1885 7.51736 14.046 7.49631H11.8753C11.7314 7.52304 11.5828 7.50669 11.448 7.44931C11.3132 7.39193 11.1982 7.29604 11.1173 7.17357L9.16492 1.81383C9.03858 1.44499 8.9467 1.16835 8.88928 0.983933H8.47582L8.1887 1.81383L6.25924 7.17357C6.23538 7.2295 6.19923 7.27929 6.15349 7.31921C6.10775 7.35913 6.0536 7.38815 5.9951 7.4041C5.83772 7.46572 5.67017 7.497 5.50125 7.49631H3.31912C3.178 7.52333 3.03209 7.50826 2.89941 7.45295C2.76673 7.39763 2.65312 7.30452 2.5726 7.1851L-7.0098e-07 0.188616H2.06728L3.99673 5.75583C4.03502 5.87878 4.11158 6.18999 4.22643 6.68947H4.67434C4.74189 6.37023 4.83798 6.05775 4.96146 5.75583L6.89091 0.534406C6.96316 0.40517 7.07425 0.302147 7.20832 0.240047C7.34238 0.177948 7.49257 0.159948 7.63743 0.188616H9.72767C9.89432 0.184946 10.0595 0.220472 10.21 0.292353C10.3251 0.337076 10.4194 0.42343 10.4742 0.534406L12.3922 5.75583C12.4955 6.04399 12.5989 6.34368 12.6793 6.67794H13.1272L13.242 6.21689C13.2646 6.0655 13.2953 5.91544 13.3339 5.76736L15.2634 0.17709H17.3307L17.3766 0.188616ZM24.4742 0.0503005C25.9214 -0.0713807 27.3735 0.216107 28.6662 0.880196C29.0868 1.24014 29.4119 1.69915 29.6123 2.21612C29.8127 2.7331 29.8823 3.29189 29.8147 3.84246C29.8823 4.39303 29.8127 4.95183 29.6123 5.4688C29.4119 5.98578 29.0868 6.44479 28.6662 6.80473C25.9832 7.90584 22.9767 7.90584 20.2937 6.80473C19.8676 6.45656 19.5335 6.0083 19.3212 5.49964C19.1089 4.99099 19.0247 4.43763 19.0763 3.88857C19.0088 3.338 19.0783 2.7792 19.2788 2.26223C19.4792 1.74525 19.8042 1.28624 20.2248 0.926301C21.5287 0.232561 23.0034 -0.0714505 24.4742 0.0503005ZM27.1157 1.5833C26.3347 1.09343 25.4134 0.878495 24.4972 0.972407C23.5846 0.877541 22.6666 1.09265 21.8901 1.5833C21.6064 1.88975 21.3934 2.2552 21.2664 2.65364C21.1393 3.05208 21.1013 3.47372 21.1551 3.88857C21.1086 4.29067 21.148 4.69811 21.2708 5.08371C21.3936 5.4693 21.5969 5.82418 21.8672 6.12468C22.6436 6.61533 23.5616 6.83044 24.4742 6.73557C25.4046 6.8177 26.3354 6.58213 27.1157 6.06705C27.3782 5.77352 27.5762 5.42788 27.6969 5.05258C27.8176 4.67727 27.8583 4.28069 27.8163 3.88857C27.8762 3.47624 27.8445 3.05572 27.7234 2.65716C27.6023 2.2586 27.3948 1.89188 27.1157 1.5833ZM37.5555 0.0272478C39.0026 -0.0944333 40.4548 0.193055 41.7475 0.857143C42.168 1.21708 42.4931 1.6761 42.6935 2.19307C42.894 2.71005 42.9635 3.26884 42.8959 3.81941C42.9635 4.36998 42.894 4.92878 42.6935 5.44575C42.4931 5.96272 42.168 6.42174 41.7475 6.78168C39.0645 7.88279 36.058 7.88279 33.375 6.78168C32.9544 6.42174 32.6293 5.96272 32.4289 5.44575C32.2285 4.92878 32.1589 4.36998 32.2265 3.81941C32.1589 3.26884 32.2285 2.71005 32.4289 2.19307C32.6293 1.6761 32.9544 1.21708 33.375 0.857143C34.6588 0.204436 36.0988 -0.0750312 37.5325 0.0503005L37.5555 0.0272478ZM40.1396 1.5833C39.3586 1.09343 38.4373 0.878495 37.521 0.972407C36.6122 0.880169 35.6987 1.09517 34.9254 1.5833C34.6458 1.89176 34.437 2.25811 34.314 2.65646C34.1909 3.05481 34.1566 3.47543 34.2134 3.88857C34.1668 4.29067 34.2063 4.69811 34.3291 5.08371C34.4519 5.4693 34.6552 5.82418 34.9254 6.12468C35.7019 6.61533 36.6199 6.83044 37.5325 6.73557C38.4487 6.82948 39.37 6.61455 40.1511 6.12468C40.4294 5.8284 40.6402 5.47502 40.7691 5.08894C40.898 4.70287 40.9418 4.29331 40.8976 3.88857C40.95 3.47193 40.9091 3.04881 40.778 2.65002C40.6469 2.25123 40.4288 1.88681 40.1396 1.5833ZM45.6982 7.46173V0.188616C47.4056 0.127143 49.025 0.0964057 50.5563 0.0964057C51.9873 -0.0231962 53.4231 0.260217 54.7024 0.914775C55.121 1.26871 55.4451 1.72168 55.6456 2.23281C55.8462 2.74394 55.9167 3.29713 55.8509 3.84246C55.9167 4.38779 55.8462 4.94099 55.6456 5.45212C55.4451 5.96325 55.121 6.41622 54.7024 6.77015C53.4231 7.42471 51.9873 7.70812 50.5563 7.58852C49.025 7.58084 47.4095 7.54626 45.7097 7.48478L45.6982 7.46173ZM47.6507 0.995459V6.59726C48.4852 6.59726 49.4538 6.59726 50.5563 6.59726C51.4505 6.68708 52.3487 6.47186 53.106 5.98636C53.36 5.70332 53.5542 5.37143 53.6766 5.01082C53.799 4.65021 53.8471 4.26841 53.818 3.88857C53.8773 3.47537 53.8441 3.05412 53.7209 2.65538C53.5978 2.25665 53.3877 1.89043 53.106 1.5833C52.3487 1.0978 51.4505 0.882588 50.5563 0.972407H47.6507V0.995459Z" transform="translate(129.077 5.33252)" fill="#1F6937"/>
<defs>
<linearGradient id="paint0_linear" x2="1" gradientUnits="userSpaceOnUse" gradientTransform="translate(12.8748) scale(12.8748) rotate(90)">
<stop stop-color="#942C07"/>
<stop offset="1" stop-color="#562717"/>
</linearGradient>
<linearGradient id="paint1_linear" x2="1" gradientUnits="userSpaceOnUse" gradientTransform="translate(12.8748) scale(12.8748) rotate(90)">
<stop stop-color="#942C07"/>
<stop offset="1" stop-color="#562717"/>
</linearGradient>
<linearGradient id="paint2_linear" x2="1" gradientUnits="userSpaceOnUse" gradientTransform="translate(12.8748) scale(12.8748) rotate(90)">
<stop stop-color="#942C07"/>
<stop offset="1" stop-color="#562717"/>
</linearGradient>
</defs>
</svg>
