<svg width="343" height="322" viewBox="0 0 343 322" fill="none" xmlns="http://www.w3.org/2000/svg">
<path d="M100.039 38.32C100.039 33.44 98.4791 29.8 95.3591 27.4C92.3191 25 86.8391 23.8 78.9191 23.8C74.7591 23.8 70.3191 24.36 65.5991 25.48C60.9591 26.6 56.3191 28.04 51.6791 29.8C47.1191 31.56 42.7191 33.52 38.4791 35.68C34.3191 37.76 30.6391 39.8 27.4391 41.8C24.2391 43.72 21.6791 45.48 19.7591 47.08C17.8391 48.6 16.8791 49.64 16.8791 50.2C16.8791 50.6 17.0391 51.04 17.3591 51.52C17.6791 51.92 18.0791 52.36 18.5591 52.84C19.0391 53.24 19.5191 53.6 19.9991 53.92C20.4791 54.16 20.9191 54.28 21.3191 54.28C21.6391 54.28 22.5191 53.84 23.9591 52.96C25.3991 52.08 26.8791 51.12 28.3991 50.08C29.9991 48.96 31.4391 47.92 32.7191 46.96C34.0791 46 34.8391 45.4 34.9991 45.16C35.3991 44.76 35.5591 44.2 35.4791 43.48C35.4791 42.76 35.4791 42.2 35.4791 41.8C35.4791 41.56 36.1191 41 37.3991 40.12C38.6791 39.24 40.4391 38.28 42.6791 37.24C44.9191 36.12 47.5191 34.96 50.4791 33.76C53.5191 32.56 56.7191 31.44 60.0791 30.4C63.5191 29.36 67.0391 28.52 70.6391 27.88C74.3191 27.24 77.8791 26.92 81.3191 26.92C83.9591 26.92 86.1991 27.2 88.0391 27.76C89.9591 28.24 91.5191 28.92 92.7191 29.8C93.9991 30.6 94.9191 31.52 95.4791 32.56C96.0391 33.52 96.3191 34.52 96.3191 35.56C96.3191 36.92 95.5991 38.96 94.1591 41.68C92.7991 44.32 90.9591 47.44 88.6391 51.04C86.3991 54.56 83.7991 58.44 80.8391 62.68C77.8791 66.84 74.7991 71.04 71.5991 75.28C67.1991 75.6 62.7991 76.08 58.3991 76.72C53.9991 77.36 49.5991 78 45.1991 78.64C42.7191 78.96 40.2391 79.24 37.7591 79.48C35.2791 79.72 32.8391 80.04 30.4391 80.44C29.5591 80.68 29.1191 81.2 29.1191 82C29.1191 82.64 29.2791 83.08 29.5991 83.32C29.9191 83.48 30.3991 83.56 31.0391 83.56C32.8791 83.56 34.7591 83.4 36.6791 83.08C38.5991 82.68 40.4791 82.4 42.3191 82.24C46.3191 81.76 50.2791 81.36 54.1991 81.04C58.1191 80.64 62.0791 80.24 66.0791 79.84L68.4791 79.6C65.1991 83.92 61.9991 88.08 58.8791 92.08C55.8391 96 53.0791 99.52 50.5991 102.64C48.1191 105.68 46.0791 108.16 44.4791 110.08C42.9591 112 42.1191 113.04 41.9591 113.2C41.2391 114.08 40.5191 114.76 39.7991 115.24C39.0791 115.64 38.7191 116.28 38.7191 117.16C38.7191 117.96 39.1591 118.84 40.0391 119.8C40.9191 120.76 41.9191 121.24 43.0391 121.24C43.4391 121.24 44.1191 120.92 45.0791 120.28C46.0391 119.64 47.1191 118.8 48.3191 117.76C49.5991 116.72 50.9191 115.64 52.2791 114.52C53.6391 113.32 54.8391 112.16 55.8791 111.04C56.9991 109.92 57.9191 108.96 58.6391 108.16C59.3591 107.36 59.7191 106.84 59.7191 106.6C59.7191 105.88 59.5991 105.2 59.3591 104.56C59.1191 103.92 58.9991 103.4 58.9991 103C58.9991 102.76 59.4391 102 60.3191 100.72C61.2791 99.44 62.4791 97.84 63.9191 95.92C65.4391 94 67.0791 91.88 68.8391 89.56C70.6791 87.24 72.4391 84.92 74.1191 82.6C74.5191 82.04 74.9591 81.44 75.4391 80.8C75.9191 80.16 76.4391 79.48 76.9991 78.76C78.9991 78.6 80.9591 78.48 82.8791 78.4C84.7991 78.32 86.7591 78.28 88.7591 78.28C88.9191 78.28 89.3191 78.28 89.9591 78.28C90.6791 78.28 91.0391 78.16 91.0391 77.92C91.0391 77.12 90.5991 76.52 89.7191 76.12C88.9191 75.64 87.9591 75.32 86.8391 75.16C85.7191 75 84.5991 74.92 83.4791 74.92C82.3591 74.92 81.5591 74.92 81.0791 74.92H79.8791C81.9591 72.2 84.1591 69.2 86.4791 65.92C88.8791 62.56 91.0791 59.24 93.0791 55.96C95.0791 52.68 96.7191 49.52 97.9991 46.48C99.3591 43.36 100.039 40.64 100.039 38.32ZM106.142 74.2C106.142 73.8 106.062 73.2 105.902 72.4C105.742 71.52 105.582 70.88 105.422 70.48C105.262 69.68 104.422 69.28 102.902 69.28C102.022 69.28 101.182 69.8 100.382 70.84C99.6622 71.8 99.3022 72.68 99.3022 73.48C99.3022 73.88 99.4622 74.32 99.7822 74.8C100.102 75.2 100.462 75.6 100.862 76C101.342 76.4 101.782 76.76 102.182 77.08C102.662 77.32 103.022 77.44 103.262 77.44C103.502 77.44 103.782 77.32 104.102 77.08C104.422 76.76 104.742 76.44 105.062 76.12C105.382 75.72 105.622 75.36 105.782 75.04C106.022 74.64 106.142 74.36 106.142 74.2ZM102.542 103.96C102.622 103.48 102.542 103.12 102.302 102.88C102.062 102.64 101.822 102.52 101.582 102.52C100.862 103.16 99.7422 104 98.2222 105.04C96.7822 106 95.2622 107 93.6622 108.04C91.9022 109.08 90.1822 110 88.5022 110.8C86.9022 111.52 85.5822 111.88 84.5422 111.88C84.0622 111.88 83.7022 111.72 83.4622 111.4C83.2222 111 83.1022 110.64 83.1022 110.32C83.1022 109.36 83.6622 108.04 84.7822 106.36C85.9822 104.68 87.1822 103.08 88.3822 101.56C88.9422 100.84 89.6222 100.08 90.4222 99.28C91.2222 98.4 91.9822 97.6 92.7022 96.88C93.4222 96.08 94.0622 95.36 94.6222 94.72C95.1822 94.08 95.5822 93.64 95.8222 93.4C96.2222 92.84 96.5422 91.92 96.7822 90.64C97.0222 89.36 97.1422 88.4 97.1422 87.76C97.1422 87.2 96.8222 86.68 96.1822 86.2C95.5422 85.64 94.7422 85.36 93.7822 85.36C93.0622 85.36 92.3422 85.56 91.6222 85.96C90.9822 86.36 90.3822 86.88 89.8222 87.52C89.2622 88.08 88.7822 88.68 88.3822 89.32C88.0622 89.96 87.9022 90.48 87.9022 90.88C87.9022 91.68 87.5022 92.56 86.7022 93.52C86.5422 93.76 85.9822 94.52 85.0222 95.8C84.1422 97 83.1822 98.48 82.1422 100.24C81.1022 101.92 80.1822 103.72 79.3822 105.64C78.5822 107.56 78.1822 109.28 78.1822 110.8C78.1822 112.56 78.6222 113.76 79.5022 114.4C80.3822 115.04 81.4222 115.36 82.6222 115.36C84.4622 115.36 86.3422 114.88 88.2622 113.92C90.2622 112.88 91.9422 111.96 93.3022 111.16C93.9422 110.76 94.7422 110.2 95.7022 109.48C96.6622 108.76 97.5822 108.04 98.4622 107.32C99.4222 106.6 100.262 105.92 100.982 105.28C101.782 104.64 102.302 104.2 102.542 103.96ZM167.833 30.52C167.833 29.24 167.433 28.08 166.633 27.04C165.832 26 164.632 25.48 163.032 25.48C159.513 25.48 155.673 26.96 151.513 29.92C147.352 32.8 143.112 36.6 138.793 41.32C134.553 46.04 130.352 51.36 126.192 57.28C122.032 63.12 118.232 69.04 114.792 75.04C111.353 81.04 108.393 86.76 105.912 92.2C103.432 97.64 101.672 102.24 100.632 106C100.152 107.84 99.9125 109.64 99.9125 111.4C99.9125 113.16 100.312 114.8 101.112 116.32C101.992 117.76 103.592 118.48 105.912 118.48C108.792 118.48 111.272 117.52 113.353 115.6C113.353 115.52 113.353 115.44 113.353 115.36C113.433 115.2 113.473 115.04 113.473 114.88C113.473 114.72 113.433 114.56 113.353 114.4C113.353 114.24 113.193 114.2 112.872 114.28C111.592 115.4 109.993 115.96 108.072 115.96C106.473 115.96 105.393 115.56 104.833 114.76C104.273 113.88 103.993 112.88 103.993 111.76C103.993 110.56 104.273 109.04 104.833 107.2C105.393 105.28 106.033 103.36 106.752 101.44C107.553 99.44 108.353 97.56 109.153 95.8C109.952 93.96 110.632 92.48 111.192 91.36C112.633 90.08 114.633 88.4 117.192 86.32C119.752 84.16 122.593 81.76 125.713 79.12C128.912 76.4 132.233 73.48 135.673 70.36C139.193 67.24 142.633 64.04 145.993 60.76C148.953 57.88 151.753 55.04 154.392 52.24C157.033 49.36 159.353 46.64 161.352 44.08C163.352 41.44 164.912 38.96 166.032 36.64C167.233 34.32 167.833 32.28 167.833 30.52ZM163.393 34.36C163.393 35.08 162.833 36.28 161.713 37.96C160.673 39.64 159.233 41.6 157.393 43.84C155.632 46 153.552 48.4 151.152 51.04C148.752 53.6 146.232 56.12 143.592 58.6C140.713 61.4 137.793 64.16 134.833 66.88C131.873 69.6 129.073 72.12 126.432 74.44C123.792 76.76 121.432 78.8 119.353 80.56C117.272 82.32 115.712 83.64 114.672 84.52C115.553 82.84 116.753 80.8 118.272 78.4C119.793 75.92 121.513 73.32 123.432 70.6C125.432 67.8 127.552 64.92 129.793 61.96C132.113 59 134.472 56.08 136.872 53.2C139.273 50.32 141.673 47.6 144.073 45.04C146.473 42.48 148.753 40.24 150.913 38.32C153.153 36.4 155.233 34.88 157.153 33.76C159.073 32.64 160.713 32.08 162.072 32.08C162.712 32.08 163.072 32.32 163.152 32.8C163.313 33.2 163.393 33.72 163.393 34.36ZM191.27 30.52C191.27 29.24 190.87 28.08 190.07 27.04C189.27 26 188.07 25.48 186.47 25.48C182.95 25.48 179.11 26.96 174.95 29.92C170.79 32.8 166.55 36.6 162.23 41.32C157.99 46.04 153.79 51.36 149.63 57.28C145.47 63.12 141.67 69.04 138.23 75.04C134.79 81.04 131.83 86.76 129.35 92.2C126.87 97.64 125.11 102.24 124.07 106C123.59 107.84 123.35 109.64 123.35 111.4C123.35 113.16 123.75 114.8 124.55 116.32C125.43 117.76 127.03 118.48 129.35 118.48C132.23 118.48 134.71 117.52 136.79 115.6C136.79 115.52 136.79 115.44 136.79 115.36C136.87 115.2 136.91 115.04 136.91 114.88C136.91 114.72 136.87 114.56 136.79 114.4C136.79 114.24 136.63 114.2 136.31 114.28C135.03 115.4 133.43 115.96 131.51 115.96C129.91 115.96 128.83 115.56 128.27 114.76C127.71 113.88 127.43 112.88 127.43 111.76C127.43 110.56 127.71 109.04 128.27 107.2C128.83 105.28 129.47 103.36 130.19 101.44C130.99 99.44 131.79 97.56 132.59 95.8C133.39 93.96 134.07 92.48 134.63 91.36C136.07 90.08 138.07 88.4 140.63 86.32C143.19 84.16 146.03 81.76 149.15 79.12C152.35 76.4 155.67 73.48 159.11 70.36C162.63 67.24 166.07 64.04 169.43 60.76C172.39 57.88 175.19 55.04 177.83 52.24C180.47 49.36 182.79 46.64 184.79 44.08C186.79 41.44 188.35 38.96 189.47 36.64C190.67 34.32 191.27 32.28 191.27 30.52ZM186.83 34.36C186.83 35.08 186.27 36.28 185.15 37.96C184.11 39.64 182.67 41.6 180.83 43.84C179.07 46 176.99 48.4 174.59 51.04C172.19 53.6 169.67 56.12 167.03 58.6C164.15 61.4 161.23 64.16 158.27 66.88C155.31 69.6 152.51 72.12 149.87 74.44C147.23 76.76 144.87 78.8 142.79 80.56C140.71 82.32 139.15 83.64 138.11 84.52C138.99 82.84 140.19 80.8 141.71 78.4C143.23 75.92 144.95 73.32 146.87 70.6C148.87 67.8 150.99 64.92 153.23 61.96C155.55 59 157.91 56.08 160.31 53.2C162.71 50.32 165.11 47.6 167.51 45.04C169.91 42.48 172.19 40.24 174.35 38.32C176.59 36.4 178.67 34.88 180.59 33.76C182.51 32.64 184.15 32.08 185.51 32.08C186.15 32.08 186.51 32.32 186.59 32.8C186.75 33.2 186.83 33.72 186.83 34.36ZM233.714 94.48C233.714 93.12 233.474 92 232.994 91.12C232.514 90.16 231.954 89.4 231.314 88.84C230.674 88.2 229.994 87.76 229.274 87.52C228.634 87.2 228.114 87.04 227.714 87.04C227.474 87.12 227.234 87.36 226.994 87.76C226.834 88.08 226.834 88.4 226.994 88.72C228.114 89.04 229.074 89.64 229.874 90.52C230.754 91.4 231.194 92.56 231.194 94C231.194 95.44 230.554 97.32 229.274 99.64C227.994 101.88 226.434 104.08 224.594 106.24C222.754 108.32 220.794 110.12 218.714 111.64C216.634 113.16 214.834 113.92 213.314 113.92C212.194 113.92 211.514 113.44 211.274 112.48C211.034 111.44 210.914 110.24 210.914 108.88C210.914 108.24 211.034 107.28 211.274 106C211.514 104.64 211.794 103.2 212.114 101.68C212.434 100.08 212.714 98.56 212.954 97.12C213.194 95.6 213.314 94.36 213.314 93.4C213.314 92.52 212.874 91.52 211.994 90.4C211.194 89.28 210.034 88.72 208.514 88.72C207.554 88.72 206.074 89.4 204.074 90.76C202.074 92.04 199.954 93.52 197.714 95.2C195.554 96.88 193.514 98.56 191.594 100.24C189.754 101.84 188.514 102.96 187.874 103.6L187.274 103.12C187.434 102.8 187.874 101.8 188.594 100.12C189.394 98.44 190.194 96.64 190.994 94.72C191.794 92.72 192.514 90.88 193.154 89.2C193.794 87.52 194.114 86.48 194.114 86.08C194.114 85.6 193.714 85.12 192.914 84.64C192.194 84.08 191.634 83.8 191.234 83.8C190.514 83.8 189.674 84.4 188.714 85.6C187.834 86.8 186.874 88.36 185.834 90.28C184.794 92.12 183.754 94.16 182.714 96.4C181.754 98.56 180.834 100.64 179.954 102.64C179.154 104.56 178.514 106.28 178.034 107.8C177.554 109.32 177.314 110.28 177.314 110.68C177.314 111.32 177.474 111.92 177.794 112.48C178.114 113.04 178.474 113.52 178.874 113.92C179.354 114.32 179.794 114.68 180.194 115C180.674 115.24 181.034 115.36 181.274 115.36C181.434 115.36 181.994 114.84 182.954 113.8C183.994 112.68 185.194 111.36 186.554 109.84C187.914 108.32 189.314 106.76 190.754 105.16C192.274 103.56 193.594 102.24 194.714 101.2C195.834 100.16 197.074 99.12 198.434 98.08C199.794 96.96 201.074 95.96 202.274 95.08C203.474 94.12 204.514 93.36 205.394 92.8C206.274 92.16 206.754 91.84 206.834 91.84C207.074 91.84 207.274 91.92 207.434 92.08C207.594 92.24 207.674 92.4 207.674 92.56C207.674 92.64 207.474 93.36 207.074 94.72C206.674 96 206.234 97.56 205.754 99.4C205.354 101.16 204.954 103 204.554 104.92C204.154 106.84 203.954 108.4 203.954 109.6C203.954 110.88 204.194 112.12 204.674 113.32C205.234 114.52 205.914 115.6 206.714 116.56C207.594 117.52 208.514 118.28 209.474 118.84C210.514 119.4 211.514 119.68 212.474 119.68C213.274 119.68 214.354 119.28 215.714 118.48C217.074 117.76 218.514 116.76 220.034 115.48C221.634 114.2 223.234 112.72 224.834 111.04C226.434 109.28 227.874 107.48 229.154 105.64C230.514 103.8 231.594 101.92 232.394 100C233.274 98.08 233.714 96.24 233.714 94.48ZM262.47 74.2C262.47 73.8 262.39 73.2 262.23 72.4C262.07 71.52 261.91 70.88 261.75 70.48C261.59 69.68 260.75 69.28 259.23 69.28C258.35 69.28 257.51 69.8 256.71 70.84C255.99 71.8 255.63 72.68 255.63 73.48C255.63 73.88 255.79 74.32 256.11 74.8C256.43 75.2 256.79 75.6 257.19 76C257.67 76.4 258.11 76.76 258.51 77.08C258.99 77.32 259.35 77.44 259.59 77.44C259.83 77.44 260.11 77.32 260.43 77.08C260.75 76.76 261.07 76.44 261.39 76.12C261.71 75.72 261.95 75.36 262.11 75.04C262.35 74.64 262.47 74.36 262.47 74.2ZM258.87 103.96C258.95 103.48 258.87 103.12 258.63 102.88C258.39 102.64 258.15 102.52 257.91 102.52C257.19 103.16 256.07 104 254.55 105.04C253.11 106 251.59 107 249.99 108.04C248.23 109.08 246.51 110 244.83 110.8C243.23 111.52 241.91 111.88 240.87 111.88C240.39 111.88 240.03 111.72 239.79 111.4C239.55 111 239.43 110.64 239.43 110.32C239.43 109.36 239.99 108.04 241.11 106.36C242.31 104.68 243.51 103.08 244.71 101.56C245.27 100.84 245.95 100.08 246.75 99.28C247.55 98.4 248.31 97.6 249.03 96.88C249.75 96.08 250.39 95.36 250.95 94.72C251.51 94.08 251.91 93.64 252.15 93.4C252.55 92.84 252.87 91.92 253.11 90.64C253.35 89.36 253.47 88.4 253.47 87.76C253.47 87.2 253.15 86.68 252.51 86.2C251.87 85.64 251.07 85.36 250.11 85.36C249.39 85.36 248.67 85.56 247.95 85.96C247.31 86.36 246.71 86.88 246.15 87.52C245.59 88.08 245.11 88.68 244.71 89.32C244.39 89.96 244.23 90.48 244.23 90.88C244.23 91.68 243.83 92.56 243.03 93.52C242.87 93.76 242.31 94.52 241.35 95.8C240.47 97 239.51 98.48 238.47 100.24C237.43 101.92 236.51 103.72 235.71 105.64C234.91 107.56 234.51 109.28 234.51 110.8C234.51 112.56 234.95 113.76 235.83 114.4C236.71 115.04 237.75 115.36 238.95 115.36C240.79 115.36 242.67 114.88 244.59 113.92C246.59 112.88 248.27 111.96 249.63 111.16C250.27 110.76 251.07 110.2 252.03 109.48C252.99 108.76 253.91 108.04 254.79 107.32C255.75 106.6 256.59 105.92 257.31 105.28C258.11 104.64 258.63 104.2 258.87 103.96ZM306.487 44.32C306.487 43.92 306.287 43.56 305.887 43.24C305.487 42.84 305.007 42.52 304.447 42.28C303.967 42.04 303.407 41.84 302.767 41.68C302.207 41.52 301.727 41.44 301.327 41.44C301.007 41.44 300.287 42.08 299.167 43.36C298.047 44.56 296.647 46.16 294.967 48.16C293.367 50.08 291.567 52.32 289.567 54.88C287.647 57.36 285.687 59.88 283.687 62.44C281.767 65 279.927 67.48 278.167 69.88C276.487 72.2 275.087 74.2 273.967 75.88C273.647 76.28 273.327 76.72 273.007 77.2C272.767 77.6 272.447 78.04 272.047 78.52C270.127 78.52 268.607 78.56 267.487 78.64C266.367 78.64 265.527 78.68 264.967 78.76C264.487 78.76 264.127 78.76 263.887 78.76C263.727 78.76 263.567 78.76 263.407 78.76C262.927 78.76 262.487 78.88 262.087 79.12C261.687 79.36 261.487 79.68 261.487 80.08C261.487 80.48 261.767 80.64 262.327 80.56C262.887 80.48 263.447 80.44 264.007 80.44C264.167 80.44 264.287 80.44 264.367 80.44C264.527 80.44 264.807 80.44 265.207 80.44C265.607 80.44 266.207 80.48 267.007 80.56C267.887 80.56 269.127 80.56 270.727 80.56C268.967 83.2 267.127 86.08 265.207 89.2C263.367 92.32 261.647 95.56 260.047 98.92C258.527 102.2 257.247 105.52 256.207 108.88C255.167 112.16 254.647 115.28 254.647 118.24C254.647 120.8 255.287 122.8 256.567 124.24C257.847 125.68 259.487 126.4 261.487 126.4C262.767 126.4 264.047 126.16 265.327 125.68C266.607 125.28 267.767 124.76 268.807 124.12C269.847 123.56 270.767 122.96 271.567 122.32C272.367 121.76 272.967 121.32 273.367 121C273.527 120.68 273.527 120.36 273.367 120.04C273.207 119.72 272.967 119.48 272.647 119.32C272.247 119.64 271.647 120.08 270.847 120.64C270.127 121.2 269.247 121.72 268.207 122.2C267.247 122.76 266.207 123.24 265.087 123.64C263.967 124.04 262.847 124.24 261.727 124.24C260.607 124.24 259.647 123.76 258.847 122.8C258.047 121.84 257.647 120.52 257.647 118.84C257.647 116.36 258.367 113.48 259.807 110.2C261.247 106.92 263.007 103.56 265.087 100.12C267.167 96.6 269.407 93.16 271.807 89.8C274.287 86.36 276.567 83.28 278.647 80.56H282.007C282.167 80.56 282.247 80.64 282.247 80.8C282.247 80.96 282.207 81.12 282.127 81.28C282.127 81.44 282.127 81.6 282.127 81.76C282.127 82.08 282.167 82.28 282.247 82.36C282.407 82.44 282.767 82.48 283.327 82.48C283.647 82.48 284.287 82.44 285.247 82.36C286.287 82.2 287.287 82 288.247 81.76C289.287 81.52 290.207 81.24 291.007 80.92C291.807 80.52 292.207 80.08 292.207 79.6C292.207 79.28 291.967 79 291.487 78.76C291.007 78.44 290.447 78.28 289.807 78.28C289.487 78.28 288.407 78.28 286.567 78.28C284.807 78.28 282.647 78.32 280.087 78.4C282.807 74.64 285.487 71.04 288.127 67.6C290.847 64.08 293.287 60.96 295.447 58.24C297.687 55.52 299.527 53.32 300.967 51.64C302.487 49.88 303.407 48.8 303.727 48.4C304.367 47.76 304.967 47.12 305.527 46.48C306.167 45.84 306.487 45.12 306.487 44.32ZM358.705 28.6C358.705 27 358.385 25.76 357.745 24.88C357.105 23.92 356.065 23.44 354.625 23.44C351.345 23.44 347.665 24.72 343.585 27.28C339.585 29.76 335.385 33.08 330.985 37.24C326.585 41.4 322.105 46.16 317.545 51.52C313.065 56.88 308.705 62.4 304.465 68.08C300.305 73.68 296.385 79.28 292.705 84.88C289.025 90.48 285.825 95.56 283.105 100.12C280.385 104.68 278.225 108.56 276.625 111.76C275.025 114.88 274.225 116.84 274.225 117.64C274.225 118.52 274.465 119.16 274.945 119.56C275.345 119.96 275.865 120.16 276.505 120.16C276.985 120.16 277.985 119.48 279.505 118.12C281.105 116.84 282.985 115.2 285.145 113.2C287.385 111.2 289.825 109 292.465 106.6C295.105 104.2 297.785 101.92 300.505 99.76C303.865 97.04 307.105 94.76 310.225 92.92C313.345 91 316.065 90.04 318.385 90.04C319.745 90.04 320.745 90.52 321.385 91.48C322.025 92.36 322.345 93.36 322.345 94.48C322.345 95.44 322.305 96.64 322.225 98.08C322.145 99.52 322.065 101.12 321.985 102.88C321.985 104.56 321.945 106.36 321.865 108.28C321.785 110.12 321.745 111.92 321.745 113.68C321.745 115.76 322.345 117.28 323.545 118.24C324.825 119.28 326.065 119.8 327.265 119.8C328.385 119.8 329.545 119.44 330.745 118.72C332.025 118 333.185 117.2 334.225 116.32C335.345 115.36 336.305 114.48 337.105 113.68C337.905 112.8 338.425 112.24 338.665 112C338.825 111.44 338.665 111 338.185 110.68C337.945 110.92 337.545 111.28 336.985 111.76C336.425 112.24 335.785 112.72 335.065 113.2C334.425 113.68 333.745 114.12 333.025 114.52C332.305 114.84 331.625 115 330.985 115C330.185 115 329.625 114.44 329.305 113.32C328.985 112.12 328.785 110.64 328.705 108.88C328.705 107.12 328.745 105.2 328.825 103.12C328.905 101.04 328.945 99.12 328.945 97.36C328.945 93.76 328.065 91.08 326.305 89.32C324.545 87.56 322.145 86.68 319.105 86.68C316.305 86.68 313.185 87.6 309.745 89.44C306.385 91.28 303.025 93.48 299.665 96.04C297.265 97.88 294.945 99.8 292.705 101.8C290.465 103.8 288.465 105.64 286.705 107.32C285.025 109 283.625 110.4 282.505 111.52C281.465 112.64 280.865 113.28 280.705 113.44L280.465 113.08C281.505 111 282.985 108.4 284.905 105.28C286.825 102.16 289.065 98.68 291.625 94.84C293.945 93.88 296.705 92.44 299.905 90.52C303.185 88.52 306.625 86.2 310.225 83.56C313.905 80.92 317.705 78.04 321.625 74.92C325.545 71.72 329.345 68.44 333.025 65.08C336.545 61.88 339.865 58.6 342.985 55.24C346.105 51.88 348.825 48.64 351.145 45.52C353.465 42.32 355.305 39.28 356.665 36.4C358.025 33.52 358.705 30.92 358.705 28.6ZM355.105 31.84C355.105 33.2 354.425 34.96 353.065 37.12C351.705 39.28 349.865 41.72 347.545 44.44C345.225 47.16 342.545 50.08 339.505 53.2C336.545 56.24 333.385 59.32 330.025 62.44C326.505 65.72 322.945 68.88 319.345 71.92C315.825 74.96 312.465 77.76 309.265 80.32C306.145 82.8 303.305 84.92 300.745 86.68C298.185 88.44 296.185 89.64 294.745 90.28C298.025 85.56 301.545 80.84 305.305 76.12C309.065 71.4 312.625 67 315.985 62.92C317.185 61.48 318.785 59.64 320.785 57.4C322.865 55.16 325.105 52.84 327.505 50.44C329.985 47.96 332.505 45.48 335.065 43C337.705 40.52 340.185 38.32 342.505 36.4C344.825 34.4 346.905 32.8 348.745 31.6C350.585 30.32 351.985 29.68 352.945 29.68C353.665 29.68 354.185 29.84 354.505 30.16C354.905 30.4 355.105 30.96 355.105 31.84ZM99.8666 172.16C99.8666 165.84 96.5466 162.68 89.9066 162.68C89.7466 162.68 89.6266 162.72 89.5466 162.8C89.4666 162.8 89.3466 162.8 89.1866 162.8C91.2666 159.28 92.9066 156.4 94.1066 154.16C95.3066 151.84 95.9066 150.44 95.9066 149.96C95.9066 149.48 95.6266 149.24 95.0666 149.24C94.2666 149.24 93.5066 149.6 92.7866 150.32C92.0666 150.96 91.3866 151.68 90.7466 152.48C90.3466 153.04 89.3866 154.4 87.8666 156.56C86.3466 158.64 84.5066 161.28 82.3466 164.48C78.5066 166.08 74.5066 168.64 70.3466 172.16C66.2666 175.68 62.2666 179.76 58.3466 184.4C54.4266 188.96 50.7066 193.88 47.1866 199.16C43.6666 204.44 40.5866 209.6 37.9466 214.64C35.2266 219.76 33.1066 224.56 31.5866 229.04C29.9866 233.52 29.1866 237.28 29.1866 240.32C29.1866 242.08 29.5466 243.6 30.2666 244.88C30.9866 246.16 31.7466 246.8 32.5466 246.8C33.1866 246.8 34.7066 245.28 37.1066 242.24C39.4266 239.2 42.2266 235.36 45.5066 230.72C48.7066 226.08 52.1466 221 55.8266 215.48C59.4266 210.04 62.8266 204.88 66.0266 200C67.0666 200.16 68.2266 200.24 69.5066 200.24C70.7866 200.24 71.9066 200.24 72.8666 200.24C75.2666 200.24 77.8666 199.72 80.6666 198.68C83.5466 197.72 86.2266 196.64 88.7066 195.44C91.1866 194.16 93.3066 192.96 95.0666 191.84C96.9066 190.64 97.9866 189.88 98.3066 189.56C98.9466 189.08 99.2666 188.6 99.2666 188.12C99.2666 187.64 99.0666 187.4 98.6666 187.4C98.4266 187.4 98.1466 187.52 97.8266 187.76C97.4266 188 96.8666 188.28 96.1466 188.6C95.4266 188.84 94.6666 189.12 93.8666 189.44C93.0666 189.76 92.3066 190.08 91.5866 190.4C90.8666 190.72 90.3466 190.96 90.0266 191.12L89.7866 190.4C90.1866 190.16 90.9466 189.4 92.0666 188.12C93.1866 186.76 94.3066 185.16 95.4266 183.32C96.6266 181.48 97.6666 179.56 98.5466 177.56C99.4266 175.56 99.8666 173.76 99.8666 172.16ZM95.3066 171.32C95.3066 173.96 94.7466 176.48 93.6266 178.88C92.5066 181.28 91.1866 183.44 89.6666 185.36C88.2266 187.28 86.7466 188.88 85.2266 190.16C83.7866 191.44 82.6666 192.32 81.8666 192.8C81.3066 193.12 80.4666 193.48 79.3466 193.88C78.2266 194.2 77.0266 194.52 75.7466 194.84C74.4666 195.16 73.1466 195.44 71.7866 195.68C70.5066 195.92 69.3866 196.12 68.4266 196.28C68.6666 195.88 68.8666 195.56 69.0266 195.32C69.2666 195 69.5066 194.64 69.7466 194.24C72.9466 189.28 76.1066 184.28 79.2266 179.24C82.3466 174.2 85.1866 169.56 87.7466 165.32C88.0666 165.24 88.5466 165.2 89.1866 165.2C90.9466 165.2 92.3866 165.72 93.5066 166.76C94.7066 167.72 95.3066 169.24 95.3066 171.32ZM79.7066 168.32C76.9866 172.4 74.0666 176.84 70.9466 181.64C67.8266 186.36 64.7866 191.08 61.8266 195.8C59.8266 199 57.7466 202.32 55.5866 205.76C53.3466 209.28 51.1866 212.72 49.1066 216.08C47.0266 219.44 45.0266 222.6 43.1066 225.56C41.1866 228.6 39.5066 231.24 38.0666 233.48C36.5466 235.8 35.3466 237.64 34.4666 239C33.5066 240.36 32.9866 241.04 32.9066 241.04C32.5066 241.04 32.3066 240.76 32.3066 240.2C32.2266 239.64 32.1866 239 32.1866 238.28C32.1866 236.2 32.8666 233.32 34.2266 229.64C35.5866 225.96 37.4666 221.84 39.8666 217.28C42.2666 212.8 45.0266 208.08 48.1466 203.12C51.2666 198.24 54.5866 193.56 58.1066 189.08C61.6266 184.6 65.2266 180.52 68.9066 176.84C72.6666 173.16 76.2666 170.32 79.7066 168.32ZM140.717 172.04C140.557 171.88 140.357 171.52 140.117 170.96C139.957 170.32 139.757 169.68 139.517 169.04V168.32C139.517 165.68 138.917 163.8 137.717 162.68C136.517 161.48 135.157 160.88 133.637 160.88C132.597 160.88 131.437 161.04 130.157 161.36C128.877 161.68 127.957 161.84 127.397 161.84C127.157 161.84 126.917 161.72 126.677 161.48C126.517 161.16 126.317 160.84 126.077 160.52C125.837 160.12 125.597 159.8 125.357 159.56C125.117 159.24 124.797 159.08 124.397 159.08C123.277 159.08 121.957 159.56 120.437 160.52C118.917 161.48 117.317 162.76 115.637 164.36C113.957 165.96 112.277 167.76 110.597 169.76C108.997 171.76 107.517 173.8 106.157 175.88C104.797 177.96 103.717 180 102.917 182C102.117 184 101.717 185.76 101.717 187.28C101.717 189.92 102.557 191.92 104.237 193.28C105.997 194.56 108.157 195.2 110.717 195.2C113.197 195.2 115.757 194.48 118.397 193.04C121.037 191.52 123.557 189.68 125.957 187.52C128.437 185.36 130.677 183.04 132.677 180.56C134.677 178 136.277 175.68 137.477 173.6C138.037 173.52 138.557 173.44 139.037 173.36C139.517 173.2 139.877 173.12 140.117 173.12C141.077 173.12 141.277 172.76 140.717 172.04ZM135.197 164.6C135.197 164.76 134.797 165.24 133.997 166.04C133.277 166.84 132.917 167.92 132.917 169.28C132.917 170.32 133.037 171 133.277 171.32C133.597 171.64 133.837 171.88 133.997 172.04C133.997 172.68 133.557 173.64 132.677 174.92C131.877 176.12 130.757 177.48 129.317 179C127.957 180.52 126.397 182.08 124.637 183.68C122.957 185.28 121.237 186.72 119.477 188C117.797 189.28 116.157 190.36 114.557 191.24C113.037 192.04 111.717 192.44 110.597 192.44C108.357 192.44 107.237 191.32 107.237 189.08C107.237 187.8 107.637 186.28 108.437 184.52C109.317 182.76 110.477 180.96 111.917 179.12C113.357 177.28 114.997 175.48 116.837 173.72C118.677 171.88 120.557 170.28 122.477 168.92C124.477 167.48 126.477 166.32 128.477 165.44C130.477 164.56 132.317 164.12 133.997 164.12C134.797 164.12 135.197 164.28 135.197 164.6ZM171.048 163.64C171.048 163.08 170.688 162.4 169.968 161.6C169.328 160.72 168.528 159.88 167.568 159.08C166.608 158.28 165.608 157.6 164.568 157.04C163.608 156.48 162.848 156.2 162.288 156.2C159.968 156.2 157.768 156.64 155.688 157.52C153.608 158.32 151.768 159.48 150.168 161C148.648 162.44 147.408 164.2 146.448 166.28C145.568 168.28 145.128 170.44 145.128 172.76C145.128 174.68 145.448 176.32 146.088 177.68C146.808 179.04 147.568 180.32 148.368 181.52C149.248 182.64 150.008 183.76 150.648 184.88C151.368 185.92 151.728 187.08 151.728 188.36C151.728 190.36 150.888 192.16 149.208 193.76C147.608 195.36 145.808 196.16 143.808 196.16C142.608 196.16 141.608 195.92 140.808 195.44C140.088 194.96 139.528 194.72 139.128 194.72C138.648 194.72 138.248 194.88 137.928 195.2C138.248 196.48 139.048 197.4 140.328 197.96C141.688 198.6 142.928 198.92 144.048 198.92C145.568 198.92 147.128 198.6 148.728 197.96C150.328 197.4 151.768 196.6 153.048 195.56C154.408 194.44 155.488 193.2 156.288 191.84C157.168 190.4 157.608 188.84 157.608 187.16C157.608 185.8 157.328 184.52 156.768 183.32C156.208 182.12 155.568 180.92 154.848 179.72C154.208 178.52 153.608 177.32 153.048 176.12C152.488 174.92 152.208 173.64 152.208 172.28C152.208 170.84 152.488 169.48 153.048 168.2C153.688 166.84 154.528 165.68 155.568 164.72C156.608 163.68 157.808 162.84 159.168 162.2C160.528 161.56 161.968 161.24 163.488 161.24C164.928 161.24 165.968 161.44 166.608 161.84C167.328 162.24 167.848 162.68 168.168 163.16C168.488 163.64 168.728 164.08 168.888 164.48C169.048 164.88 169.368 165.08 169.848 165.08C170.248 165.08 170.528 164.92 170.688 164.6C170.928 164.28 171.048 163.96 171.048 163.64ZM193.447 153.2C193.447 152.8 193.367 152.2 193.207 151.4C193.047 150.52 192.887 149.88 192.727 149.48C192.567 148.68 191.727 148.28 190.207 148.28C189.327 148.28 188.487 148.8 187.687 149.84C186.967 150.8 186.607 151.68 186.607 152.48C186.607 152.88 186.767 153.32 187.087 153.8C187.407 154.2 187.767 154.6 188.167 155C188.647 155.4 189.087 155.76 189.487 156.08C189.967 156.32 190.327 156.44 190.567 156.44C190.807 156.44 191.087 156.32 191.407 156.08C191.727 155.76 192.047 155.44 192.367 155.12C192.687 154.72 192.927 154.36 193.087 154.04C193.327 153.64 193.447 153.36 193.447 153.2ZM189.847 182.96C189.927 182.48 189.847 182.12 189.607 181.88C189.367 181.64 189.127 181.52 188.887 181.52C188.167 182.16 187.047 183 185.527 184.04C184.087 185 182.567 186 180.967 187.04C179.207 188.08 177.487 189 175.807 189.8C174.207 190.52 172.887 190.88 171.847 190.88C171.367 190.88 171.007 190.72 170.767 190.4C170.527 190 170.407 189.64 170.407 189.32C170.407 188.36 170.967 187.04 172.087 185.36C173.287 183.68 174.487 182.08 175.687 180.56C176.247 179.84 176.927 179.08 177.727 178.28C178.527 177.4 179.287 176.6 180.007 175.88C180.727 175.08 181.367 174.36 181.927 173.72C182.487 173.08 182.887 172.64 183.127 172.4C183.527 171.84 183.847 170.92 184.087 169.64C184.327 168.36 184.447 167.4 184.447 166.76C184.447 166.2 184.127 165.68 183.487 165.2C182.847 164.64 182.047 164.36 181.087 164.36C180.367 164.36 179.647 164.56 178.927 164.96C178.287 165.36 177.687 165.88 177.127 166.52C176.567 167.08 176.087 167.68 175.687 168.32C175.367 168.96 175.207 169.48 175.207 169.88C175.207 170.68 174.807 171.56 174.007 172.52C173.847 172.76 173.287 173.52 172.327 174.8C171.447 176 170.487 177.48 169.447 179.24C168.407 180.92 167.487 182.72 166.687 184.64C165.887 186.56 165.487 188.28 165.487 189.8C165.487 191.56 165.927 192.76 166.807 193.4C167.687 194.04 168.727 194.36 169.927 194.36C171.767 194.36 173.647 193.88 175.567 192.92C177.567 191.88 179.247 190.96 180.607 190.16C181.247 189.76 182.047 189.2 183.007 188.48C183.967 187.76 184.887 187.04 185.767 186.32C186.727 185.6 187.567 184.92 188.287 184.28C189.087 183.64 189.607 183.2 189.847 182.96ZM237.463 123.32C237.463 122.92 237.263 122.56 236.863 122.24C236.463 121.84 235.983 121.52 235.423 121.28C234.943 121.04 234.383 120.84 233.743 120.68C233.183 120.52 232.703 120.44 232.303 120.44C231.983 120.44 231.263 121.08 230.143 122.36C229.023 123.56 227.623 125.16 225.943 127.16C224.343 129.08 222.543 131.32 220.543 133.88C218.623 136.36 216.663 138.88 214.663 141.44C212.743 144 210.903 146.48 209.143 148.88C207.463 151.2 206.063 153.2 204.943 154.88C204.623 155.28 204.303 155.72 203.983 156.2C203.743 156.6 203.423 157.04 203.023 157.52C201.103 157.52 199.583 157.56 198.463 157.64C197.343 157.64 196.503 157.68 195.943 157.76C195.463 157.76 195.103 157.76 194.863 157.76C194.703 157.76 194.543 157.76 194.383 157.76C193.903 157.76 193.463 157.88 193.063 158.12C192.663 158.36 192.463 158.68 192.463 159.08C192.463 159.48 192.743 159.64 193.303 159.56C193.863 159.48 194.423 159.44 194.983 159.44C195.143 159.44 195.263 159.44 195.343 159.44C195.503 159.44 195.783 159.44 196.183 159.44C196.583 159.44 197.183 159.48 197.983 159.56C198.863 159.56 200.103 159.56 201.703 159.56C199.943 162.2 198.103 165.08 196.183 168.2C194.343 171.32 192.623 174.56 191.023 177.92C189.503 181.2 188.223 184.52 187.183 187.88C186.143 191.16 185.623 194.28 185.623 197.24C185.623 199.8 186.263 201.8 187.543 203.24C188.823 204.68 190.463 205.4 192.463 205.4C193.743 205.4 195.023 205.16 196.303 204.68C197.583 204.28 198.743 203.76 199.783 203.12C200.823 202.56 201.743 201.96 202.543 201.32C203.343 200.76 203.943 200.32 204.343 200C204.503 199.68 204.503 199.36 204.343 199.04C204.183 198.72 203.943 198.48 203.623 198.32C203.223 198.64 202.623 199.08 201.823 199.64C201.103 200.2 200.223 200.72 199.183 201.2C198.223 201.76 197.183 202.24 196.063 202.64C194.943 203.04 193.823 203.24 192.703 203.24C191.583 203.24 190.623 202.76 189.823 201.8C189.023 200.84 188.623 199.52 188.623 197.84C188.623 195.36 189.343 192.48 190.783 189.2C192.223 185.92 193.983 182.56 196.063 179.12C198.143 175.6 200.383 172.16 202.783 168.8C205.263 165.36 207.543 162.28 209.623 159.56H212.983C213.143 159.56 213.223 159.64 213.223 159.8C213.223 159.96 213.183 160.12 213.103 160.28C213.103 160.44 213.103 160.6 213.103 160.76C213.103 161.08 213.143 161.28 213.223 161.36C213.383 161.44 213.743 161.48 214.303 161.48C214.623 161.48 215.263 161.44 216.223 161.36C217.263 161.2 218.263 161 219.223 160.76C220.263 160.52 221.183 160.24 221.983 159.92C222.783 159.52 223.183 159.08 223.183 158.6C223.183 158.28 222.943 158 222.463 157.76C221.983 157.44 221.423 157.28 220.783 157.28C220.463 157.28 219.383 157.28 217.543 157.28C215.783 157.28 213.623 157.32 211.063 157.4C213.783 153.64 216.463 150.04 219.103 146.6C221.823 143.08 224.263 139.96 226.423 137.24C228.663 134.52 230.503 132.32 231.943 130.64C233.463 128.88 234.383 127.8 234.703 127.4C235.343 126.76 235.943 126.12 236.503 125.48C237.143 124.84 237.463 124.12 237.463 123.32ZM237.509 153.2C237.509 152.8 237.429 152.2 237.269 151.4C237.109 150.52 236.949 149.88 236.789 149.48C236.629 148.68 235.789 148.28 234.269 148.28C233.389 148.28 232.549 148.8 231.749 149.84C231.029 150.8 230.669 151.68 230.669 152.48C230.669 152.88 230.829 153.32 231.149 153.8C231.469 154.2 231.829 154.6 232.229 155C232.709 155.4 233.149 155.76 233.549 156.08C234.029 156.32 234.389 156.44 234.629 156.44C234.869 156.44 235.149 156.32 235.469 156.08C235.789 155.76 236.109 155.44 236.429 155.12C236.749 154.72 236.989 154.36 237.149 154.04C237.389 153.64 237.509 153.36 237.509 153.2ZM233.909 182.96C233.989 182.48 233.909 182.12 233.669 181.88C233.429 181.64 233.189 181.52 232.949 181.52C232.229 182.16 231.109 183 229.589 184.04C228.149 185 226.629 186 225.029 187.04C223.269 188.08 221.549 189 219.869 189.8C218.269 190.52 216.949 190.88 215.909 190.88C215.429 190.88 215.069 190.72 214.829 190.4C214.589 190 214.469 189.64 214.469 189.32C214.469 188.36 215.029 187.04 216.149 185.36C217.349 183.68 218.549 182.08 219.749 180.56C220.309 179.84 220.989 179.08 221.789 178.28C222.589 177.4 223.349 176.6 224.069 175.88C224.789 175.08 225.429 174.36 225.989 173.72C226.549 173.08 226.949 172.64 227.189 172.4C227.589 171.84 227.909 170.92 228.149 169.64C228.389 168.36 228.509 167.4 228.509 166.76C228.509 166.2 228.189 165.68 227.549 165.2C226.909 164.64 226.109 164.36 225.149 164.36C224.429 164.36 223.709 164.56 222.989 164.96C222.349 165.36 221.749 165.88 221.189 166.52C220.629 167.08 220.149 167.68 219.749 168.32C219.429 168.96 219.269 169.48 219.269 169.88C219.269 170.68 218.869 171.56 218.069 172.52C217.909 172.76 217.349 173.52 216.389 174.8C215.509 176 214.549 177.48 213.509 179.24C212.469 180.92 211.549 182.72 210.749 184.64C209.949 186.56 209.549 188.28 209.549 189.8C209.549 191.56 209.989 192.76 210.869 193.4C211.749 194.04 212.789 194.36 213.989 194.36C215.829 194.36 217.709 193.88 219.629 192.92C221.629 191.88 223.309 190.96 224.669 190.16C225.309 189.76 226.109 189.2 227.069 188.48C228.029 187.76 228.949 187.04 229.829 186.32C230.789 185.6 231.629 184.92 232.349 184.28C233.149 183.64 233.669 183.2 233.909 182.96ZM264.634 169.16C264.554 168.6 264.474 167.96 264.394 167.24C264.314 166.44 264.274 165.72 264.274 165.08C264.274 164.44 264.034 163.84 263.554 163.28C263.074 162.64 262.394 162.32 261.514 162.32C260.394 162.32 259.634 162.64 259.234 163.28C258.914 163.92 258.754 164.44 258.754 164.84C258.754 166.44 258.274 168.24 257.314 170.24C256.434 172.16 254.834 174.84 252.514 178.28C251.314 180.04 250.074 181.68 248.794 183.2C247.514 184.64 246.274 185.92 245.074 187.04C243.954 188.08 242.914 188.92 241.954 189.56C240.994 190.12 240.234 190.4 239.674 190.4C239.114 190.4 238.674 190.2 238.354 189.8C238.034 189.4 237.874 188.64 237.874 187.52C237.874 186.56 238.314 184.96 239.194 182.72C240.074 180.48 240.994 178.16 241.954 175.76C242.994 173.36 243.954 171.16 244.834 169.16C245.714 167.08 246.154 165.76 246.154 165.2C246.154 164.64 246.034 164 245.794 163.28C245.634 162.56 245.394 161.88 245.074 161.24C244.754 160.6 244.394 160.08 243.994 159.68C243.594 159.28 243.194 159.08 242.794 159.08C241.754 159.08 240.594 160.24 239.314 162.56C238.034 164.88 236.794 167.56 235.594 170.6C234.474 173.64 233.514 176.6 232.714 179.48C231.914 182.36 231.514 184.4 231.514 185.6C231.514 186.8 231.714 188 232.114 189.2C232.594 190.32 233.194 191.36 233.914 192.32C234.634 193.28 235.434 194.08 236.314 194.72C237.194 195.28 238.074 195.56 238.954 195.56C240.234 195.56 241.594 195 243.034 193.88C244.554 192.76 245.994 191.44 247.354 189.92C248.714 188.32 249.954 186.76 251.074 185.24C252.274 183.64 253.194 182.36 253.834 181.4C254.394 180.44 254.994 179.4 255.634 178.28C256.354 177.16 256.994 176.12 257.554 175.16C258.194 174.12 258.714 173.24 259.114 172.52C259.594 171.8 259.874 171.36 259.954 171.2C260.114 170.96 260.634 170.84 261.514 170.84C262.394 170.76 263.114 170.64 263.674 170.48C264.154 170.32 264.434 170.16 264.514 170C264.674 169.84 264.714 169.56 264.634 169.16ZM307.541 170.96C307.941 170.32 308.021 169.68 307.781 169.04C307.621 168.32 307.181 167.96 306.461 167.96C305.101 169.8 303.061 172.12 300.341 174.92C297.701 177.72 294.821 180.48 291.701 183.2C290.021 184.64 288.301 186 286.541 187.28C284.861 188.56 283.181 189.72 281.501 190.76C279.821 191.72 278.181 192.48 276.581 193.04C275.061 193.6 273.661 193.88 272.381 193.88C271.101 193.88 270.061 193.44 269.261 192.56C268.541 191.6 268.181 190.32 268.181 188.72C268.181 187.28 268.461 185.72 269.021 184.04C269.581 182.36 270.301 180.68 271.181 179C273.021 178.52 275.261 177.72 277.901 176.6C280.621 175.48 283.181 174.2 285.581 172.76C288.061 171.32 290.181 169.84 291.941 168.32C293.701 166.72 294.581 165.2 294.581 163.76C294.581 162.48 294.061 161.56 293.021 161C291.981 160.44 291.101 159.92 290.381 159.44C289.661 158.96 288.901 158.36 288.101 157.64C287.381 156.84 286.461 156.44 285.341 156.44C283.741 156.44 281.621 157.36 278.981 159.2C276.421 160.96 273.861 163.32 271.301 166.28C268.741 169.16 266.541 172.44 264.701 176.12C262.861 179.8 261.941 183.48 261.941 187.16C261.941 190.44 262.861 192.96 264.701 194.72C266.541 196.4 268.901 197.24 271.781 197.24C273.461 197.24 275.221 196.92 277.061 196.28C278.981 195.56 280.901 194.64 282.821 193.52C284.741 192.32 286.661 190.96 288.581 189.44C290.501 187.92 292.381 186.36 294.221 184.76C297.821 181.56 300.701 178.76 302.861 176.36C305.021 173.88 306.581 172.08 307.541 170.96ZM290.141 164.48C290.141 164.88 289.581 165.52 288.461 166.4C287.421 167.28 286.101 168.2 284.501 169.16C282.981 170.12 281.301 171.04 279.461 171.92C277.621 172.72 275.941 173.28 274.421 173.6C275.461 172.08 276.541 170.64 277.661 169.28C278.861 167.92 280.021 166.76 281.141 165.8C282.341 164.76 283.461 163.96 284.501 163.4C285.541 162.76 286.421 162.44 287.141 162.44C288.421 162.44 289.221 162.64 289.541 163.04C289.941 163.44 290.141 163.92 290.141 164.48ZM110.548 249.96C110.948 249.32 111.028 248.68 110.788 248.04C110.628 247.32 110.188 246.96 109.468 246.96C108.108 248.8 106.068 251.12 103.348 253.92C100.708 256.72 97.8284 259.48 94.7084 262.2C93.0284 263.64 91.3084 265 89.5484 266.28C87.8684 267.56 86.1884 268.72 84.5084 269.76C82.8284 270.72 81.1884 271.48 79.5884 272.04C78.0684 272.6 76.6684 272.88 75.3884 272.88C74.1084 272.88 73.0684 272.44 72.2684 271.56C71.5484 270.6 71.1884 269.32 71.1884 267.72C71.1884 266.28 71.4684 264.72 72.0284 263.04C72.5884 261.36 73.3084 259.68 74.1884 258C76.0284 257.52 78.2684 256.72 80.9084 255.6C83.6284 254.48 86.1884 253.2 88.5884 251.76C91.0684 250.32 93.1884 248.84 94.9484 247.32C96.7084 245.72 97.5884 244.2 97.5884 242.76C97.5884 241.48 97.0684 240.56 96.0284 240C94.9884 239.44 94.1084 238.92 93.3884 238.44C92.6684 237.96 91.9084 237.36 91.1084 236.64C90.3884 235.84 89.4684 235.44 88.3484 235.44C86.7484 235.44 84.6284 236.36 81.9884 238.2C79.4284 239.96 76.8684 242.32 74.3084 245.28C71.7484 248.16 69.5484 251.44 67.7084 255.12C65.8684 258.8 64.9484 262.48 64.9484 266.16C64.9484 269.44 65.8684 271.96 67.7084 273.72C69.5484 275.4 71.9084 276.24 74.7884 276.24C76.4684 276.24 78.2284 275.92 80.0684 275.28C81.9884 274.56 83.9084 273.64 85.8284 272.52C87.7484 271.32 89.6684 269.96 91.5884 268.44C93.5084 266.92 95.3884 265.36 97.2284 263.76C100.828 260.56 103.708 257.76 105.868 255.36C108.028 252.88 109.588 251.08 110.548 249.96ZM93.1484 243.48C93.1484 243.88 92.5884 244.52 91.4684 245.4C90.4284 246.28 89.1084 247.2 87.5084 248.16C85.9884 249.12 84.3084 250.04 82.4684 250.92C80.6284 251.72 78.9484 252.28 77.4284 252.6C78.4684 251.08 79.5484 249.64 80.6684 248.28C81.8684 246.92 83.0284 245.76 84.1484 244.8C85.3484 243.76 86.4684 242.96 87.5084 242.4C88.5484 241.76 89.4284 241.44 90.1484 241.44C91.4284 241.44 92.2284 241.64 92.5484 242.04C92.9484 242.44 93.1484 242.92 93.1484 243.48ZM147.061 245.88C147.061 244.2 146.381 242.92 145.021 242.04C143.741 241.16 142.421 240.72 141.061 240.72C138.501 240.72 135.621 241.4 132.421 242.76C129.301 244.12 126.101 245.8 122.821 247.8C119.621 249.8 116.501 251.92 113.461 254.16C110.501 256.4 107.941 258.4 105.781 260.16C106.661 258.88 107.501 257.6 108.301 256.32C109.181 255.04 109.941 253.88 110.581 252.84C111.301 251.8 111.861 250.96 112.261 250.32C112.661 249.68 112.861 249.28 112.861 249.12C112.861 248.64 112.621 248.12 112.141 247.56C111.661 246.92 111.101 246.6 110.461 246.6C110.061 246.6 109.341 247.08 108.301 248.04C107.341 249 106.221 250.24 104.941 251.76C103.661 253.2 102.301 254.8 100.861 256.56C99.4213 258.32 98.1013 260 96.9013 261.6C95.7012 263.12 94.7412 264.44 94.0212 265.56C93.2213 266.68 92.8213 267.4 92.8213 267.72C92.8213 268.04 93.0212 268.4 93.4212 268.8C93.8212 269.2 94.3012 269.6 94.8612 270C95.3412 270.32 95.8213 270.6 96.3012 270.84C96.7012 271.08 96.9813 271.2 97.1413 271.2C97.2213 271.2 97.7413 270.8 98.7013 270C99.7412 269.12 101.101 268.04 102.781 266.76C104.461 265.4 106.341 263.88 108.421 262.2C110.581 260.44 112.861 258.68 115.261 256.92C117.501 255.24 119.781 253.6 122.101 252C124.421 250.4 126.661 249 128.821 247.8C130.981 246.52 132.981 245.52 134.821 244.8C136.741 244 138.381 243.6 139.741 243.6C140.861 243.6 141.421 244.16 141.421 245.28C141.421 245.76 141.101 246.68 140.461 248.04C139.821 249.4 139.021 251 138.061 252.84C137.181 254.68 136.181 256.68 135.061 258.84C134.021 260.92 133.021 262.96 132.061 264.96C131.181 266.96 130.421 268.84 129.781 270.6C129.141 272.28 128.821 273.6 128.821 274.56C128.821 275.84 129.261 277 130.141 278.04C131.021 279.08 131.701 279.6 132.181 279.6C132.661 279.6 133.381 279.32 134.341 278.76C135.301 278.2 136.261 277.56 137.221 276.84C138.261 276.12 139.141 275.44 139.861 274.8C140.581 274.16 140.941 273.72 140.941 273.48C140.941 273.24 140.901 273 140.821 272.76C140.741 272.44 140.541 272.28 140.221 272.28C139.741 272.28 139.141 272.52 138.421 273C137.701 273.4 137.141 273.6 136.741 273.6C136.341 273.6 136.141 273.36 136.141 272.88C136.141 272.8 136.381 272.24 136.861 271.2C137.421 270.08 138.101 268.68 138.901 267C139.781 265.32 140.661 263.44 141.541 261.36C142.501 259.28 143.381 257.28 144.181 255.36C145.061 253.36 145.741 251.52 146.221 249.84C146.781 248.16 147.061 246.84 147.061 245.88ZM193.166 249.96C193.566 249.32 193.646 248.68 193.406 248.04C193.246 247.32 192.806 246.96 192.086 246.96C190.726 248.8 188.686 251.12 185.966 253.92C183.326 256.72 180.446 259.48 177.326 262.2C175.646 263.64 173.926 265 172.166 266.28C170.486 267.56 168.806 268.72 167.126 269.76C165.446 270.72 163.806 271.48 162.206 272.04C160.686 272.6 159.286 272.88 158.006 272.88C156.726 272.88 155.686 272.44 154.886 271.56C154.166 270.6 153.806 269.32 153.806 267.72C153.806 266.28 154.086 264.72 154.646 263.04C155.206 261.36 155.926 259.68 156.806 258C158.646 257.52 160.886 256.72 163.526 255.6C166.246 254.48 168.806 253.2 171.206 251.76C173.686 250.32 175.806 248.84 177.566 247.32C179.326 245.72 180.206 244.2 180.206 242.76C180.206 241.48 179.686 240.56 178.646 240C177.606 239.44 176.726 238.92 176.006 238.44C175.286 237.96 174.526 237.36 173.726 236.64C173.006 235.84 172.086 235.44 170.966 235.44C169.366 235.44 167.246 236.36 164.606 238.2C162.046 239.96 159.486 242.32 156.926 245.28C154.366 248.16 152.166 251.44 150.326 255.12C148.486 258.8 147.566 262.48 147.566 266.16C147.566 269.44 148.486 271.96 150.326 273.72C152.166 275.4 154.526 276.24 157.406 276.24C159.086 276.24 160.846 275.92 162.686 275.28C164.606 274.56 166.526 273.64 168.446 272.52C170.366 271.32 172.286 269.96 174.206 268.44C176.126 266.92 178.006 265.36 179.846 263.76C183.446 260.56 186.326 257.76 188.486 255.36C190.646 252.88 192.206 251.08 193.166 249.96ZM175.766 243.48C175.766 243.88 175.206 244.52 174.086 245.4C173.046 246.28 171.726 247.2 170.126 248.16C168.606 249.12 166.926 250.04 165.086 250.92C163.246 251.72 161.566 252.28 160.046 252.6C161.086 251.08 162.166 249.64 163.286 248.28C164.486 246.92 165.646 245.76 166.766 244.8C167.966 243.76 169.086 242.96 170.126 242.4C171.166 241.76 172.046 241.44 172.766 241.44C174.046 241.44 174.846 241.64 175.166 242.04C175.566 242.44 175.766 242.92 175.766 243.48ZM220.318 258.84C220.558 258.44 220.678 258 220.678 257.52C220.758 256.96 220.598 256.68 220.198 256.68C219.958 256.92 219.438 257.44 218.638 258.24C217.918 258.96 216.998 259.84 215.878 260.88C214.838 261.84 213.678 262.92 212.398 264.12C211.198 265.24 209.998 266.28 208.798 267.24C206.478 269.08 204.318 270.48 202.318 271.44C200.398 272.4 198.958 272.88 197.998 272.88C197.038 272.88 196.558 272.32 196.558 271.2C196.558 270.48 197.198 269.36 198.478 267.84C199.838 266.24 201.278 264.52 202.798 262.68C204.398 260.84 205.838 259 207.118 257.16C208.478 255.32 209.158 253.8 209.158 252.6C209.158 250.44 208.398 248.92 206.878 248.04C205.358 247.08 203.478 246.6 201.238 246.6C199.878 246.6 198.718 246.56 197.758 246.48C196.878 246.4 196.438 246.16 196.438 245.76C196.438 245.6 196.878 245 197.758 243.96C198.638 242.92 199.638 241.76 200.758 240.48C202.038 239.12 203.078 237.8 203.878 236.52C204.758 235.24 205.198 234.4 205.198 234C205.198 232.64 203.958 231.96 201.478 231.96C200.198 231.96 198.758 232.52 197.158 233.64C195.558 234.76 194.038 236.08 192.598 237.6C191.158 239.04 189.918 240.56 188.878 242.16C187.918 243.68 187.438 244.88 187.438 245.76C187.438 247.12 187.998 248.16 189.118 248.88C190.238 249.6 191.678 249.96 193.438 249.96C195.038 249.96 196.478 249.88 197.758 249.72C199.118 249.56 200.318 249.48 201.358 249.48C202.638 249.48 203.278 249.76 203.278 250.32C203.278 251.12 202.598 252.36 201.238 254.04C199.958 255.64 198.518 257.44 196.918 259.44C195.398 261.36 193.958 263.32 192.598 265.32C191.318 267.32 190.678 269.08 190.678 270.6C190.678 272.44 191.238 273.84 192.358 274.8C193.558 275.68 194.838 276.12 196.198 276.12C198.358 276.12 200.678 275.44 203.158 274.08C205.638 272.64 207.998 270.96 210.238 269.04C213.198 266.56 215.558 264.36 217.318 262.44C219.078 260.44 220.078 259.24 220.318 258.84ZM249.877 244.32C249.877 242.4 249.357 241.44 248.317 241.44C248.237 241.44 247.957 241.4 247.477 241.32C247.077 241.16 246.677 241.08 246.277 241.08C245.877 241.08 245.517 241.12 245.197 241.2C244.877 241.28 244.637 241.52 244.477 241.92C243.837 243.28 242.797 245 241.357 247.08C239.997 249.08 238.397 251.24 236.557 253.56C234.797 255.88 232.917 258.2 230.917 260.52C228.917 262.84 226.957 264.92 225.037 266.76C223.117 268.6 221.357 270.12 219.757 271.32C218.237 272.44 216.997 273 216.037 273C215.797 273 215.677 272.6 215.677 271.8C215.677 271 215.957 269.92 216.517 268.56C217.077 267.2 217.837 265.72 218.797 264.12C219.757 262.44 220.877 260.72 222.157 258.96C223.517 257.12 224.957 255.28 226.477 253.44C228.077 251.44 229.757 249.52 231.517 247.68C233.277 245.84 234.957 244.24 236.557 242.88C238.237 241.44 239.837 240.32 241.357 239.52C242.877 238.64 244.197 238.2 245.317 238.2C246.997 238.2 248.317 238.96 249.277 240.48C249.437 239.84 249.517 239.36 249.517 239.04C249.517 237.6 248.917 236.52 247.717 235.8C246.597 235.08 245.237 234.72 243.637 234.72C241.397 234.72 239.077 235.4 236.677 236.76C234.277 238.04 231.877 239.76 229.477 241.92C227.157 244 224.917 246.4 222.757 249.12C220.677 251.76 218.837 254.48 217.237 257.28C215.637 260.08 214.357 262.8 213.397 265.44C212.437 268.08 211.957 270.4 211.957 272.4C211.957 273.6 212.237 274.68 212.797 275.64C213.277 276.6 213.957 277.08 214.837 277.08C216.037 277.08 217.677 276.36 219.757 274.92C221.837 273.4 224.077 271.48 226.477 269.16C228.877 266.76 231.317 264.16 233.797 261.36C236.277 258.48 238.557 255.68 240.637 252.96C240.077 254.56 239.237 256.56 238.117 258.96C237.077 261.28 235.917 263.68 234.637 266.16C233.437 268.56 232.237 270.84 231.037 273C229.837 275.08 228.877 276.64 228.157 277.68C224.077 278.56 219.757 279.72 215.197 281.16C210.717 282.68 206.157 284.44 201.517 286.44C196.797 288.52 192.157 290.76 187.597 293.16C182.957 295.64 178.517 298.24 174.277 300.96C169.797 303.84 165.637 306.84 161.797 309.96C157.957 313.08 154.637 316.2 151.837 319.32C148.957 322.44 146.717 325.52 145.117 328.56C143.437 331.68 142.597 334.64 142.597 337.44C142.597 339.68 143.357 341.4 144.877 342.6C146.397 343.8 148.077 344.4 149.917 344.4C153.517 344.4 157.597 343.52 162.157 341.76C166.717 340 171.557 337.56 176.677 334.44C181.717 331.4 186.917 327.76 192.277 323.52C197.637 319.36 202.877 314.84 207.997 309.96C213.037 305.16 217.797 300.2 222.277 295.08C226.837 290.04 230.957 284.92 234.637 279.72C235.117 279.64 235.557 279.56 235.957 279.48C236.437 279.48 236.877 279.48 237.277 279.48C237.677 279.48 238.117 279.48 238.597 279.48C239.157 279.56 239.677 279.6 240.157 279.6C241.437 279.6 242.077 279.28 242.077 278.64C242.077 277.52 241.517 276.96 240.397 276.96C239.997 276.96 239.397 276.96 238.597 276.96C237.877 277.04 237.157 277.12 236.437 277.2C238.437 274.16 240.277 271.12 241.957 268.08C243.637 264.96 245.037 262 246.157 259.2C247.357 256.32 248.277 253.6 248.917 251.04C249.557 248.48 249.877 246.24 249.877 244.32ZM226.477 280.68C224.717 283.16 222.037 286.36 218.437 290.28C214.837 294.28 210.717 298.52 206.077 303C201.357 307.56 196.397 312.12 191.197 316.68C185.917 321.32 180.757 325.48 175.717 329.16C170.677 332.84 165.957 335.84 161.557 338.16C157.157 340.48 153.477 341.64 150.517 341.64C149.157 341.64 148.117 341.16 147.397 340.2C146.597 339.32 146.197 338.24 146.197 336.96C146.197 334.56 146.957 331.96 148.477 329.16C149.997 326.44 152.117 323.64 154.837 320.76C157.477 317.88 160.597 315 164.197 312.12C167.797 309.24 171.677 306.44 175.837 303.72C179.917 301 184.197 298.4 188.677 295.92C193.157 293.52 197.597 291.32 201.997 289.32C206.397 287.32 210.677 285.56 214.837 284.04C218.997 282.6 222.877 281.48 226.477 280.68ZM288.613 244.32C288.613 242.4 288.093 241.44 287.053 241.44C286.653 241.44 285.333 242.64 283.093 245.04C280.853 247.44 277.413 250.44 272.773 254.04C271.573 254.92 270.213 255.96 268.693 257.16C267.173 258.36 265.653 259.52 264.133 260.64C262.613 261.76 261.213 262.72 259.933 263.52C258.733 264.32 257.813 264.72 257.173 264.72C256.613 264.72 256.293 264.6 256.213 264.36C256.133 264.04 256.093 263.72 256.093 263.4C256.093 263.24 256.533 262.44 257.413 261C258.373 259.56 259.373 258 260.413 256.32C261.533 254.56 262.533 252.96 263.413 251.52C264.373 250 264.853 249.12 264.853 248.88C264.853 248.48 264.533 247.96 263.893 247.32C263.253 246.6 262.653 246.24 262.093 246.24C261.693 246.24 260.813 247 259.453 248.52C258.173 250.04 256.813 251.8 255.373 253.8C253.933 255.8 252.653 257.8 251.533 259.8C250.413 261.72 249.853 263.12 249.853 264C249.853 265.76 250.373 267.16 251.413 268.2C252.453 269.16 253.533 269.64 254.653 269.64C255.373 269.64 256.413 269.28 257.773 268.56C259.213 267.76 260.773 266.8 262.453 265.68C264.213 264.56 265.973 263.36 267.733 262.08C269.493 260.72 271.133 259.44 272.653 258.24C274.173 257.04 275.413 256.04 276.373 255.24C277.413 254.36 278.013 253.84 278.173 253.68C278.573 253.36 278.853 253.48 279.013 254.04C278.213 256.12 277.293 258.24 276.253 260.4C275.293 262.48 274.253 264.6 273.133 266.76C266.733 268.68 260.013 271.24 252.973 274.44C245.933 277.64 239.013 281.24 232.213 285.24C225.413 289.32 218.973 293.6 212.893 298.08C206.733 302.64 201.333 307.2 196.693 311.76C191.973 316.4 188.253 320.92 185.533 325.32C182.733 329.72 181.333 333.76 181.333 337.44C181.333 339.68 182.093 341.4 183.613 342.6C185.133 343.8 186.813 344.4 188.653 344.4C192.813 344.4 197.533 343.32 202.813 341.16C208.013 339 213.453 336.04 219.133 332.28C224.813 328.6 230.573 324.28 236.413 319.32C242.253 314.44 247.853 309.2 253.213 303.6C258.573 298.08 263.573 292.36 268.213 286.44C272.853 280.6 276.773 274.92 279.973 269.4C281.333 269.48 282.373 269.68 283.093 270C283.813 270.24 284.333 270.56 284.653 270.96C285.053 271.28 285.333 271.6 285.493 271.92C285.733 272.16 285.973 272.28 286.213 272.28C287.253 272.28 287.773 271.64 287.773 270.36C287.773 269.16 287.173 268.28 285.973 267.72C284.773 267.08 283.293 266.68 281.533 266.52C283.773 262.36 285.493 258.4 286.693 254.64C287.973 250.88 288.613 247.44 288.613 244.32ZM271.453 269.76C268.013 275.68 264.133 281.44 259.813 287.04C255.573 292.72 251.213 297.88 246.733 302.52C244.573 304.76 241.973 307.24 238.933 309.96C235.893 312.76 232.653 315.6 229.213 318.48C225.773 321.44 222.213 324.28 218.533 327C214.773 329.8 211.133 332.28 207.613 334.44C204.013 336.6 200.653 338.32 197.533 339.6C194.333 340.96 191.573 341.64 189.253 341.64C187.893 341.64 186.853 341.16 186.133 340.2C185.333 339.32 184.933 338.24 184.933 336.96C184.933 333.76 186.253 330.12 188.893 326.04C191.453 321.96 194.933 317.76 199.333 313.44C203.653 309.12 208.733 304.76 214.573 300.36C220.333 295.96 226.453 291.8 232.933 287.88C239.333 284.04 245.813 280.52 252.373 277.32C259.013 274.2 265.373 271.68 271.453 269.76Z" transform="translate(-16 -23)" fill="white"/>
</svg>
