<svg width="469" height="243" viewBox="0 0 469 243" fill="none" xmlns="http://www.w3.org/2000/svg">
<path d="M136.644 34.36C136.644 33.32 136.484 32.24 136.164 31.12C135.924 29.92 135.364 28.88 134.484 28C133.684 27.04 132.484 26.28 130.884 25.72C129.364 25.08 127.284 24.76 124.644 24.76C120.724 24.76 116.284 25.56 111.324 27.16C106.444 28.68 101.284 30.84 95.8439 33.64C90.4839 36.44 85.0039 39.72 79.4039 43.48C73.8039 47.24 68.3639 51.32 63.0839 55.72C57.8039 60.04 52.8439 64.6 48.2039 69.4C43.5639 74.2 39.5239 79.04 36.0839 83.92C32.6439 88.72 29.9239 93.48 27.9239 98.2C25.9239 102.84 24.9239 107.24 24.9239 111.4C24.9239 113.8 25.2839 115.88 26.0039 117.64C26.8039 119.4 27.8039 120.84 29.0039 121.96C30.2039 123.08 31.5239 123.88 32.9639 124.36C34.4839 124.92 36.0039 125.2 37.5239 125.2C41.1239 125.2 44.8439 124.72 48.6839 123.76C52.5239 122.88 56.2839 121.72 59.9639 120.28C63.7239 118.92 67.2839 117.4 70.6439 115.72C74.0039 113.96 77.0039 112.32 79.6439 110.8C82.3639 109.2 84.6039 107.8 86.3639 106.6C88.1239 105.4 89.2839 104.56 89.8439 104.08C90.1639 103.68 90.1639 103.32 89.8439 103C89.6039 102.6 89.2039 102.4 88.6439 102.4C88.1639 102.8 87.1239 103.56 85.5239 104.68C83.9239 105.72 81.8839 106.96 79.4039 108.4C77.0039 109.76 74.2439 111.24 71.1239 112.84C68.0039 114.36 64.6839 115.76 61.1639 117.04C57.7239 118.32 54.1239 119.36 50.3639 120.16C46.6839 121.04 43.0439 121.48 39.4439 121.48C36.0839 121.48 33.6039 120.48 32.0039 118.48C30.4839 116.56 29.7239 114.16 29.7239 111.28C29.7239 108.08 30.7639 104.44 32.8439 100.36C34.9239 96.28 37.7239 92.04 41.2439 87.64C44.8439 83.24 49.0039 78.76 53.7239 74.2C58.5239 69.56 63.6039 65.12 68.9639 60.88C74.3239 56.64 79.8039 52.64 85.4039 48.88C91.0039 45.12 96.4439 41.84 101.724 39.04C107.084 36.24 112.084 34.04 116.724 32.44C121.444 30.76 125.524 29.92 128.964 29.92C132.564 29.92 134.364 31.16 134.364 33.64C134.364 35.32 133.644 37.16 132.204 39.16C130.764 41.16 129.124 43.04 127.284 44.8C125.524 46.56 123.844 48.04 122.244 49.24C120.644 50.44 119.684 51.04 119.364 51.04C119.044 51.04 118.804 51 118.644 50.92C118.484 50.76 118.324 50.6 118.164 50.44C118.004 50.2 117.804 50.04 117.564 49.96C117.324 49.8 116.964 49.72 116.484 49.72C115.924 49.72 114.844 50.24 113.244 51.28C111.644 52.24 109.804 53.48 107.724 55C105.724 56.52 103.604 58.24 101.364 60.16C99.1239 62 97.0439 63.8 95.1239 65.56C93.2839 67.32 91.7639 68.92 90.5639 70.36C89.3639 71.72 88.7639 72.68 88.7639 73.24C88.7639 74.36 89.1239 75.28 89.8439 76C90.6439 76.64 91.4839 76.96 92.3639 76.96C93.0839 76.96 94.6839 76.2 97.1639 74.68C99.6439 73.08 102.524 71.04 105.804 68.56C109.084 66.08 112.524 63.28 116.124 60.16C119.804 57.04 123.124 53.92 126.084 50.8C129.124 47.6 131.644 44.56 133.644 41.68C135.644 38.8 136.644 36.36 136.644 34.36ZM137.518 100.84C137.758 100.44 137.878 100 137.878 99.52C137.958 98.96 137.798 98.68 137.398 98.68C137.158 98.92 136.638 99.44 135.838 100.24C135.118 100.96 134.198 101.84 133.078 102.88C132.038 103.84 130.878 104.92 129.598 106.12C128.398 107.24 127.198 108.28 125.998 109.24C123.678 111.08 121.518 112.48 119.518 113.44C117.598 114.4 116.158 114.88 115.198 114.88C114.238 114.88 113.758 114.32 113.758 113.2C113.758 112.48 114.398 111.36 115.678 109.84C117.038 108.24 118.478 106.52 119.998 104.68C121.598 102.84 123.038 101 124.318 99.16C125.678 97.32 126.358 95.8 126.358 94.6C126.358 92.44 125.598 90.92 124.078 90.04C122.558 89.08 120.678 88.6 118.438 88.6C117.078 88.6 115.918 88.56 114.958 88.48C114.078 88.4 113.638 88.16 113.638 87.76C113.638 87.6 114.078 87 114.958 85.96C115.838 84.92 116.838 83.76 117.958 82.48C119.238 81.12 120.278 79.8 121.078 78.52C121.958 77.24 122.398 76.4 122.398 76C122.398 74.64 121.158 73.96 118.678 73.96C117.398 73.96 115.958 74.52 114.358 75.64C112.758 76.76 111.238 78.08 109.798 79.6C108.358 81.04 107.118 82.56 106.078 84.16C105.118 85.68 104.638 86.88 104.638 87.76C104.638 89.12 105.198 90.16 106.318 90.88C107.438 91.6 108.878 91.96 110.638 91.96C112.238 91.96 113.678 91.88 114.958 91.72C116.318 91.56 117.518 91.48 118.558 91.48C119.838 91.48 120.478 91.76 120.478 92.32C120.478 93.12 119.798 94.36 118.438 96.04C117.158 97.64 115.718 99.44 114.118 101.44C112.598 103.36 111.158 105.32 109.798 107.32C108.518 109.32 107.878 111.08 107.878 112.6C107.878 114.44 108.438 115.84 109.558 116.8C110.758 117.68 112.038 118.12 113.398 118.12C115.558 118.12 117.878 117.44 120.358 116.08C122.838 114.64 125.198 112.96 127.438 111.04C130.398 108.56 132.758 106.36 134.518 104.44C136.278 102.44 137.278 101.24 137.518 100.84ZM177.396 91.96C177.796 91.32 177.876 90.68 177.636 90.04C177.476 89.32 177.036 88.96 176.316 88.96C174.956 90.8 172.916 93.12 170.196 95.92C167.556 98.72 164.676 101.48 161.556 104.2C159.876 105.64 158.156 107 156.396 108.28C154.716 109.56 153.036 110.72 151.356 111.76C149.676 112.72 148.036 113.48 146.436 114.04C144.916 114.6 143.516 114.88 142.236 114.88C140.956 114.88 139.916 114.44 139.116 113.56C138.396 112.6 138.036 111.32 138.036 109.72C138.036 108.28 138.316 106.72 138.876 105.04C139.436 103.36 140.156 101.68 141.036 100C142.876 99.52 145.116 98.72 147.756 97.6C150.476 96.48 153.036 95.2 155.436 93.76C157.916 92.32 160.036 90.84 161.796 89.32C163.556 87.72 164.436 86.2 164.436 84.76C164.436 83.48 163.916 82.56 162.876 82C161.836 81.44 160.956 80.92 160.236 80.44C159.516 79.96 158.756 79.36 157.956 78.64C157.236 77.84 156.316 77.44 155.196 77.44C153.596 77.44 151.476 78.36 148.836 80.2C146.276 81.96 143.716 84.32 141.156 87.28C138.596 90.16 136.396 93.44 134.556 97.12C132.716 100.8 131.796 104.48 131.796 108.16C131.796 111.44 132.716 113.96 134.556 115.72C136.396 117.4 138.756 118.24 141.636 118.24C143.316 118.24 145.076 117.92 146.916 117.28C148.836 116.56 150.756 115.64 152.676 114.52C154.596 113.32 156.516 111.96 158.436 110.44C160.356 108.92 162.236 107.36 164.076 105.76C167.676 102.56 170.556 99.76 172.716 97.36C174.876 94.88 176.436 93.08 177.396 91.96ZM159.996 85.48C159.996 85.88 159.436 86.52 158.316 87.4C157.276 88.28 155.956 89.2 154.356 90.16C152.836 91.12 151.156 92.04 149.316 92.92C147.476 93.72 145.796 94.28 144.276 94.6C145.316 93.08 146.396 91.64 147.516 90.28C148.716 88.92 149.876 87.76 150.996 86.8C152.196 85.76 153.316 84.96 154.356 84.4C155.396 83.76 156.276 83.44 156.996 83.44C158.276 83.44 159.076 83.64 159.396 84.04C159.796 84.44 159.996 84.92 159.996 85.48ZM220.149 92.2C220.549 91.32 220.589 90.68 220.269 90.28C220.029 89.88 219.789 89.68 219.549 89.68C219.229 90.08 218.709 90.68 217.989 91.48C217.269 92.28 216.389 93.2 215.349 94.24C214.309 95.28 213.189 96.44 211.989 97.72C210.789 98.92 209.589 100.12 208.389 101.32C206.149 103.4 204.029 105.24 202.029 106.84C200.029 108.44 198.589 109.24 197.709 109.24C197.069 109.24 196.629 109 196.389 108.52C196.229 108.04 196.149 107.48 196.149 106.84C196.149 106.04 196.309 105.12 196.629 104.08C196.949 103.04 197.309 102 197.709 100.96C198.109 99.84 198.469 98.8 198.789 97.84C199.109 96.8 199.269 95.92 199.269 95.2C199.269 94.08 198.949 93.28 198.309 92.8C197.749 92.32 196.989 92.08 196.029 92.08C195.629 92.08 195.029 92.28 194.229 92.68C194.709 91.88 195.229 90.96 195.789 89.92C196.349 88.88 196.829 87.88 197.229 86.92C197.709 85.88 198.069 84.96 198.309 84.16C198.629 83.28 198.789 82.6 198.789 82.12C198.789 80.28 198.229 78.92 197.109 78.04C196.069 77.16 194.749 76.72 193.149 76.72C191.229 76.72 189.149 77.4 186.909 78.76C184.669 80.04 182.429 81.76 180.189 83.92C178.029 86 175.909 88.4 173.829 91.12C171.829 93.76 170.029 96.48 168.429 99.28C166.909 102.08 165.669 104.8 164.709 107.44C163.749 110.08 163.269 112.4 163.269 114.4C163.269 115.6 163.509 116.68 163.989 117.64C164.549 118.6 165.229 119.08 166.029 119.08C166.589 119.08 167.469 118.68 168.669 117.88C169.869 117 171.189 116 172.629 114.88C174.069 113.68 175.509 112.44 176.949 111.16C178.469 109.8 179.749 108.64 180.789 107.68C181.829 106.72 182.949 105.72 184.149 104.68C185.429 103.56 186.589 102.56 187.629 101.68C188.749 100.72 189.669 99.92 190.389 99.28C191.189 98.64 191.629 98.32 191.709 98.32C191.869 98.32 191.989 98.4 192.069 98.56C192.229 98.72 192.269 98.92 192.189 99.16C192.029 99.48 191.789 100.4 191.469 101.92C191.229 103.44 191.109 104.72 191.109 105.76C191.109 107.84 191.429 109.6 192.069 111.04C192.709 112.48 193.749 113.2 195.189 113.2C196.149 113.2 197.269 112.88 198.549 112.24C199.829 111.52 201.069 110.68 202.269 109.72C203.549 108.76 204.749 107.76 205.869 106.72C207.069 105.68 208.109 104.8 208.989 104.08C209.789 103.36 210.789 102.4 211.989 101.2C213.189 99.92 214.349 98.68 215.469 97.48C216.669 96.2 217.709 95.08 218.589 94.12C219.469 93.08 219.989 92.44 220.149 92.2ZM196.269 82C196.269 82.32 195.989 83 195.429 84.04C194.869 85.08 194.229 86.2 193.509 87.4C192.869 88.52 192.229 89.6 191.589 90.64C190.949 91.6 190.549 92.16 190.389 92.32C190.069 92.72 189.749 93.08 189.429 93.4C189.109 93.64 188.949 93.84 188.949 94C188.949 94.16 189.149 94.36 189.549 94.6C189.949 94.84 190.429 95.04 190.989 95.2C189.789 96.24 188.509 97.4 187.149 98.68C185.789 99.96 184.389 101.24 182.949 102.52C181.589 103.72 180.069 105.08 178.389 106.6C176.709 108.04 175.069 109.4 173.469 110.68C171.949 111.88 170.589 112.92 169.389 113.8C168.269 114.6 167.589 115 167.349 115C167.109 115 166.989 114.6 166.989 113.8C166.989 112.52 167.629 110.68 168.909 108.28C170.189 105.88 171.989 103.16 174.309 100.12C176.069 97.8 177.989 95.48 180.069 93.16C182.149 90.84 184.189 88.8 186.189 87.04C188.189 85.2 189.989 83.72 191.589 82.6C193.189 81.48 194.389 80.92 195.189 80.92C195.909 80.92 196.269 81.28 196.269 82ZM259.077 44.32C259.077 43.92 258.877 43.56 258.477 43.24C258.077 42.84 257.597 42.52 257.037 42.28C256.557 42.04 255.997 41.84 255.357 41.68C254.797 41.52 254.317 41.44 253.917 41.44C253.597 41.44 252.877 42.08 251.757 43.36C250.637 44.56 249.237 46.16 247.557 48.16C245.957 50.08 244.157 52.32 242.157 54.88C240.237 57.36 238.277 59.88 236.277 62.44C234.357 65 232.517 67.48 230.757 69.88C229.077 72.2 227.677 74.2 226.557 75.88C226.237 76.28 225.917 76.72 225.597 77.2C225.357 77.6 225.037 78.04 224.637 78.52C222.717 78.52 221.197 78.56 220.077 78.64C218.957 78.64 218.117 78.68 217.557 78.76C217.077 78.76 216.717 78.76 216.477 78.76C216.317 78.76 216.157 78.76 215.997 78.76C215.517 78.76 215.077 78.88 214.677 79.12C214.277 79.36 214.077 79.68 214.077 80.08C214.077 80.48 214.357 80.64 214.917 80.56C215.477 80.48 216.037 80.44 216.597 80.44C216.757 80.44 216.877 80.44 216.957 80.44C217.117 80.44 217.397 80.44 217.797 80.44C218.197 80.44 218.797 80.48 219.597 80.56C220.477 80.56 221.717 80.56 223.317 80.56C221.557 83.2 219.717 86.08 217.797 89.2C215.957 92.32 214.237 95.56 212.637 98.92C211.117 102.2 209.837 105.52 208.797 108.88C207.757 112.16 207.237 115.28 207.237 118.24C207.237 120.8 207.877 122.8 209.157 124.24C210.437 125.68 212.077 126.4 214.077 126.4C215.357 126.4 216.637 126.16 217.917 125.68C219.197 125.28 220.357 124.76 221.397 124.12C222.437 123.56 223.357 122.96 224.157 122.32C224.957 121.76 225.557 121.32 225.957 121C226.117 120.68 226.117 120.36 225.957 120.04C225.797 119.72 225.557 119.48 225.237 119.32C224.837 119.64 224.237 120.08 223.437 120.64C222.717 121.2 221.837 121.72 220.797 122.2C219.837 122.76 218.797 123.24 217.677 123.64C216.557 124.04 215.437 124.24 214.317 124.24C213.197 124.24 212.237 123.76 211.437 122.8C210.637 121.84 210.237 120.52 210.237 118.84C210.237 116.36 210.957 113.48 212.397 110.2C213.837 106.92 215.597 103.56 217.677 100.12C219.757 96.6 221.997 93.16 224.397 89.8C226.877 86.36 229.157 83.28 231.237 80.56H234.597C234.757 80.56 234.837 80.64 234.837 80.8C234.837 80.96 234.797 81.12 234.717 81.28C234.717 81.44 234.717 81.6 234.717 81.76C234.717 82.08 234.757 82.28 234.837 82.36C234.997 82.44 235.357 82.48 235.917 82.48C236.237 82.48 236.877 82.44 237.837 82.36C238.877 82.2 239.877 82 240.837 81.76C241.877 81.52 242.797 81.24 243.597 80.92C244.397 80.52 244.797 80.08 244.797 79.6C244.797 79.28 244.557 79 244.077 78.76C243.597 78.44 243.037 78.28 242.397 78.28C242.077 78.28 240.997 78.28 239.157 78.28C237.397 78.28 235.237 78.32 232.677 78.4C235.397 74.64 238.077 71.04 240.717 67.6C243.437 64.08 245.877 60.96 248.037 58.24C250.277 55.52 252.117 53.32 253.557 51.64C255.077 49.88 255.997 48.8 256.317 48.4C256.957 47.76 257.557 47.12 258.117 46.48C258.757 45.84 259.077 45.12 259.077 44.32ZM278.295 91.96C278.695 91.32 278.775 90.68 278.535 90.04C278.375 89.32 277.935 88.96 277.215 88.96C275.855 90.8 273.815 93.12 271.095 95.92C268.455 98.72 265.575 101.48 262.455 104.2C260.775 105.64 259.055 107 257.295 108.28C255.615 109.56 253.935 110.72 252.255 111.76C250.575 112.72 248.935 113.48 247.335 114.04C245.815 114.6 244.415 114.88 243.135 114.88C241.855 114.88 240.815 114.44 240.015 113.56C239.295 112.6 238.935 111.32 238.935 109.72C238.935 108.28 239.215 106.72 239.775 105.04C240.335 103.36 241.055 101.68 241.935 100C243.775 99.52 246.015 98.72 248.655 97.6C251.375 96.48 253.935 95.2 256.335 93.76C258.815 92.32 260.935 90.84 262.695 89.32C264.455 87.72 265.335 86.2 265.335 84.76C265.335 83.48 264.815 82.56 263.775 82C262.735 81.44 261.855 80.92 261.135 80.44C260.415 79.96 259.655 79.36 258.855 78.64C258.135 77.84 257.215 77.44 256.095 77.44C254.495 77.44 252.375 78.36 249.735 80.2C247.175 81.96 244.615 84.32 242.055 87.28C239.495 90.16 237.295 93.44 235.455 97.12C233.615 100.8 232.695 104.48 232.695 108.16C232.695 111.44 233.615 113.96 235.455 115.72C237.295 117.4 239.655 118.24 242.535 118.24C244.215 118.24 245.975 117.92 247.815 117.28C249.735 116.56 251.655 115.64 253.575 114.52C255.495 113.32 257.415 111.96 259.335 110.44C261.255 108.92 263.135 107.36 264.975 105.76C268.575 102.56 271.455 99.76 273.615 97.36C275.775 94.88 277.335 93.08 278.295 91.96ZM260.895 85.48C260.895 85.88 260.335 86.52 259.215 87.4C258.175 88.28 256.855 89.2 255.255 90.16C253.735 91.12 252.055 92.04 250.215 92.92C248.375 93.72 246.695 94.28 245.175 94.6C246.215 93.08 247.295 91.64 248.415 90.28C249.615 88.92 250.775 87.76 251.895 86.8C253.095 85.76 254.215 84.96 255.255 84.4C256.295 83.76 257.175 83.44 257.895 83.44C259.175 83.44 259.975 83.64 260.295 84.04C260.695 84.44 260.895 84.92 260.895 85.48ZM331.294 84.64C331.294 84.08 330.934 83.4 330.214 82.6C329.574 81.72 328.774 80.88 327.814 80.08C326.854 79.28 325.854 78.6 324.814 78.04C323.854 77.48 323.094 77.2 322.534 77.2C320.214 77.2 318.014 77.64 315.934 78.52C313.854 79.32 312.014 80.48 310.414 82C308.894 83.44 307.654 85.2 306.694 87.28C305.814 89.28 305.374 91.44 305.374 93.76C305.374 95.68 305.694 97.32 306.334 98.68C307.054 100.04 307.814 101.32 308.614 102.52C309.494 103.64 310.254 104.76 310.894 105.88C311.614 106.92 311.974 108.08 311.974 109.36C311.974 111.36 311.134 113.16 309.454 114.76C307.854 116.36 306.054 117.16 304.054 117.16C302.854 117.16 301.854 116.92 301.054 116.44C300.334 115.96 299.774 115.72 299.374 115.72C298.894 115.72 298.494 115.88 298.174 116.2C298.494 117.48 299.294 118.4 300.574 118.96C301.934 119.6 303.174 119.92 304.294 119.92C305.814 119.92 307.374 119.6 308.974 118.96C310.574 118.4 312.014 117.6 313.294 116.56C314.654 115.44 315.734 114.2 316.534 112.84C317.414 111.4 317.854 109.84 317.854 108.16C317.854 106.8 317.574 105.52 317.014 104.32C316.454 103.12 315.814 101.92 315.094 100.72C314.454 99.52 313.854 98.32 313.294 97.12C312.734 95.92 312.454 94.64 312.454 93.28C312.454 91.84 312.734 90.48 313.294 89.2C313.934 87.84 314.774 86.68 315.814 85.72C316.854 84.68 318.054 83.84 319.414 83.2C320.774 82.56 322.214 82.24 323.734 82.24C325.174 82.24 326.214 82.44 326.854 82.84C327.574 83.24 328.094 83.68 328.414 84.16C328.734 84.64 328.974 85.08 329.134 85.48C329.294 85.88 329.614 86.08 330.094 86.08C330.494 86.08 330.774 85.92 330.934 85.6C331.174 85.28 331.294 84.96 331.294 84.64ZM365.933 93.16C365.933 86.84 362.613 83.68 355.973 83.68C355.813 83.68 355.693 83.72 355.613 83.8C355.533 83.8 355.413 83.8 355.253 83.8C357.333 80.28 358.973 77.4 360.173 75.16C361.373 72.84 361.973 71.44 361.973 70.96C361.973 70.48 361.693 70.24 361.133 70.24C360.333 70.24 359.573 70.6 358.853 71.32C358.133 71.96 357.453 72.68 356.813 73.48C356.413 74.04 355.453 75.4 353.933 77.56C352.413 79.64 350.573 82.28 348.413 85.48C344.573 87.08 340.573 89.64 336.413 93.16C332.333 96.68 328.333 100.76 324.413 105.4C320.493 109.96 316.773 114.88 313.253 120.16C309.733 125.44 306.653 130.6 304.013 135.64C301.293 140.76 299.173 145.56 297.653 150.04C296.053 154.52 295.253 158.28 295.253 161.32C295.253 163.08 295.613 164.6 296.333 165.88C297.053 167.16 297.813 167.8 298.613 167.8C299.253 167.8 300.773 166.28 303.173 163.24C305.493 160.2 308.293 156.36 311.573 151.72C314.773 147.08 318.213 142 321.893 136.48C325.493 131.04 328.893 125.88 332.093 121C333.133 121.16 334.293 121.24 335.573 121.24C336.853 121.24 337.973 121.24 338.933 121.24C341.333 121.24 343.933 120.72 346.733 119.68C349.613 118.72 352.293 117.64 354.773 116.44C357.253 115.16 359.373 113.96 361.133 112.84C362.973 111.64 364.053 110.88 364.373 110.56C365.013 110.08 365.333 109.6 365.333 109.12C365.333 108.64 365.133 108.4 364.733 108.4C364.493 108.4 364.213 108.52 363.893 108.76C363.493 109 362.933 109.28 362.213 109.6C361.493 109.84 360.733 110.12 359.933 110.44C359.133 110.76 358.373 111.08 357.653 111.4C356.933 111.72 356.413 111.96 356.093 112.12L355.853 111.4C356.253 111.16 357.013 110.4 358.133 109.12C359.253 107.76 360.373 106.16 361.493 104.32C362.693 102.48 363.733 100.56 364.613 98.56C365.493 96.56 365.933 94.76 365.933 93.16ZM361.373 92.32C361.373 94.96 360.813 97.48 359.693 99.88C358.573 102.28 357.253 104.44 355.733 106.36C354.293 108.28 352.813 109.88 351.293 111.16C349.853 112.44 348.733 113.32 347.933 113.8C347.373 114.12 346.533 114.48 345.413 114.88C344.293 115.2 343.093 115.52 341.813 115.84C340.533 116.16 339.213 116.44 337.853 116.68C336.573 116.92 335.453 117.12 334.493 117.28C334.733 116.88 334.933 116.56 335.093 116.32C335.333 116 335.573 115.64 335.813 115.24C339.013 110.28 342.173 105.28 345.293 100.24C348.413 95.2 351.253 90.56 353.813 86.32C354.133 86.24 354.613 86.2 355.253 86.2C357.013 86.2 358.453 86.72 359.573 87.76C360.773 88.72 361.373 90.24 361.373 92.32ZM345.773 89.32C343.053 93.4 340.133 97.84 337.013 102.64C333.893 107.36 330.853 112.08 327.893 116.8C325.893 120 323.813 123.32 321.653 126.76C319.413 130.28 317.253 133.72 315.173 137.08C313.093 140.44 311.093 143.6 309.173 146.56C307.253 149.6 305.573 152.24 304.133 154.48C302.613 156.8 301.413 158.64 300.533 160C299.573 161.36 299.053 162.04 298.973 162.04C298.573 162.04 298.373 161.76 298.373 161.2C298.293 160.64 298.253 160 298.253 159.28C298.253 157.2 298.933 154.32 300.293 150.64C301.653 146.96 303.533 142.84 305.933 138.28C308.333 133.8 311.093 129.08 314.213 124.12C317.333 119.24 320.653 114.56 324.173 110.08C327.693 105.6 331.293 101.52 334.973 97.84C338.733 94.16 342.333 91.32 345.773 89.32ZM423.704 92.2C424.104 91.32 424.144 90.68 423.824 90.28C423.584 89.88 423.344 89.68 423.104 89.68C422.784 90.08 422.264 90.68 421.544 91.48C420.824 92.28 419.944 93.2 418.904 94.24C417.864 95.28 416.744 96.44 415.544 97.72C414.344 98.92 413.144 100.12 411.944 101.32C409.704 103.4 407.584 105.24 405.584 106.84C403.584 108.44 402.144 109.24 401.264 109.24C400.624 109.24 400.184 109 399.944 108.52C399.784 108.04 399.704 107.48 399.704 106.84C399.704 106.04 399.864 105.12 400.184 104.08C400.504 103.04 400.864 102 401.264 100.96C401.664 99.84 402.024 98.8 402.344 97.84C402.664 96.8 402.824 95.92 402.824 95.2C402.824 94.08 402.504 93.28 401.864 92.8C401.304 92.32 400.544 92.08 399.584 92.08C399.184 92.08 398.584 92.28 397.784 92.68C398.264 91.88 398.784 90.96 399.344 89.92C399.904 88.88 400.384 87.88 400.784 86.92C401.264 85.88 401.624 84.96 401.864 84.16C402.184 83.28 402.344 82.6 402.344 82.12C402.344 80.28 401.784 78.92 400.664 78.04C399.624 77.16 398.304 76.72 396.704 76.72C394.784 76.72 392.704 77.4 390.464 78.76C388.224 80.04 385.984 81.76 383.744 83.92C381.584 86 379.464 88.4 377.384 91.12C375.384 93.76 373.584 96.48 371.984 99.28C370.464 102.08 369.224 104.8 368.264 107.44C367.304 110.08 366.824 112.4 366.824 114.4C366.824 115.6 367.064 116.68 367.544 117.64C368.104 118.6 368.784 119.08 369.584 119.08C370.144 119.08 371.024 118.68 372.224 117.88C373.424 117 374.744 116 376.184 114.88C377.624 113.68 379.064 112.44 380.504 111.16C382.024 109.8 383.304 108.64 384.344 107.68C385.384 106.72 386.504 105.72 387.704 104.68C388.984 103.56 390.144 102.56 391.184 101.68C392.304 100.72 393.224 99.92 393.944 99.28C394.744 98.64 395.184 98.32 395.264 98.32C395.424 98.32 395.544 98.4 395.624 98.56C395.784 98.72 395.824 98.92 395.744 99.16C395.584 99.48 395.344 100.4 395.024 101.92C394.784 103.44 394.664 104.72 394.664 105.76C394.664 107.84 394.984 109.6 395.624 111.04C396.264 112.48 397.304 113.2 398.744 113.2C399.704 113.2 400.824 112.88 402.104 112.24C403.384 111.52 404.624 110.68 405.824 109.72C407.104 108.76 408.304 107.76 409.424 106.72C410.624 105.68 411.664 104.8 412.544 104.08C413.344 103.36 414.344 102.4 415.544 101.2C416.744 99.92 417.904 98.68 419.024 97.48C420.224 96.2 421.264 95.08 422.144 94.12C423.024 93.08 423.544 92.44 423.704 92.2ZM399.824 82C399.824 82.32 399.544 83 398.984 84.04C398.424 85.08 397.784 86.2 397.064 87.4C396.424 88.52 395.784 89.6 395.144 90.64C394.504 91.6 394.104 92.16 393.944 92.32C393.624 92.72 393.304 93.08 392.984 93.4C392.664 93.64 392.504 93.84 392.504 94C392.504 94.16 392.704 94.36 393.104 94.6C393.504 94.84 393.984 95.04 394.544 95.2C393.344 96.24 392.064 97.4 390.704 98.68C389.344 99.96 387.944 101.24 386.504 102.52C385.144 103.72 383.624 105.08 381.944 106.6C380.264 108.04 378.624 109.4 377.024 110.68C375.504 111.88 374.144 112.92 372.944 113.8C371.824 114.6 371.144 115 370.904 115C370.664 115 370.544 114.6 370.544 113.8C370.544 112.52 371.184 110.68 372.464 108.28C373.744 105.88 375.544 103.16 377.864 100.12C379.624 97.8 381.544 95.48 383.624 93.16C385.704 90.84 387.744 88.8 389.744 87.04C391.744 85.2 393.544 83.72 395.144 82.6C396.744 81.48 397.944 80.92 398.744 80.92C399.464 80.92 399.824 81.28 399.824 82ZM455.191 91.96C455.591 91.32 455.671 90.68 455.431 90.04C455.271 89.32 454.831 88.96 454.111 88.96C452.991 90.48 451.191 92.56 448.711 95.2C446.231 97.84 443.551 100.52 440.671 103.24C438.991 104.76 437.271 106.24 435.511 107.68C433.831 109.04 432.191 110.28 430.591 111.4C428.991 112.44 427.471 113.28 426.031 113.92C424.671 114.56 423.471 114.88 422.431 114.88C421.151 114.88 420.111 114.44 419.311 113.56C418.591 112.6 418.231 111.32 418.231 109.72C418.231 106.76 418.951 103.76 420.391 100.72C421.831 97.6 423.551 94.76 425.551 92.2C427.631 89.64 429.711 87.56 431.791 85.96C433.951 84.28 435.751 83.44 437.191 83.44C437.831 83.44 438.151 83.64 438.151 84.04C438.151 84.44 438.151 84.92 438.151 85.48C438.151 85.96 438.071 86.48 437.911 87.04C437.751 87.6 437.671 88.08 437.671 88.48C437.671 89.04 437.791 89.32 438.031 89.32C438.671 89.32 439.471 88.96 440.431 88.24C441.391 87.52 441.871 86.36 441.871 84.76C441.871 84.28 441.631 83.64 441.151 82.84C440.751 81.96 440.231 81.12 439.591 80.32C438.951 79.52 438.231 78.84 437.431 78.28C436.711 77.72 436.031 77.44 435.391 77.44C433.791 77.44 431.671 78.36 429.031 80.2C426.471 81.96 423.911 84.32 421.351 87.28C418.791 90.16 416.591 93.44 414.751 97.12C412.911 100.8 411.991 104.48 411.991 108.16C411.991 111.44 412.911 113.96 414.751 115.72C416.591 117.4 418.951 118.24 421.831 118.24C423.191 118.24 424.671 117.92 426.271 117.28C427.871 116.56 429.551 115.64 431.311 114.52C433.071 113.4 434.831 112.08 436.591 110.56C438.431 109.04 440.231 107.48 441.991 105.88C444.791 103.32 447.351 100.8 449.671 98.32C451.991 95.76 453.831 93.64 455.191 91.96ZM488.763 91.96C489.163 91.32 489.243 90.68 489.003 90.04C488.843 89.32 488.403 88.96 487.683 88.96C486.323 90.8 484.283 93.12 481.563 95.92C478.923 98.72 476.043 101.48 472.923 104.2C471.243 105.64 469.523 107 467.763 108.28C466.083 109.56 464.403 110.72 462.723 111.76C461.043 112.72 459.403 113.48 457.803 114.04C456.283 114.6 454.883 114.88 453.603 114.88C452.323 114.88 451.283 114.44 450.483 113.56C449.763 112.6 449.403 111.32 449.403 109.72C449.403 108.28 449.683 106.72 450.243 105.04C450.803 103.36 451.523 101.68 452.403 100C454.243 99.52 456.483 98.72 459.123 97.6C461.843 96.48 464.403 95.2 466.803 93.76C469.283 92.32 471.403 90.84 473.163 89.32C474.923 87.72 475.803 86.2 475.803 84.76C475.803 83.48 475.283 82.56 474.243 82C473.203 81.44 472.323 80.92 471.603 80.44C470.883 79.96 470.123 79.36 469.323 78.64C468.603 77.84 467.683 77.44 466.563 77.44C464.963 77.44 462.843 78.36 460.203 80.2C457.643 81.96 455.083 84.32 452.523 87.28C449.963 90.16 447.763 93.44 445.923 97.12C444.083 100.8 443.163 104.48 443.163 108.16C443.163 111.44 444.083 113.96 445.923 115.72C447.763 117.4 450.123 118.24 453.003 118.24C454.683 118.24 456.443 117.92 458.283 117.28C460.203 116.56 462.123 115.64 464.043 114.52C465.963 113.32 467.883 111.96 469.803 110.44C471.723 108.92 473.603 107.36 475.443 105.76C479.043 102.56 481.923 99.76 484.083 97.36C486.243 94.88 487.803 93.08 488.763 91.96ZM471.363 85.48C471.363 85.88 470.803 86.52 469.683 87.4C468.643 88.28 467.323 89.2 465.723 90.16C464.203 91.12 462.523 92.04 460.683 92.92C458.843 93.72 457.163 94.28 455.643 94.6C456.683 93.08 457.763 91.64 458.883 90.28C460.083 88.92 461.243 87.76 462.363 86.8C463.563 85.76 464.683 84.96 465.723 84.4C466.763 83.76 467.643 83.44 468.363 83.44C469.643 83.44 470.443 83.64 470.763 84.04C471.163 84.44 471.363 84.92 471.363 85.48ZM83.1117 192.04C82.9517 191.88 82.7517 191.52 82.5117 190.96C82.3517 190.32 82.1517 189.68 81.9117 189.04V188.32C81.9117 185.68 81.3117 183.8 80.1117 182.68C78.9117 181.48 77.5517 180.88 76.0317 180.88C74.9917 180.88 73.8317 181.04 72.5517 181.36C71.2717 181.68 70.3517 181.84 69.7917 181.84C69.5517 181.84 69.3117 181.72 69.0717 181.48C68.9117 181.16 68.7117 180.84 68.4717 180.52C68.2317 180.12 67.9917 179.8 67.7517 179.56C67.5117 179.24 67.1917 179.08 66.7917 179.08C65.6717 179.08 64.3517 179.56 62.8317 180.52C61.3117 181.48 59.7117 182.76 58.0317 184.36C56.3517 185.96 54.6717 187.76 52.9917 189.76C51.3917 191.76 49.9117 193.8 48.5517 195.88C47.1917 197.96 46.1117 200 45.3117 202C44.5117 204 44.1117 205.76 44.1117 207.28C44.1117 209.92 44.9517 211.92 46.6317 213.28C48.3917 214.56 50.5517 215.2 53.1117 215.2C55.5917 215.2 58.1517 214.48 60.7917 213.04C63.4317 211.52 65.9517 209.68 68.3517 207.52C70.8317 205.36 73.0717 203.04 75.0717 200.56C77.0717 198 78.6717 195.68 79.8717 193.6C80.4317 193.52 80.9517 193.44 81.4317 193.36C81.9117 193.2 82.2717 193.12 82.5117 193.12C83.4717 193.12 83.6717 192.76 83.1117 192.04ZM77.5917 184.6C77.5917 184.76 77.1917 185.24 76.3917 186.04C75.6717 186.84 75.3117 187.92 75.3117 189.28C75.3117 190.32 75.4317 191 75.6717 191.32C75.9917 191.64 76.2317 191.88 76.3917 192.04C76.3917 192.68 75.9517 193.64 75.0717 194.92C74.2717 196.12 73.1517 197.48 71.7117 199C70.3517 200.52 68.7917 202.08 67.0317 203.68C65.3517 205.28 63.6317 206.72 61.8717 208C60.1917 209.28 58.5517 210.36 56.9517 211.24C55.4317 212.04 54.1117 212.44 52.9917 212.44C50.7517 212.44 49.6317 211.32 49.6317 209.08C49.6317 207.8 50.0317 206.28 50.8317 204.52C51.7117 202.76 52.8717 200.96 54.3117 199.12C55.7517 197.28 57.3917 195.48 59.2317 193.72C61.0717 191.88 62.9517 190.28 64.8717 188.92C66.8717 187.48 68.8717 186.32 70.8717 185.44C72.8717 184.56 74.7117 184.12 76.3917 184.12C77.1917 184.12 77.5917 184.28 77.5917 184.6ZM146.083 142.72C146.323 141.68 145.883 141 144.763 140.68C144.123 140.92 143.523 141.2 142.963 141.52C142.483 141.76 141.963 142.04 141.403 142.36C141.483 141.56 141.483 140.56 141.403 139.36C141.323 138.16 141.083 137 140.683 135.88C140.363 134.76 139.843 133.8 139.123 133C138.483 132.2 137.603 131.8 136.483 131.8C134.643 131.8 132.763 132.4 130.843 133.6C129.003 134.8 127.123 136.44 125.203 138.52C123.283 140.52 121.403 142.88 119.563 145.6C117.723 148.24 115.923 151 114.163 153.88C112.483 156.68 110.883 159.48 109.363 162.28C107.923 165 106.563 167.6 105.283 170.08C104.003 172.48 102.883 174.72 101.923 176.8C100.963 178.8 100.123 180.52 99.4027 181.96C98.2827 182.04 97.0427 182.16 95.6827 182.32C94.3227 182.48 92.9627 182.68 91.6027 182.92C90.3227 183.16 89.0427 183.44 87.7627 183.76C86.5627 184 85.4827 184.24 84.5227 184.48C84.1227 184.56 83.7227 184.72 83.3227 184.96C83.0027 185.2 82.8427 185.52 82.8427 185.92C82.8427 186.32 82.9627 186.72 83.2027 187.12C83.5227 187.44 83.8827 187.56 84.2827 187.48C85.0827 187.24 86.0427 187 87.1627 186.76C88.3627 186.52 89.5627 186.32 90.7627 186.16C92.0427 185.92 93.2427 185.76 94.3627 185.68C95.5627 185.52 96.6427 185.44 97.6027 185.44C97.2027 186.32 96.5627 187.68 95.6827 189.52C94.8027 191.28 93.7627 193.36 92.5627 195.76C91.4427 198.16 90.1627 200.8 88.7227 203.68C87.2827 206.56 85.7627 209.48 84.1627 212.44C81.9227 216.68 79.6427 220.88 77.3227 225.04C74.9227 229.2 72.6027 232.92 70.3627 236.2C68.1227 239.56 66.0427 242.28 64.1227 244.36C62.1227 246.44 60.4827 247.48 59.2027 247.48C58.4027 247.48 57.7627 247.24 57.2827 246.76C56.8027 246.28 56.4427 245.72 56.2027 245.08C55.9627 244.44 55.8027 243.72 55.7227 242.92C55.6427 242.2 55.6027 241.56 55.6027 241C55.6027 238.28 56.1227 235.44 57.1627 232.48C58.2027 229.6 59.4427 227.04 60.8827 224.8C60.7227 224.08 60.4027 223.72 59.9227 223.72C59.1227 223.72 58.3227 224.4 57.5227 225.76C56.6427 227.12 55.8427 228.68 55.1227 230.44C54.4027 232.28 53.8027 234.04 53.3227 235.72C52.7627 237.4 52.4827 238.56 52.4827 239.2V240.64C52.4827 241.68 52.6027 242.76 52.8427 243.88C53.0027 245 53.3627 246 53.9227 246.88C54.4827 247.76 55.2027 248.48 56.0827 249.04C56.8827 249.68 57.9227 250 59.2027 250C61.2827 250 63.4427 249.12 65.6827 247.36C67.9227 245.68 70.0827 243.64 72.1627 241.24C74.2427 238.84 76.1627 236.36 77.9227 233.8C79.6027 231.32 80.9227 229.28 81.8827 227.68C85.9627 220.8 89.9227 213.76 93.7627 206.56C97.6827 199.28 101.523 192.08 105.283 184.96L118.483 186.28C118.883 186.36 119.243 186.24 119.563 185.92C119.963 185.52 120.163 185.12 120.163 184.72C120.163 184.4 119.963 184.24 119.563 184.24C119.243 184.24 119.003 184.2 118.843 184.12C118.363 184.04 117.643 183.92 116.683 183.76C115.723 183.52 114.643 183.32 113.443 183.16C112.323 182.92 111.163 182.72 109.963 182.56C108.763 182.4 107.683 182.32 106.723 182.32C109.283 177.52 111.683 172.88 113.923 168.4C116.163 163.84 118.523 159.16 121.003 154.36C121.483 153.4 122.363 151.8 123.643 149.56C124.923 147.32 126.323 145.08 127.843 142.84C129.443 140.6 131.043 138.64 132.643 136.96C134.323 135.2 135.763 134.32 136.963 134.32C137.843 134.32 138.403 134.6 138.643 135.16C138.883 135.72 139.003 136.36 139.003 137.08C139.003 137.88 138.843 138.76 138.523 139.72C138.203 140.6 137.803 141.48 137.323 142.36C136.923 143.16 136.563 143.88 136.243 144.52C135.923 145.16 135.763 145.6 135.763 145.84C135.763 146.24 136.123 146.92 136.843 147.88C137.563 148.76 138.123 149.2 138.523 149.2C138.763 149.2 139.083 148.8 139.483 148C139.883 147.12 140.123 146.6 140.203 146.44C140.923 145.8 141.843 145.04 142.963 144.16C144.083 143.28 145.123 142.8 146.083 142.72ZM184.058 192.16C184.058 185.84 180.738 182.68 174.098 182.68C173.938 182.68 173.818 182.72 173.738 182.8C173.658 182.8 173.538 182.8 173.378 182.8C175.458 179.28 177.098 176.4 178.298 174.16C179.498 171.84 180.098 170.44 180.098 169.96C180.098 169.48 179.818 169.24 179.258 169.24C178.458 169.24 177.698 169.6 176.978 170.32C176.258 170.96 175.578 171.68 174.938 172.48C174.538 173.04 173.578 174.4 172.058 176.56C170.538 178.64 168.698 181.28 166.538 184.48C162.698 186.08 158.698 188.64 154.538 192.16C150.458 195.68 146.458 199.76 142.538 204.4C138.618 208.96 134.898 213.88 131.378 219.16C127.858 224.44 124.778 229.6 122.138 234.64C119.418 239.76 117.298 244.56 115.778 249.04C114.178 253.52 113.378 257.28 113.378 260.32C113.378 262.08 113.738 263.6 114.458 264.88C115.178 266.16 115.938 266.8 116.738 266.8C117.378 266.8 118.898 265.28 121.298 262.24C123.618 259.2 126.418 255.36 129.698 250.72C132.898 246.08 136.338 241 140.018 235.48C143.618 230.04 147.018 224.88 150.218 220C151.258 220.16 152.418 220.24 153.698 220.24C154.978 220.24 156.098 220.24 157.058 220.24C159.458 220.24 162.058 219.72 164.858 218.68C167.738 217.72 170.418 216.64 172.898 215.44C175.378 214.16 177.498 212.96 179.258 211.84C181.098 210.64 182.178 209.88 182.498 209.56C183.138 209.08 183.458 208.6 183.458 208.12C183.458 207.64 183.258 207.4 182.858 207.4C182.618 207.4 182.338 207.52 182.018 207.76C181.618 208 181.058 208.28 180.338 208.6C179.618 208.84 178.858 209.12 178.058 209.44C177.258 209.76 176.498 210.08 175.778 210.4C175.058 210.72 174.538 210.96 174.218 211.12L173.978 210.4C174.378 210.16 175.138 209.4 176.258 208.12C177.378 206.76 178.498 205.16 179.618 203.32C180.818 201.48 181.858 199.56 182.738 197.56C183.618 195.56 184.058 193.76 184.058 192.16ZM179.498 191.32C179.498 193.96 178.938 196.48 177.818 198.88C176.698 201.28 175.378 203.44 173.858 205.36C172.418 207.28 170.938 208.88 169.418 210.16C167.978 211.44 166.858 212.32 166.058 212.8C165.498 213.12 164.658 213.48 163.538 213.88C162.418 214.2 161.218 214.52 159.938 214.84C158.658 215.16 157.338 215.44 155.978 215.68C154.698 215.92 153.578 216.12 152.618 216.28C152.858 215.88 153.058 215.56 153.218 215.32C153.458 215 153.698 214.64 153.938 214.24C157.138 209.28 160.298 204.28 163.418 199.24C166.538 194.2 169.378 189.56 171.938 185.32C172.258 185.24 172.738 185.2 173.378 185.2C175.138 185.2 176.578 185.72 177.698 186.76C178.898 187.72 179.498 189.24 179.498 191.32ZM163.898 188.32C161.178 192.4 158.258 196.84 155.138 201.64C152.018 206.36 148.978 211.08 146.018 215.8C144.018 219 141.938 222.32 139.778 225.76C137.538 229.28 135.378 232.72 133.298 236.08C131.218 239.44 129.218 242.6 127.298 245.56C125.378 248.6 123.698 251.24 122.258 253.48C120.738 255.8 119.538 257.64 118.658 259C117.698 260.36 117.178 261.04 117.098 261.04C116.698 261.04 116.498 260.76 116.498 260.2C116.418 259.64 116.378 259 116.378 258.28C116.378 256.2 117.058 253.32 118.418 249.64C119.778 245.96 121.658 241.84 124.058 237.28C126.458 232.8 129.218 228.08 132.338 223.12C135.458 218.24 138.778 213.56 142.298 209.08C145.818 204.6 149.418 200.52 153.098 196.84C156.858 193.16 160.458 190.32 163.898 188.32ZM256.829 129.52C256.829 128.24 256.429 127.08 255.629 126.04C254.829 125 253.629 124.48 252.029 124.48C248.509 124.48 244.669 125.96 240.509 128.92C236.349 131.8 232.109 135.6 227.789 140.32C223.549 145.04 219.349 150.36 215.189 156.28C211.029 162.12 207.229 168.04 203.789 174.04C200.349 180.04 197.389 185.76 194.909 191.2C192.429 196.64 190.669 201.24 189.629 205C189.149 206.84 188.909 208.64 188.909 210.4C188.909 212.16 189.309 213.8 190.109 215.32C190.989 216.76 192.589 217.48 194.909 217.48C197.789 217.48 200.269 216.52 202.349 214.6C202.349 214.52 202.349 214.44 202.349 214.36C202.429 214.2 202.469 214.04 202.469 213.88C202.469 213.72 202.429 213.56 202.349 213.4C202.349 213.24 202.189 213.2 201.869 213.28C200.589 214.4 198.989 214.96 197.069 214.96C195.469 214.96 194.389 214.56 193.829 213.76C193.269 212.88 192.989 211.88 192.989 210.76C192.989 209.56 193.269 208.04 193.829 206.2C194.389 204.28 195.029 202.36 195.749 200.44C196.549 198.44 197.349 196.56 198.149 194.8C198.949 192.96 199.629 191.48 200.189 190.36C201.629 189.08 203.629 187.4 206.189 185.32C208.749 183.16 211.589 180.76 214.709 178.12C217.909 175.4 221.229 172.48 224.669 169.36C228.189 166.24 231.629 163.04 234.989 159.76C237.949 156.88 240.749 154.04 243.389 151.24C246.029 148.36 248.349 145.64 250.349 143.08C252.349 140.44 253.909 137.96 255.029 135.64C256.229 133.32 256.829 131.28 256.829 129.52ZM252.389 133.36C252.389 134.08 251.829 135.28 250.709 136.96C249.669 138.64 248.229 140.6 246.389 142.84C244.629 145 242.549 147.4 240.149 150.04C237.749 152.6 235.229 155.12 232.589 157.6C229.709 160.4 226.789 163.16 223.829 165.88C220.869 168.6 218.069 171.12 215.429 173.44C212.789 175.76 210.429 177.8 208.349 179.56C206.269 181.32 204.709 182.64 203.669 183.52C204.549 181.84 205.749 179.8 207.269 177.4C208.789 174.92 210.509 172.32 212.429 169.6C214.429 166.8 216.549 163.92 218.789 160.96C221.109 158 223.469 155.08 225.869 152.2C228.269 149.32 230.669 146.6 233.069 144.04C235.469 141.48 237.749 139.24 239.909 137.32C242.149 135.4 244.229 133.88 246.149 132.76C248.069 131.64 249.709 131.08 251.069 131.08C251.709 131.08 252.069 131.32 252.149 131.8C252.309 132.2 252.389 132.72 252.389 133.36ZM255.443 190.96C255.843 190.32 255.923 189.68 255.683 189.04C255.523 188.32 255.083 187.96 254.363 187.96C253.003 189.8 250.963 192.12 248.243 194.92C245.603 197.72 242.723 200.48 239.603 203.2C237.923 204.64 236.203 206 234.443 207.28C232.763 208.56 231.083 209.72 229.403 210.76C227.723 211.72 226.083 212.48 224.483 213.04C222.963 213.6 221.563 213.88 220.283 213.88C219.003 213.88 217.963 213.44 217.163 212.56C216.443 211.6 216.083 210.32 216.083 208.72C216.083 207.28 216.363 205.72 216.923 204.04C217.483 202.36 218.203 200.68 219.083 199C220.923 198.52 223.163 197.72 225.803 196.6C228.523 195.48 231.083 194.2 233.483 192.76C235.963 191.32 238.083 189.84 239.843 188.32C241.603 186.72 242.483 185.2 242.483 183.76C242.483 182.48 241.963 181.56 240.923 181C239.883 180.44 239.003 179.92 238.283 179.44C237.563 178.96 236.803 178.36 236.003 177.64C235.283 176.84 234.363 176.44 233.243 176.44C231.643 176.44 229.523 177.36 226.883 179.2C224.323 180.96 221.763 183.32 219.203 186.28C216.643 189.16 214.443 192.44 212.603 196.12C210.763 199.8 209.843 203.48 209.843 207.16C209.843 210.44 210.763 212.96 212.603 214.72C214.443 216.4 216.803 217.24 219.683 217.24C221.363 217.24 223.123 216.92 224.963 216.28C226.883 215.56 228.803 214.64 230.723 213.52C232.643 212.32 234.563 210.96 236.483 209.44C238.403 207.92 240.283 206.36 242.123 204.76C245.723 201.56 248.603 198.76 250.763 196.36C252.923 193.88 254.483 192.08 255.443 190.96ZM238.043 184.48C238.043 184.88 237.483 185.52 236.363 186.4C235.323 187.28 234.003 188.2 232.403 189.16C230.883 190.12 229.203 191.04 227.363 191.92C225.523 192.72 223.843 193.28 222.323 193.6C223.363 192.08 224.443 190.64 225.563 189.28C226.763 187.92 227.923 186.76 229.043 185.8C230.243 184.76 231.363 183.96 232.403 183.4C233.443 182.76 234.323 182.44 235.043 182.44C236.323 182.44 237.123 182.64 237.443 183.04C237.843 183.44 238.043 183.92 238.043 184.48ZM297.493 191.2C297.893 190.32 297.933 189.68 297.613 189.28C297.373 188.88 297.133 188.68 296.893 188.68C296.573 189.08 296.053 189.68 295.333 190.48C294.613 191.28 293.733 192.2 292.693 193.24C291.653 194.28 290.533 195.44 289.333 196.72C288.133 197.92 286.933 199.12 285.733 200.32C283.493 202.4 281.373 204.24 279.373 205.84C277.373 207.44 275.933 208.24 275.053 208.24C274.413 208.24 273.973 208 273.733 207.52C273.573 207.04 273.493 206.48 273.493 205.84C273.493 205.04 273.653 204.12 273.973 203.08C274.293 202.04 274.653 201 275.053 199.96C275.453 198.84 275.813 197.8 276.133 196.84C276.453 195.8 276.613 194.92 276.613 194.2C276.613 193.08 276.293 192.28 275.653 191.8C275.093 191.32 274.333 191.08 273.373 191.08C272.973 191.08 272.373 191.28 271.573 191.68C272.053 190.88 272.573 189.96 273.133 188.92C273.693 187.88 274.173 186.88 274.573 185.92C275.053 184.88 275.413 183.96 275.653 183.16C275.973 182.28 276.133 181.6 276.133 181.12C276.133 179.28 275.573 177.92 274.453 177.04C273.413 176.16 272.093 175.72 270.493 175.72C268.573 175.72 266.493 176.4 264.253 177.76C262.013 179.04 259.773 180.76 257.533 182.92C255.373 185 253.253 187.4 251.173 190.12C249.173 192.76 247.373 195.48 245.773 198.28C244.253 201.08 243.013 203.8 242.053 206.44C241.093 209.08 240.613 211.4 240.613 213.4C240.613 214.6 240.853 215.68 241.333 216.64C241.893 217.6 242.573 218.08 243.373 218.08C243.933 218.08 244.813 217.68 246.013 216.88C247.213 216 248.533 215 249.973 213.88C251.413 212.68 252.853 211.44 254.293 210.16C255.813 208.8 257.093 207.64 258.133 206.68C259.173 205.72 260.293 204.72 261.493 203.68C262.773 202.56 263.933 201.56 264.973 200.68C266.093 199.72 267.013 198.92 267.733 198.28C268.533 197.64 268.973 197.32 269.053 197.32C269.213 197.32 269.333 197.4 269.413 197.56C269.573 197.72 269.613 197.92 269.533 198.16C269.373 198.48 269.133 199.4 268.813 200.92C268.573 202.44 268.453 203.72 268.453 204.76C268.453 206.84 268.773 208.6 269.413 210.04C270.053 211.48 271.093 212.2 272.533 212.2C273.493 212.2 274.613 211.88 275.893 211.24C277.173 210.52 278.413 209.68 279.613 208.72C280.893 207.76 282.093 206.76 283.213 205.72C284.413 204.68 285.453 203.8 286.333 203.08C287.133 202.36 288.133 201.4 289.333 200.2C290.533 198.92 291.693 197.68 292.813 196.48C294.013 195.2 295.053 194.08 295.933 193.12C296.813 192.08 297.333 191.44 297.493 191.2ZM273.613 181C273.613 181.32 273.333 182 272.773 183.04C272.213 184.08 271.573 185.2 270.853 186.4C270.213 187.52 269.573 188.6 268.933 189.64C268.293 190.6 267.893 191.16 267.733 191.32C267.413 191.72 267.093 192.08 266.773 192.4C266.453 192.64 266.293 192.84 266.293 193C266.293 193.16 266.493 193.36 266.893 193.6C267.293 193.84 267.773 194.04 268.333 194.2C267.133 195.24 265.853 196.4 264.493 197.68C263.133 198.96 261.733 200.24 260.293 201.52C258.933 202.72 257.413 204.08 255.733 205.6C254.053 207.04 252.413 208.4 250.813 209.68C249.293 210.88 247.933 211.92 246.733 212.8C245.613 213.6 244.933 214 244.693 214C244.453 214 244.333 213.6 244.333 212.8C244.333 211.52 244.973 209.68 246.253 207.28C247.533 204.88 249.333 202.16 251.653 199.12C253.413 196.8 255.333 194.48 257.413 192.16C259.493 189.84 261.533 187.8 263.533 186.04C265.533 184.2 267.333 182.72 268.933 181.6C270.533 180.48 271.733 179.92 272.533 179.92C273.253 179.92 273.613 180.28 273.613 181ZM317.7 183.64C317.7 183.08 317.34 182.4 316.62 181.6C315.98 180.72 315.18 179.88 314.22 179.08C313.26 178.28 312.26 177.6 311.22 177.04C310.26 176.48 309.5 176.2 308.94 176.2C306.62 176.2 304.42 176.64 302.34 177.52C300.26 178.32 298.42 179.48 296.82 181C295.3 182.44 294.06 184.2 293.1 186.28C292.22 188.28 291.78 190.44 291.78 192.76C291.78 194.68 292.1 196.32 292.74 197.68C293.46 199.04 294.22 200.32 295.02 201.52C295.9 202.64 296.66 203.76 297.3 204.88C298.02 205.92 298.38 207.08 298.38 208.36C298.38 210.36 297.54 212.16 295.86 213.76C294.26 215.36 292.46 216.16 290.46 216.16C289.26 216.16 288.26 215.92 287.46 215.44C286.74 214.96 286.18 214.72 285.78 214.72C285.3 214.72 284.9 214.88 284.58 215.2C284.9 216.48 285.7 217.4 286.98 217.96C288.34 218.6 289.58 218.92 290.7 218.92C292.22 218.92 293.78 218.6 295.38 217.96C296.98 217.4 298.42 216.6 299.7 215.56C301.06 214.44 302.14 213.2 302.94 211.84C303.82 210.4 304.26 208.84 304.26 207.16C304.26 205.8 303.98 204.52 303.42 203.32C302.86 202.12 302.22 200.92 301.5 199.72C300.86 198.52 300.26 197.32 299.7 196.12C299.14 194.92 298.86 193.64 298.86 192.28C298.86 190.84 299.14 189.48 299.7 188.2C300.34 186.84 301.18 185.68 302.22 184.72C303.26 183.68 304.46 182.84 305.82 182.2C307.18 181.56 308.62 181.24 310.14 181.24C311.58 181.24 312.62 181.44 313.26 181.84C313.98 182.24 314.5 182.68 314.82 183.16C315.14 183.64 315.38 184.08 315.54 184.48C315.7 184.88 316.02 185.08 316.5 185.08C316.9 185.08 317.18 184.92 317.34 184.6C317.58 184.28 317.7 183.96 317.7 183.64ZM353.539 209.92C353.539 209.76 353.379 209.68 353.059 209.68C352.499 209.68 351.699 209.6 350.659 209.44C349.619 209.2 349.099 208.6 349.099 207.64C349.099 205.72 349.459 203.96 350.179 202.36C350.899 200.76 351.259 199 351.259 197.08C351.259 195.8 350.899 194.52 350.179 193.24C349.459 191.96 348.579 191.32 347.539 191.32C347.299 191.32 347.019 191.48 346.699 191.8C346.379 192.04 345.979 192.36 345.499 192.76C344.379 193.96 342.939 195.6 341.179 197.68C339.499 199.68 337.619 201.68 335.539 203.68C334.179 204.96 332.819 206.16 331.459 207.28C330.179 208.32 328.939 209.24 327.739 210.04C326.619 210.84 325.579 211.48 324.619 211.96C323.739 212.44 323.059 212.68 322.579 212.68C321.939 212.68 321.499 212.4 321.259 211.84C321.099 211.2 321.019 210.6 321.019 210.04C321.019 208.92 321.419 207.36 322.219 205.36C323.019 203.28 323.939 201.16 324.979 199C326.099 196.84 327.179 194.8 328.219 192.88C329.339 190.96 330.219 189.56 330.859 188.68C330.939 188.6 330.979 188.4 330.979 188.08C330.979 187.44 330.619 186.64 329.899 185.68C329.179 184.64 328.539 184.12 327.979 184.12C327.339 184.12 326.619 184.48 325.819 185.2C325.019 185.84 324.179 186.72 323.299 187.84C322.499 188.96 321.659 190.28 320.779 191.8C319.899 193.32 319.059 194.92 318.259 196.6C316.899 199.64 315.699 202.72 314.659 205.84C313.699 208.88 313.219 211.32 313.219 213.16C313.219 213.8 313.419 214.44 313.819 215.08C314.219 215.64 314.739 216.16 315.379 216.64C316.019 217.12 316.699 217.52 317.419 217.84C318.219 218.16 318.939 218.32 319.579 218.32C320.459 218.32 321.659 217.88 323.179 217C324.699 216.12 326.299 215 327.979 213.64C329.739 212.28 331.499 210.8 333.259 209.2C335.099 207.52 336.739 206 338.179 204.64C339.699 203.2 340.939 202 341.899 201.04C342.939 200 343.539 199.4 343.699 199.24L343.939 199.48C343.619 200.04 343.179 201.04 342.619 202.48C342.139 203.92 341.899 205.8 341.899 208.12C341.899 210.28 342.419 212.2 343.459 213.88C344.499 215.48 345.699 216.28 347.059 216.28C347.539 216.28 348.059 216.04 348.619 215.56C349.179 215.08 349.739 214.56 350.299 214C350.859 213.36 351.339 212.76 351.739 212.2C352.139 211.56 352.419 211.16 352.579 211C353.219 210.36 353.539 210 353.539 209.92ZM394.627 199.84C394.867 199.44 394.987 199 394.987 198.52C395.067 197.96 394.907 197.68 394.507 197.68C394.267 197.92 393.747 198.44 392.947 199.24C392.227 199.96 391.307 200.84 390.187 201.88C389.147 202.84 387.987 203.92 386.707 205.12C385.507 206.24 384.307 207.28 383.107 208.24C380.787 210.08 378.627 211.48 376.627 212.44C374.707 213.4 373.267 213.88 372.307 213.88C371.347 213.88 370.867 213.32 370.867 212.2C370.867 211.48 371.507 210.36 372.787 208.84C374.147 207.24 375.587 205.52 377.107 203.68C378.707 201.84 380.147 200 381.427 198.16C382.787 196.32 383.467 194.8 383.467 193.6C383.467 191.44 382.707 189.92 381.187 189.04C379.667 188.08 377.787 187.6 375.547 187.6C374.187 187.6 373.027 187.56 372.067 187.48C371.187 187.4 370.747 187.16 370.747 186.76C370.747 186.6 371.187 186 372.067 184.96C372.947 183.92 373.947 182.76 375.067 181.48C376.347 180.12 377.387 178.8 378.187 177.52C379.067 176.24 379.507 175.4 379.507 175C379.507 173.64 378.267 172.96 375.787 172.96C374.507 172.96 373.067 173.52 371.467 174.64C369.867 175.76 368.347 177.08 366.907 178.6C365.467 180.04 364.227 181.56 363.187 183.16C362.227 184.68 361.747 185.88 361.747 186.76C361.747 188.12 362.307 189.16 363.427 189.88C364.547 190.6 365.987 190.96 367.747 190.96C369.347 190.96 370.787 190.88 372.067 190.72C373.427 190.56 374.627 190.48 375.667 190.48C376.947 190.48 377.587 190.76 377.587 191.32C377.587 192.12 376.907 193.36 375.547 195.04C374.267 196.64 372.827 198.44 371.227 200.44C369.707 202.36 368.267 204.32 366.907 206.32C365.627 208.32 364.987 210.08 364.987 211.6C364.987 213.44 365.547 214.84 366.667 215.8C367.867 216.68 369.147 217.12 370.507 217.12C372.667 217.12 374.987 216.44 377.467 215.08C379.947 213.64 382.307 211.96 384.547 210.04C387.507 207.56 389.867 205.36 391.627 203.44C393.387 201.44 394.387 200.24 394.627 199.84ZM432.279 190.96C432.679 190.32 432.759 189.68 432.519 189.04C432.359 188.32 431.919 187.96 431.199 187.96C429.839 189.8 427.799 192.12 425.079 194.92C422.439 197.72 419.559 200.48 416.439 203.2C414.759 204.64 413.039 206 411.279 207.28C409.599 208.56 407.919 209.72 406.239 210.76C404.559 211.72 402.919 212.48 401.319 213.04C399.799 213.6 398.399 213.88 397.119 213.88C395.839 213.88 394.799 213.44 393.999 212.56C393.279 211.6 392.919 210.32 392.919 208.72C392.919 207.28 393.199 205.72 393.759 204.04C394.319 202.36 395.039 200.68 395.919 199C397.759 198.52 399.999 197.72 402.639 196.6C405.359 195.48 407.919 194.2 410.319 192.76C412.799 191.32 414.919 189.84 416.679 188.32C418.439 186.72 419.319 185.2 419.319 183.76C419.319 182.48 418.799 181.56 417.759 181C416.719 180.44 415.839 179.92 415.119 179.44C414.399 178.96 413.639 178.36 412.839 177.64C412.119 176.84 411.199 176.44 410.079 176.44C408.479 176.44 406.359 177.36 403.719 179.2C401.159 180.96 398.599 183.32 396.039 186.28C393.479 189.16 391.279 192.44 389.439 196.12C387.599 199.8 386.679 203.48 386.679 207.16C386.679 210.44 387.599 212.96 389.439 214.72C391.279 216.4 393.639 217.24 396.519 217.24C398.199 217.24 399.959 216.92 401.799 216.28C403.719 215.56 405.639 214.64 407.559 213.52C409.479 212.32 411.399 210.96 413.319 209.44C415.239 207.92 417.119 206.36 418.959 204.76C422.559 201.56 425.439 198.76 427.599 196.36C429.759 193.88 431.319 192.08 432.279 190.96ZM414.879 184.48C414.879 184.88 414.319 185.52 413.199 186.4C412.159 187.28 410.839 188.2 409.239 189.16C407.719 190.12 406.039 191.04 404.199 191.92C402.359 192.72 400.679 193.28 399.159 193.6C400.199 192.08 401.279 190.64 402.399 189.28C403.599 187.92 404.759 186.76 405.879 185.8C407.079 184.76 408.199 183.96 409.239 183.4C410.279 182.76 411.159 182.44 411.879 182.44C413.159 182.44 413.959 182.64 414.279 183.04C414.679 183.44 414.879 183.92 414.879 184.48ZM492.792 127.36C492.792 127.28 492.672 127.08 492.432 126.76C492.272 126.44 491.992 126.12 491.592 125.8C491.192 125.4 490.712 125.08 490.152 124.84C489.672 124.52 489.152 124.36 488.592 124.36C488.112 124.36 487.072 125.36 485.472 127.36C483.952 129.36 482.072 131.92 479.832 135.04C477.672 138.08 475.352 141.44 472.872 145.12C470.392 148.8 468.032 152.32 465.792 155.68C463.632 158.96 461.712 161.88 460.032 164.44C458.352 167 457.272 168.68 456.792 169.48C456.312 170.2 455.512 171.44 454.392 173.2C453.352 174.88 452.152 176.84 450.792 179.08C449.512 181.24 448.152 183.56 446.712 186.04C445.272 188.52 443.952 190.88 442.752 193.12C441.552 195.28 440.552 197.2 439.752 198.88C439.032 200.56 438.672 201.72 438.672 202.36C438.672 203 438.752 203.6 438.912 204.16C439.152 204.72 439.632 205 440.352 205C440.752 205 441.072 204.96 441.312 204.88C442.352 201.76 443.792 198.48 445.632 195.04C447.552 191.52 449.592 188.04 451.752 184.6C453.992 181.08 456.232 177.68 458.472 174.4C460.712 171.12 462.752 168.08 464.592 165.28C467.792 160.4 471.072 155.72 474.432 151.24C477.792 146.76 480.832 142.84 483.552 139.48C486.272 136.04 488.472 133.32 490.152 131.32C491.912 129.24 492.792 128.2 492.792 128.2V127.36ZM440.952 213.52C440.952 213.04 440.752 212.52 440.352 211.96C439.952 211.32 439.472 210.76 438.912 210.28C438.352 209.8 437.792 209.4 437.232 209.08C436.672 208.68 436.232 208.48 435.912 208.48C435.592 208.48 435.232 208.68 434.832 209.08C434.432 209.4 434.032 209.8 433.632 210.28C433.312 210.68 432.992 211.12 432.672 211.6C432.432 212.08 432.312 212.44 432.312 212.68C432.312 213.08 432.392 213.84 432.552 214.96C432.792 216.08 432.992 216.88 433.152 217.36C433.232 217.76 433.552 218.12 434.112 218.44C434.752 218.76 435.512 218.92 436.392 218.92C436.952 218.92 437.512 218.72 438.072 218.32C438.632 217.92 439.112 217.48 439.512 217C439.912 216.44 440.232 215.84 440.472 215.2C440.792 214.56 440.952 214 440.952 213.52Z" transform="translate(-24 -24)" fill="white"/>
</svg>
