<svg width="408" height="203" viewBox="0 0 408 203" fill="none" xmlns="http://www.w3.org/2000/svg">
<path d="M114.289 36.76C114.289 32.92 113.329 29.8 111.409 27.4C109.569 25 106.489 23.8 102.169 23.8C98.9692 23.8 95.4092 24.4 91.4892 25.6C87.6492 26.72 83.7692 28.16 79.8492 29.92C75.9292 31.6 72.1292 33.52 68.4492 35.68C64.7692 37.76 61.4892 39.76 58.6092 41.68C55.7292 43.52 53.4092 45.16 51.6492 46.6C49.9692 48.04 49.1292 49 49.1292 49.48C49.1292 49.88 49.2892 50.36 49.6092 50.92C49.9292 51.4 50.3292 51.92 50.8092 52.48C51.2892 52.96 51.7692 53.4 52.2492 53.8C52.7292 54.12 53.1692 54.28 53.5692 54.28C53.8892 54.28 54.7692 53.84 56.2092 52.96C57.6492 52.08 59.1292 51.12 60.6492 50.08C62.2492 48.96 63.6892 47.92 64.9692 46.96C66.3292 46 67.0892 45.4 67.2492 45.16C67.6492 44.76 67.8092 44.2 67.7292 43.48C67.7292 42.76 67.7292 42.2 67.7292 41.8C67.7292 41.72 68.3292 41.32 69.5292 40.6C70.7292 39.8 72.3292 38.88 74.3292 37.84C76.3292 36.8 78.5692 35.68 81.0492 34.48C83.6092 33.28 86.2492 32.2 88.9692 31.24C91.6892 30.2 94.3292 29.36 96.8892 28.72C99.5292 28 101.929 27.64 104.089 27.64C106.009 27.64 107.569 27.96 108.769 28.6C109.969 29.24 110.569 30.6 110.569 32.68C110.569 34.04 109.809 36.24 108.289 39.28C106.769 42.24 104.769 45.72 102.289 49.72C99.8092 53.64 96.9692 57.92 93.7692 62.56C90.5692 67.2 87.2892 71.84 83.9292 76.48C80.5692 81.12 77.2492 85.6 73.9692 89.92C70.7692 94.24 67.8892 98.12 65.3292 101.56C62.7692 104.92 60.6492 107.68 58.9692 109.84C57.2892 111.92 56.3692 113.04 56.2092 113.2C55.4892 114.08 54.7692 114.76 54.0492 115.24C53.3292 115.64 52.9692 116.28 52.9692 117.16C52.9692 117.96 53.4092 118.84 54.2892 119.8C55.1692 120.76 56.1692 121.24 57.2892 121.24C57.6892 121.24 58.3692 120.92 59.3292 120.28C60.2892 119.64 61.3692 118.8 62.5692 117.76C63.8492 116.72 65.1692 115.64 66.5292 114.52C67.8892 113.32 69.0892 112.16 70.1292 111.04C71.2492 109.92 72.1692 108.96 72.8892 108.16C73.6092 107.36 73.9692 106.84 73.9692 106.6C73.9692 105.88 73.8492 105.2 73.6092 104.56C73.3692 103.92 73.2492 103.4 73.2492 103C73.2492 102.76 73.6892 102 74.5692 100.72C75.5292 99.44 76.7292 97.84 78.1692 95.92C79.6892 94 81.3292 91.88 83.0892 89.56C84.9292 87.24 86.6892 84.92 88.3692 82.6C89.4892 81.08 90.8892 79.2 92.5692 76.96C94.3292 74.72 96.1692 72.28 98.0892 69.64C100.009 67 101.929 64.24 103.849 61.36C105.769 58.48 107.489 55.6 109.009 52.72C110.609 49.84 111.889 47.04 112.849 44.32C113.809 41.6 114.289 39.08 114.289 36.76ZM138.323 87.88C138.323 86.2 137.643 84.92 136.283 84.04C135.003 83.16 133.683 82.72 132.323 82.72C129.763 82.72 126.883 83.4 123.683 84.76C120.563 86.12 117.363 87.8 114.083 89.8C110.883 91.8 107.763 93.92 104.723 96.16C101.763 98.4 99.203 100.4 97.043 102.16C97.923 100.88 98.763 99.6 99.563 98.32C100.443 97.04 101.203 95.88 101.843 94.84C102.563 93.8 103.123 92.96 103.523 92.32C103.923 91.68 104.123 91.28 104.123 91.12C104.123 90.64 103.883 90.12 103.403 89.56C102.923 88.92 102.363 88.6 101.723 88.6C101.323 88.6 100.603 89.08 99.563 90.04C98.603 91 97.483 92.24 96.203 93.76C94.923 95.2 93.563 96.8 92.123 98.56C90.683 100.32 89.363 102 88.163 103.6C86.963 105.12 86.003 106.44 85.283 107.56C84.483 108.68 84.083 109.4 84.083 109.72C84.083 110.04 84.283 110.4 84.683 110.8C85.083 111.2 85.563 111.6 86.123 112C86.603 112.32 87.083 112.6 87.563 112.84C87.963 113.08 88.243 113.2 88.403 113.2C88.483 113.2 89.003 112.8 89.963 112C91.003 111.12 92.363 110.04 94.043 108.76C95.723 107.4 97.603 105.88 99.683 104.2C101.843 102.44 104.123 100.68 106.523 98.92C108.763 97.24 111.043 95.6 113.363 94C115.683 92.4 117.923 91 120.083 89.8C122.243 88.52 124.243 87.52 126.083 86.8C128.003 86 129.643 85.6 131.003 85.6C132.123 85.6 132.683 86.16 132.683 87.28C132.683 87.76 132.363 88.68 131.723 90.04C131.083 91.4 130.283 93 129.323 94.84C128.443 96.68 127.443 98.68 126.323 100.84C125.283 102.92 124.283 104.96 123.323 106.96C122.443 108.96 121.683 110.84 121.043 112.6C120.403 114.28 120.083 115.6 120.083 116.56C120.083 117.84 120.523 119 121.403 120.04C122.283 121.08 122.963 121.6 123.443 121.6C123.923 121.6 124.643 121.32 125.603 120.76C126.563 120.2 127.523 119.56 128.483 118.84C129.523 118.12 130.403 117.44 131.123 116.8C131.843 116.16 132.203 115.72 132.203 115.48C132.203 115.24 132.163 115 132.083 114.76C132.003 114.44 131.803 114.28 131.483 114.28C131.003 114.28 130.403 114.52 129.683 115C128.963 115.4 128.403 115.6 128.003 115.6C127.603 115.6 127.403 115.36 127.403 114.88C127.403 114.8 127.643 114.24 128.123 113.2C128.683 112.08 129.363 110.68 130.163 109C131.043 107.32 131.923 105.44 132.803 103.36C133.763 101.28 134.643 99.28 135.443 97.36C136.323 95.36 137.003 93.52 137.483 91.84C138.043 90.16 138.323 88.84 138.323 87.88ZM170.747 84.64C170.747 84.08 170.387 83.4 169.667 82.6C169.027 81.72 168.227 80.88 167.267 80.08C166.307 79.28 165.307 78.6 164.267 78.04C163.307 77.48 162.547 77.2 161.987 77.2C159.667 77.2 157.467 77.64 155.387 78.52C153.307 79.32 151.467 80.48 149.867 82C148.347 83.44 147.107 85.2 146.147 87.28C145.267 89.28 144.827 91.44 144.827 93.76C144.827 95.68 145.147 97.32 145.787 98.68C146.507 100.04 147.267 101.32 148.067 102.52C148.947 103.64 149.707 104.76 150.347 105.88C151.067 106.92 151.427 108.08 151.427 109.36C151.427 111.36 150.587 113.16 148.907 114.76C147.307 116.36 145.507 117.16 143.507 117.16C142.307 117.16 141.307 116.92 140.507 116.44C139.787 115.96 139.227 115.72 138.827 115.72C138.347 115.72 137.947 115.88 137.627 116.2C137.947 117.48 138.747 118.4 140.027 118.96C141.387 119.6 142.627 119.92 143.747 119.92C145.267 119.92 146.827 119.6 148.427 118.96C150.027 118.4 151.467 117.6 152.747 116.56C154.107 115.44 155.187 114.2 155.987 112.84C156.867 111.4 157.307 109.84 157.307 108.16C157.307 106.8 157.027 105.52 156.467 104.32C155.907 103.12 155.267 101.92 154.547 100.72C153.907 99.52 153.307 98.32 152.747 97.12C152.187 95.92 151.907 94.64 151.907 93.28C151.907 91.84 152.187 90.48 152.747 89.2C153.387 87.84 154.227 86.68 155.267 85.72C156.307 84.68 157.507 83.84 158.867 83.2C160.227 82.56 161.667 82.24 163.187 82.24C164.627 82.24 165.667 82.44 166.307 82.84C167.027 83.24 167.547 83.68 167.867 84.16C168.187 84.64 168.427 85.08 168.587 85.48C168.747 85.88 169.067 86.08 169.547 86.08C169.947 86.08 170.227 85.92 170.387 85.6C170.627 85.28 170.747 84.96 170.747 84.64ZM205.386 93.16C205.386 86.84 202.066 83.68 195.426 83.68C195.266 83.68 195.146 83.72 195.066 83.8C194.986 83.8 194.866 83.8 194.706 83.8C196.786 80.28 198.426 77.4 199.626 75.16C200.826 72.84 201.426 71.44 201.426 70.96C201.426 70.48 201.146 70.24 200.586 70.24C199.786 70.24 199.026 70.6 198.306 71.32C197.586 71.96 196.906 72.68 196.266 73.48C195.866 74.04 194.906 75.4 193.386 77.56C191.866 79.64 190.026 82.28 187.866 85.48C184.026 87.08 180.026 89.64 175.866 93.16C171.786 96.68 167.786 100.76 163.866 105.4C159.946 109.96 156.226 114.88 152.706 120.16C149.186 125.44 146.106 130.6 143.466 135.64C140.746 140.76 138.626 145.56 137.106 150.04C135.506 154.52 134.706 158.28 134.706 161.32C134.706 163.08 135.066 164.6 135.786 165.88C136.506 167.16 137.266 167.8 138.066 167.8C138.706 167.8 140.226 166.28 142.626 163.24C144.946 160.2 147.746 156.36 151.026 151.72C154.226 147.08 157.666 142 161.346 136.48C164.946 131.04 168.346 125.88 171.546 121C172.586 121.16 173.746 121.24 175.026 121.24C176.306 121.24 177.426 121.24 178.386 121.24C180.786 121.24 183.386 120.72 186.186 119.68C189.066 118.72 191.746 117.64 194.226 116.44C196.706 115.16 198.826 113.96 200.586 112.84C202.426 111.64 203.506 110.88 203.826 110.56C204.466 110.08 204.786 109.6 204.786 109.12C204.786 108.64 204.586 108.4 204.186 108.4C203.946 108.4 203.666 108.52 203.346 108.76C202.946 109 202.386 109.28 201.666 109.6C200.946 109.84 200.186 110.12 199.386 110.44C198.586 110.76 197.826 111.08 197.106 111.4C196.386 111.72 195.866 111.96 195.546 112.12L195.306 111.4C195.706 111.16 196.466 110.4 197.586 109.12C198.706 107.76 199.826 106.16 200.946 104.32C202.146 102.48 203.186 100.56 204.066 98.56C204.946 96.56 205.386 94.76 205.386 93.16ZM200.826 92.32C200.826 94.96 200.266 97.48 199.146 99.88C198.026 102.28 196.706 104.44 195.186 106.36C193.746 108.28 192.266 109.88 190.746 111.16C189.306 112.44 188.186 113.32 187.386 113.8C186.826 114.12 185.986 114.48 184.866 114.88C183.746 115.2 182.546 115.52 181.266 115.84C179.986 116.16 178.666 116.44 177.306 116.68C176.026 116.92 174.906 117.12 173.946 117.28C174.186 116.88 174.386 116.56 174.546 116.32C174.786 116 175.026 115.64 175.266 115.24C178.466 110.28 181.626 105.28 184.746 100.24C187.866 95.2 190.706 90.56 193.266 86.32C193.586 86.24 194.066 86.2 194.706 86.2C196.466 86.2 197.906 86.72 199.026 87.76C200.226 88.72 200.826 90.24 200.826 92.32ZM185.226 89.32C182.506 93.4 179.586 97.84 176.466 102.64C173.346 107.36 170.306 112.08 167.346 116.8C165.346 120 163.266 123.32 161.106 126.76C158.866 130.28 156.706 133.72 154.626 137.08C152.546 140.44 150.546 143.6 148.626 146.56C146.706 149.6 145.026 152.24 143.586 154.48C142.066 156.8 140.866 158.64 139.986 160C139.026 161.36 138.506 162.04 138.426 162.04C138.026 162.04 137.826 161.76 137.826 161.2C137.746 160.64 137.706 160 137.706 159.28C137.706 157.2 138.386 154.32 139.746 150.64C141.106 146.96 142.986 142.84 145.386 138.28C147.786 133.8 150.546 129.08 153.666 124.12C156.786 119.24 160.106 114.56 163.626 110.08C167.146 105.6 170.746 101.52 174.426 97.84C178.186 94.16 181.786 91.32 185.226 89.32ZM236.037 74.2C236.037 73.8 235.957 73.2 235.797 72.4C235.637 71.52 235.477 70.88 235.317 70.48C235.157 69.68 234.317 69.28 232.797 69.28C231.917 69.28 231.077 69.8 230.277 70.84C229.557 71.8 229.197 72.68 229.197 73.48C229.197 73.88 229.357 74.32 229.677 74.8C229.997 75.2 230.357 75.6 230.757 76C231.237 76.4 231.677 76.76 232.077 77.08C232.557 77.32 232.917 77.44 233.157 77.44C233.397 77.44 233.677 77.32 233.997 77.08C234.317 76.76 234.637 76.44 234.957 76.12C235.277 75.72 235.517 75.36 235.677 75.04C235.917 74.64 236.037 74.36 236.037 74.2ZM232.437 103.96C232.517 103.48 232.437 103.12 232.197 102.88C231.957 102.64 231.717 102.52 231.477 102.52C230.757 103.16 229.637 104 228.117 105.04C226.677 106 225.157 107 223.557 108.04C221.797 109.08 220.077 110 218.397 110.8C216.797 111.52 215.477 111.88 214.437 111.88C213.957 111.88 213.597 111.72 213.357 111.4C213.117 111 212.997 110.64 212.997 110.32C212.997 109.36 213.557 108.04 214.677 106.36C215.877 104.68 217.077 103.08 218.277 101.56C218.837 100.84 219.517 100.08 220.317 99.28C221.117 98.4 221.877 97.6 222.597 96.88C223.317 96.08 223.957 95.36 224.517 94.72C225.077 94.08 225.477 93.64 225.717 93.4C226.117 92.84 226.437 91.92 226.677 90.64C226.917 89.36 227.037 88.4 227.037 87.76C227.037 87.2 226.717 86.68 226.077 86.2C225.437 85.64 224.637 85.36 223.677 85.36C222.957 85.36 222.237 85.56 221.517 85.96C220.877 86.36 220.277 86.88 219.717 87.52C219.157 88.08 218.677 88.68 218.277 89.32C217.957 89.96 217.797 90.48 217.797 90.88C217.797 91.68 217.397 92.56 216.597 93.52C216.437 93.76 215.877 94.52 214.917 95.8C214.037 97 213.077 98.48 212.037 100.24C210.997 101.92 210.077 103.72 209.277 105.64C208.477 107.56 208.077 109.28 208.077 110.8C208.077 112.56 208.517 113.76 209.397 114.4C210.277 115.04 211.317 115.36 212.517 115.36C214.357 115.36 216.237 114.88 218.157 113.92C220.157 112.88 221.837 111.96 223.197 111.16C223.837 110.76 224.637 110.2 225.597 109.48C226.557 108.76 227.477 108.04 228.357 107.32C229.317 106.6 230.157 105.92 230.877 105.28C231.677 104.64 232.197 104.2 232.437 103.96ZM268.533 100.84C268.773 100.44 268.893 100 268.893 99.52C268.973 98.96 268.813 98.68 268.413 98.68C268.173 98.92 267.653 99.44 266.853 100.24C266.133 100.96 265.213 101.84 264.093 102.88C263.053 103.84 261.893 104.92 260.613 106.12C259.413 107.24 258.213 108.28 257.013 109.24C254.693 111.08 252.533 112.48 250.533 113.44C248.613 114.4 247.173 114.88 246.213 114.88C245.253 114.88 244.773 114.32 244.773 113.2C244.773 112.48 245.413 111.36 246.693 109.84C248.053 108.24 249.493 106.52 251.013 104.68C252.613 102.84 254.053 101 255.333 99.16C256.693 97.32 257.373 95.8 257.373 94.6C257.373 92.44 256.613 90.92 255.093 90.04C253.573 89.08 251.693 88.6 249.453 88.6C248.093 88.6 246.933 88.56 245.973 88.48C245.093 88.4 244.653 88.16 244.653 87.76C244.653 87.6 245.093 87 245.973 85.96C246.853 84.92 247.853 83.76 248.973 82.48C250.253 81.12 251.293 79.8 252.093 78.52C252.973 77.24 253.413 76.4 253.413 76C253.413 74.64 252.173 73.96 249.693 73.96C248.413 73.96 246.973 74.52 245.373 75.64C243.773 76.76 242.253 78.08 240.813 79.6C239.373 81.04 238.133 82.56 237.093 84.16C236.133 85.68 235.653 86.88 235.653 87.76C235.653 89.12 236.213 90.16 237.333 90.88C238.453 91.6 239.893 91.96 241.653 91.96C243.253 91.96 244.693 91.88 245.973 91.72C247.333 91.56 248.533 91.48 249.573 91.48C250.853 91.48 251.493 91.76 251.493 92.32C251.493 93.12 250.813 94.36 249.453 96.04C248.173 97.64 246.733 99.44 245.133 101.44C243.613 103.36 242.173 105.32 240.813 107.32C239.533 109.32 238.893 111.08 238.893 112.6C238.893 114.44 239.453 115.84 240.573 116.8C241.773 117.68 243.053 118.12 244.413 118.12C246.573 118.12 248.893 117.44 251.373 116.08C253.853 114.64 256.213 112.96 258.453 111.04C261.413 108.56 263.773 106.36 265.533 104.44C267.293 102.44 268.293 101.24 268.533 100.84ZM308.412 91.96C308.812 91.32 308.892 90.68 308.652 90.04C308.492 89.32 308.052 88.96 307.332 88.96C305.972 90.8 303.932 93.12 301.212 95.92C298.572 98.72 295.692 101.48 292.572 104.2C290.892 105.64 289.172 107 287.412 108.28C285.732 109.56 284.052 110.72 282.372 111.76C280.692 112.72 279.052 113.48 277.452 114.04C275.932 114.6 274.532 114.88 273.252 114.88C271.972 114.88 270.932 114.44 270.132 113.56C269.412 112.6 269.052 111.32 269.052 109.72C269.052 108.28 269.332 106.72 269.892 105.04C270.452 103.36 271.172 101.68 272.052 100C273.892 99.52 276.132 98.72 278.772 97.6C281.492 96.48 284.052 95.2 286.452 93.76C288.932 92.32 291.052 90.84 292.812 89.32C294.572 87.72 295.452 86.2 295.452 84.76C295.452 83.48 294.932 82.56 293.892 82C292.852 81.44 291.972 80.92 291.252 80.44C290.532 79.96 289.772 79.36 288.972 78.64C288.252 77.84 287.332 77.44 286.212 77.44C284.612 77.44 282.492 78.36 279.852 80.2C277.292 81.96 274.732 84.32 272.172 87.28C269.612 90.16 267.412 93.44 265.572 97.12C263.732 100.8 262.812 104.48 262.812 108.16C262.812 111.44 263.732 113.96 265.572 115.72C267.412 117.4 269.772 118.24 272.652 118.24C274.332 118.24 276.092 117.92 277.932 117.28C279.852 116.56 281.772 115.64 283.692 114.52C285.612 113.32 287.532 111.96 289.452 110.44C291.372 108.92 293.252 107.36 295.092 105.76C298.692 102.56 301.572 99.76 303.732 97.36C305.892 94.88 307.452 93.08 308.412 91.96ZM291.012 85.48C291.012 85.88 290.452 86.52 289.332 87.4C288.292 88.28 286.972 89.2 285.372 90.16C283.852 91.12 282.172 92.04 280.332 92.92C278.492 93.72 276.812 94.28 275.292 94.6C276.332 93.08 277.412 91.64 278.532 90.28C279.732 88.92 280.892 87.76 282.012 86.8C283.212 85.76 284.332 84.96 285.372 84.4C286.412 83.76 287.292 83.44 288.012 83.44C289.292 83.44 290.092 83.64 290.412 84.04C290.812 84.44 291.012 84.92 291.012 85.48ZM382.485 40.48C382.485 36.24 380.285 34.12 375.885 34.12C372.925 34.12 369.925 34.92 366.885 36.52C363.845 38.12 360.845 40.32 357.885 43.12C354.925 45.84 352.045 49.08 349.245 52.84C346.445 56.6 343.845 60.64 341.445 64.96C339.045 69.28 336.845 73.8 334.845 78.52C332.925 83.16 331.365 87.8 330.165 92.44C326.405 95.72 322.765 98.76 319.245 101.56C315.805 104.36 312.645 106.8 309.765 108.88C306.965 110.88 304.525 112.48 302.445 113.68C300.445 114.88 299.005 115.48 298.125 115.48C297.725 115.48 297.525 115.12 297.525 114.4C297.525 113.28 298.085 111.72 299.205 109.72C300.325 107.64 301.765 105.4 303.525 103C305.285 100.6 307.245 98.2 309.405 95.8C311.565 93.32 313.685 91.08 315.765 89.08C317.845 87.08 319.725 85.44 321.405 84.16C323.165 82.88 324.525 82.24 325.485 82.24C326.445 82.24 326.965 82.48 327.045 82.96C327.125 83.36 327.165 83.76 327.165 84.16C327.165 84.48 327.325 84.72 327.645 84.88C328.045 84.96 328.445 85 328.845 85C329.245 85 329.685 84.96 330.165 84.88C330.645 84.72 330.885 84.24 330.885 83.44C330.885 81.6 330.245 80.16 328.965 79.12C327.685 78 326.165 77.44 324.405 77.44C322.645 77.44 320.645 78.12 318.405 79.48C316.165 80.76 313.885 82.48 311.565 84.64C309.245 86.72 306.965 89.12 304.725 91.84C302.565 94.56 300.605 97.36 298.845 100.24C297.085 103.04 295.685 105.8 294.645 108.52C293.605 111.16 293.085 113.52 293.085 115.6C293.085 117.2 293.405 118.32 294.045 118.96C294.605 119.6 295.165 119.92 295.725 119.92C296.845 119.92 298.485 119.36 300.645 118.24C302.885 117.12 305.445 115.6 308.325 113.68C311.285 111.68 314.525 109.32 318.045 106.6C321.565 103.88 325.205 100.96 328.965 97.84C328.325 100.72 327.845 103.52 327.525 106.24C327.205 108.96 327.045 111.6 327.045 114.16C327.045 119.76 327.805 124 329.325 126.88C330.925 129.84 332.965 131.32 335.445 131.32C336.325 131.32 337.165 131.12 337.965 130.72C338.765 130.4 339.445 129.96 340.005 129.4C340.165 129.08 340.165 128.76 340.005 128.44C339.925 128.12 339.685 128 339.285 128.08C338.885 128.4 338.485 128.64 338.085 128.8C337.765 129.04 337.165 129.16 336.285 129.16C334.685 129.16 333.485 127.92 332.685 125.44C331.965 122.96 331.605 119.8 331.605 115.96C331.605 112.12 331.925 108.24 332.565 104.32C333.285 100.32 334.325 96.28 335.685 92.2C341.445 87.24 347.085 82.12 352.605 76.84C358.205 71.56 363.205 66.56 367.605 61.84C372.085 57.04 375.685 52.76 378.405 49C381.125 45.24 382.485 42.4 382.485 40.48ZM379.245 40.72C379.245 42.4 378.005 44.84 375.525 48.04C373.125 51.24 369.965 54.92 366.045 59.08C362.205 63.16 357.805 67.56 352.845 72.28C347.885 76.92 342.845 81.48 337.725 85.96C339.965 79.96 342.685 74.16 345.885 68.56C349.085 62.96 352.445 57.96 355.965 53.56C359.485 49.16 363.045 45.64 366.645 43C370.245 40.36 373.565 39.04 376.605 39.04C377.485 39.04 378.165 39.24 378.645 39.64C379.125 39.96 379.325 40.32 379.245 40.72ZM456.607 28.6C456.607 27 456.287 25.76 455.647 24.88C455.007 23.92 454.007 23.44 452.647 23.44C450.487 23.44 447.687 24.44 444.247 26.44C440.887 28.44 437.207 31.16 433.207 34.6C429.207 37.96 424.967 41.88 420.487 46.36C416.087 50.84 411.727 55.56 407.407 60.52C403.167 65.4 399.127 70.4 395.287 75.52C391.447 80.64 388.047 85.52 385.087 90.16C382.127 94.8 379.767 99.04 378.007 102.88C376.327 106.72 375.487 109.88 375.487 112.36C375.487 115 376.327 117 378.007 118.36C379.767 119.72 381.927 120.4 384.487 120.4C386.967 120.4 389.527 119.68 392.167 118.24C394.807 116.8 397.327 115 399.727 112.84C402.207 110.68 404.447 108.36 406.447 105.88C408.447 103.32 410.047 101 411.247 98.92C411.807 98.84 412.327 98.76 412.807 98.68C413.287 98.52 413.647 98.44 413.887 98.44C414.847 98.28 415.047 97.88 414.487 97.24C414.327 97.08 414.127 96.72 413.887 96.16C413.727 95.6 413.527 95 413.287 94.36C413.287 94.2 413.287 94.08 413.287 94C413.367 93.84 413.407 93.68 413.407 93.52C413.407 92.4 413.167 91.52 412.687 90.88C412.207 90.24 411.207 89.92 409.687 89.92C408.567 89.92 407.767 90.36 407.287 91.24C406.887 92.04 406.687 93.12 406.687 94.48C406.687 95.52 406.807 96.24 407.047 96.64C407.367 96.96 407.607 97.2 407.767 97.36C407.767 98 407.327 98.96 406.447 100.24C405.647 101.44 404.567 102.8 403.207 104.32C401.927 105.84 400.447 107.4 398.767 109C397.087 110.6 395.367 112.04 393.607 113.32C391.927 114.6 390.247 115.68 388.567 116.56C386.967 117.36 385.567 117.76 384.367 117.76C383.487 117.76 382.767 117.48 382.207 116.92C381.727 116.28 381.487 115.4 381.487 114.28C381.487 113.32 381.807 111.88 382.447 109.96C383.087 108.04 383.847 106.08 384.727 104.08C385.607 102.08 386.487 100.24 387.367 98.56C388.327 96.8 389.047 95.56 389.527 94.84C391.847 93.88 394.607 92.44 397.807 90.52C401.087 88.52 404.527 86.2 408.127 83.56C411.807 80.92 415.607 78.04 419.527 74.92C423.447 71.72 427.247 68.44 430.927 65.08C434.447 61.88 437.767 58.6 440.887 55.24C444.007 51.88 446.727 48.64 449.047 45.52C451.367 42.32 453.207 39.28 454.567 36.4C455.927 33.52 456.607 30.92 456.607 28.6ZM453.007 31.84C453.007 33.2 452.327 34.96 450.967 37.12C449.607 39.28 447.767 41.72 445.447 44.44C443.127 47.16 440.447 50.08 437.407 53.2C434.447 56.24 431.287 59.32 427.927 62.44C424.407 65.72 420.847 68.88 417.247 71.92C413.727 74.96 410.367 77.76 407.167 80.32C404.047 82.8 401.207 84.92 398.647 86.68C396.087 88.44 394.087 89.64 392.647 90.28C395.927 85.56 399.447 80.84 403.207 76.12C406.967 71.4 410.527 67 413.887 62.92C415.087 61.48 416.727 59.64 418.807 57.4C420.887 55.16 423.127 52.84 425.527 50.44C427.927 47.96 430.407 45.48 432.967 43C435.607 40.52 438.087 38.32 440.407 36.4C442.727 34.4 444.807 32.8 446.647 31.6C448.487 30.32 449.887 29.68 450.847 29.68C451.567 29.68 452.087 29.84 452.407 30.16C452.807 30.4 453.007 30.96 453.007 31.84ZM453.313 86.32C453.313 84.4 452.793 83.44 451.753 83.44C451.353 83.44 450.033 84.64 447.793 87.04C445.553 89.44 442.113 92.44 437.473 96.04C436.273 96.92 434.913 97.96 433.393 99.16C431.873 100.36 430.353 101.52 428.833 102.64C427.313 103.76 425.913 104.72 424.633 105.52C423.433 106.32 422.513 106.72 421.873 106.72C421.313 106.72 420.993 106.6 420.913 106.36C420.833 106.04 420.793 105.72 420.793 105.4C420.793 105.24 421.233 104.44 422.113 103C423.073 101.56 424.073 100 425.113 98.32C426.233 96.56 427.233 94.96 428.113 93.52C429.073 92 429.553 91.12 429.553 90.88C429.553 90.48 429.233 89.96 428.593 89.32C427.953 88.6 427.353 88.24 426.793 88.24C426.393 88.24 425.513 89 424.153 90.52C422.873 92.04 421.513 93.8 420.073 95.8C418.633 97.8 417.353 99.8 416.233 101.8C415.113 103.72 414.553 105.12 414.553 106C414.553 107.76 415.073 109.16 416.113 110.2C417.153 111.16 418.233 111.64 419.353 111.64C420.073 111.64 421.113 111.28 422.473 110.56C423.913 109.76 425.473 108.8 427.153 107.68C428.913 106.56 430.673 105.36 432.433 104.08C434.193 102.72 435.833 101.44 437.353 100.24C438.873 99.04 440.113 98.04 441.073 97.24C442.113 96.36 442.713 95.84 442.873 95.68C443.273 95.36 443.553 95.48 443.713 96.04C442.913 98.12 441.993 100.24 440.953 102.4C439.993 104.48 438.953 106.6 437.833 108.76C431.433 110.68 424.713 113.24 417.673 116.44C410.633 119.64 403.713 123.24 396.913 127.24C390.113 131.32 383.673 135.6 377.593 140.08C371.433 144.64 366.033 149.2 361.393 153.76C356.673 158.4 352.953 162.92 350.233 167.32C347.433 171.72 346.033 175.76 346.033 179.44C346.033 181.68 346.793 183.4 348.313 184.6C349.833 185.8 351.513 186.4 353.353 186.4C357.513 186.4 362.233 185.32 367.513 183.16C372.713 181 378.153 178.04 383.833 174.28C389.513 170.6 395.273 166.28 401.113 161.32C406.953 156.44 412.553 151.2 417.913 145.6C423.273 140.08 428.273 134.36 432.913 128.44C437.553 122.6 441.473 116.92 444.673 111.4C446.033 111.48 447.073 111.68 447.793 112C448.513 112.24 449.033 112.56 449.353 112.96C449.753 113.28 450.033 113.6 450.193 113.92C450.433 114.16 450.673 114.28 450.913 114.28C451.953 114.28 452.473 113.64 452.473 112.36C452.473 111.16 451.873 110.28 450.673 109.72C449.473 109.08 447.993 108.68 446.233 108.52C448.473 104.36 450.193 100.4 451.393 96.64C452.673 92.88 453.313 89.44 453.313 86.32ZM436.153 111.76C432.713 117.68 428.833 123.44 424.513 129.04C420.273 134.72 415.913 139.88 411.433 144.52C409.273 146.76 406.673 149.24 403.633 151.96C400.593 154.76 397.353 157.6 393.913 160.48C390.473 163.44 386.913 166.28 383.233 169C379.473 171.8 375.833 174.28 372.313 176.44C368.713 178.6 365.353 180.32 362.233 181.6C359.033 182.96 356.273 183.64 353.953 183.64C352.593 183.64 351.553 183.16 350.833 182.2C350.033 181.32 349.633 180.24 349.633 178.96C349.633 175.76 350.953 172.12 353.593 168.04C356.153 163.96 359.633 159.76 364.033 155.44C368.353 151.12 373.433 146.76 379.273 142.36C385.033 137.96 391.153 133.8 397.633 129.88C404.033 126.04 410.513 122.52 417.073 119.32C423.713 116.2 430.073 113.68 436.153 111.76ZM187.249 186.88C187.249 185.2 186.569 183.92 185.209 183.04C183.929 182.16 182.609 181.72 181.249 181.72C178.689 181.72 175.809 182.4 172.609 183.76C169.489 185.12 166.289 186.8 163.009 188.8C159.809 190.8 156.689 192.92 153.649 195.16C150.689 197.4 148.129 199.4 145.969 201.16C146.849 199.88 147.689 198.6 148.489 197.32C149.369 196.04 150.129 194.88 150.769 193.84C151.489 192.8 152.049 191.96 152.449 191.32C152.849 190.68 153.049 190.28 153.049 190.12C153.049 189.64 152.809 189.12 152.329 188.56C151.849 187.92 151.289 187.6 150.649 187.6C150.249 187.6 149.529 188.08 148.489 189.04C147.529 190 146.409 191.24 145.129 192.76C143.849 194.2 142.489 195.8 141.049 197.56C139.609 199.32 138.289 201 137.089 202.6C135.889 204.12 134.929 205.44 134.209 206.56C133.409 207.68 133.009 208.4 133.009 208.72C133.009 209.04 133.209 209.4 133.609 209.8C134.009 210.2 134.489 210.6 135.049 211C135.529 211.32 136.009 211.6 136.489 211.84C136.889 212.08 137.169 212.2 137.329 212.2C137.409 212.2 137.929 211.8 138.889 211C139.929 210.12 141.289 209.04 142.969 207.76C144.649 206.4 146.529 204.88 148.609 203.2C150.769 201.44 153.049 199.68 155.449 197.92C157.689 196.24 159.969 194.6 162.289 193C164.609 191.4 166.849 190 169.009 188.8C171.169 187.52 173.169 186.52 175.009 185.8C176.929 185 178.569 184.6 179.929 184.6C181.049 184.6 181.609 185.16 181.609 186.28C181.609 186.76 181.289 187.68 180.649 189.04C180.009 190.4 179.209 192 178.249 193.84C177.369 195.68 176.369 197.68 175.249 199.84C174.209 201.92 173.209 203.96 172.249 205.96C171.369 207.96 170.609 209.84 169.969 211.6C169.329 213.28 169.009 214.6 169.009 215.56C169.009 216.84 169.449 218 170.329 219.04C171.209 220.08 171.889 220.6 172.369 220.6C172.849 220.6 173.569 220.32 174.529 219.76C175.489 219.2 176.449 218.56 177.409 217.84C178.449 217.12 179.329 216.44 180.049 215.8C180.769 215.16 181.129 214.72 181.129 214.48C181.129 214.24 181.089 214 181.009 213.76C180.929 213.44 180.729 213.28 180.409 213.28C179.929 213.28 179.329 213.52 178.609 214C177.889 214.4 177.329 214.6 176.929 214.6C176.529 214.6 176.329 214.36 176.329 213.88C176.329 213.8 176.569 213.24 177.049 212.2C177.609 211.08 178.289 209.68 179.089 208C179.969 206.32 180.849 204.44 181.729 202.36C182.689 200.28 183.569 198.28 184.369 196.36C185.249 194.36 185.929 192.52 186.409 190.84C186.969 189.16 187.249 187.84 187.249 186.88ZM242.473 191.2C242.873 190.32 242.913 189.68 242.593 189.28C242.353 188.88 242.113 188.68 241.873 188.68C241.553 189.08 241.033 189.68 240.313 190.48C239.593 191.28 238.713 192.2 237.673 193.24C236.633 194.28 235.513 195.44 234.313 196.72C233.113 197.92 231.913 199.12 230.713 200.32C228.473 202.4 226.353 204.24 224.353 205.84C222.353 207.44 220.913 208.24 220.033 208.24C219.393 208.24 218.953 208 218.713 207.52C218.553 207.04 218.473 206.48 218.473 205.84C218.473 205.04 218.633 204.12 218.953 203.08C219.273 202.04 219.633 201 220.033 199.96C220.433 198.84 220.793 197.8 221.113 196.84C221.433 195.8 221.593 194.92 221.593 194.2C221.593 193.08 221.273 192.28 220.633 191.8C220.073 191.32 219.313 191.08 218.353 191.08C217.953 191.08 217.353 191.28 216.553 191.68C217.033 190.88 217.553 189.96 218.113 188.92C218.673 187.88 219.153 186.88 219.553 185.92C220.033 184.88 220.393 183.96 220.633 183.16C220.953 182.28 221.113 181.6 221.113 181.12C221.113 179.28 220.553 177.92 219.433 177.04C218.393 176.16 217.073 175.72 215.473 175.72C213.553 175.72 211.473 176.4 209.233 177.76C206.993 179.04 204.753 180.76 202.513 182.92C200.353 185 198.233 187.4 196.153 190.12C194.153 192.76 192.353 195.48 190.753 198.28C189.233 201.08 187.993 203.8 187.033 206.44C186.073 209.08 185.593 211.4 185.593 213.4C185.593 214.6 185.833 215.68 186.313 216.64C186.873 217.6 187.553 218.08 188.353 218.08C188.913 218.08 189.793 217.68 190.993 216.88C192.193 216 193.513 215 194.953 213.88C196.393 212.68 197.833 211.44 199.273 210.16C200.793 208.8 202.073 207.64 203.113 206.68C204.153 205.72 205.273 204.72 206.473 203.68C207.753 202.56 208.913 201.56 209.953 200.68C211.073 199.72 211.993 198.92 212.713 198.28C213.513 197.64 213.953 197.32 214.033 197.32C214.193 197.32 214.313 197.4 214.393 197.56C214.553 197.72 214.593 197.92 214.513 198.16C214.353 198.48 214.113 199.4 213.793 200.92C213.553 202.44 213.433 203.72 213.433 204.76C213.433 206.84 213.753 208.6 214.393 210.04C215.033 211.48 216.073 212.2 217.513 212.2C218.473 212.2 219.593 211.88 220.873 211.24C222.153 210.52 223.393 209.68 224.593 208.72C225.873 207.76 227.073 206.76 228.193 205.72C229.393 204.68 230.433 203.8 231.313 203.08C232.113 202.36 233.113 201.4 234.313 200.2C235.513 198.92 236.673 197.68 237.793 196.48C238.993 195.2 240.033 194.08 240.913 193.12C241.793 192.08 242.313 191.44 242.473 191.2ZM218.593 181C218.593 181.32 218.313 182 217.753 183.04C217.193 184.08 216.553 185.2 215.833 186.4C215.193 187.52 214.553 188.6 213.913 189.64C213.273 190.6 212.873 191.16 212.713 191.32C212.393 191.72 212.073 192.08 211.753 192.4C211.433 192.64 211.273 192.84 211.273 193C211.273 193.16 211.473 193.36 211.873 193.6C212.273 193.84 212.753 194.04 213.313 194.2C212.113 195.24 210.833 196.4 209.473 197.68C208.113 198.96 206.713 200.24 205.273 201.52C203.913 202.72 202.393 204.08 200.713 205.6C199.033 207.04 197.393 208.4 195.793 209.68C194.273 210.88 192.913 211.92 191.713 212.8C190.593 213.6 189.913 214 189.673 214C189.433 214 189.313 213.6 189.313 212.8C189.313 211.52 189.953 209.68 191.233 207.28C192.513 204.88 194.313 202.16 196.633 199.12C198.393 196.8 200.313 194.48 202.393 192.16C204.473 189.84 206.513 187.8 208.513 186.04C210.513 184.2 212.313 182.72 213.913 181.6C215.513 180.48 216.713 179.92 217.513 179.92C218.233 179.92 218.593 180.28 218.593 181ZM281.401 143.32C281.401 142.92 281.201 142.56 280.801 142.24C280.401 141.84 279.921 141.52 279.361 141.28C278.881 141.04 278.321 140.84 277.681 140.68C277.121 140.52 276.641 140.44 276.241 140.44C275.921 140.44 275.201 141.08 274.081 142.36C272.961 143.56 271.561 145.16 269.881 147.16C268.281 149.08 266.481 151.32 264.481 153.88C262.561 156.36 260.601 158.88 258.601 161.44C256.681 164 254.841 166.48 253.081 168.88C251.401 171.2 250.001 173.2 248.881 174.88C248.561 175.28 248.241 175.72 247.921 176.2C247.681 176.6 247.361 177.04 246.961 177.52C245.041 177.52 243.521 177.56 242.401 177.64C241.281 177.64 240.441 177.68 239.881 177.76C239.401 177.76 239.041 177.76 238.801 177.76C238.641 177.76 238.481 177.76 238.321 177.76C237.841 177.76 237.401 177.88 237.001 178.12C236.601 178.36 236.401 178.68 236.401 179.08C236.401 179.48 236.681 179.64 237.241 179.56C237.801 179.48 238.361 179.44 238.921 179.44C239.081 179.44 239.201 179.44 239.281 179.44C239.441 179.44 239.721 179.44 240.121 179.44C240.521 179.44 241.121 179.48 241.921 179.56C242.801 179.56 244.041 179.56 245.641 179.56C243.881 182.2 242.041 185.08 240.121 188.2C238.281 191.32 236.561 194.56 234.961 197.92C233.441 201.2 232.161 204.52 231.121 207.88C230.081 211.16 229.561 214.28 229.561 217.24C229.561 219.8 230.201 221.8 231.481 223.24C232.761 224.68 234.401 225.4 236.401 225.4C237.681 225.4 238.961 225.16 240.241 224.68C241.521 224.28 242.681 223.76 243.721 223.12C244.761 222.56 245.681 221.96 246.481 221.32C247.281 220.76 247.881 220.32 248.281 220C248.441 219.68 248.441 219.36 248.281 219.04C248.121 218.72 247.881 218.48 247.561 218.32C247.161 218.64 246.561 219.08 245.761 219.64C245.041 220.2 244.161 220.72 243.121 221.2C242.161 221.76 241.121 222.24 240.001 222.64C238.881 223.04 237.761 223.24 236.641 223.24C235.521 223.24 234.561 222.76 233.761 221.8C232.961 220.84 232.561 219.52 232.561 217.84C232.561 215.36 233.281 212.48 234.721 209.2C236.161 205.92 237.921 202.56 240.001 199.12C242.081 195.6 244.321 192.16 246.721 188.8C249.201 185.36 251.481 182.28 253.561 179.56H256.921C257.081 179.56 257.161 179.64 257.161 179.8C257.161 179.96 257.121 180.12 257.041 180.28C257.041 180.44 257.041 180.6 257.041 180.76C257.041 181.08 257.081 181.28 257.161 181.36C257.321 181.44 257.681 181.48 258.241 181.48C258.561 181.48 259.201 181.44 260.161 181.36C261.201 181.2 262.201 181 263.161 180.76C264.201 180.52 265.121 180.24 265.921 179.92C266.721 179.52 267.121 179.08 267.121 178.6C267.121 178.28 266.881 178 266.401 177.76C265.921 177.44 265.361 177.28 264.721 177.28C264.401 177.28 263.321 177.28 261.481 177.28C259.721 177.28 257.561 177.32 255.001 177.4C257.721 173.64 260.401 170.04 263.041 166.6C265.761 163.08 268.201 159.96 270.361 157.24C272.601 154.52 274.441 152.32 275.881 150.64C277.401 148.88 278.321 147.8 278.641 147.4C279.281 146.76 279.881 146.12 280.441 145.48C281.081 144.84 281.401 144.12 281.401 143.32ZM296.059 209.92C296.059 209.76 295.899 209.68 295.579 209.68C295.019 209.68 294.219 209.6 293.179 209.44C292.139 209.2 291.619 208.6 291.619 207.64C291.619 205.72 291.979 203.96 292.699 202.36C293.419 200.76 293.779 199 293.779 197.08C293.779 195.8 293.419 194.52 292.699 193.24C291.979 191.96 291.099 191.32 290.059 191.32C289.819 191.32 289.539 191.48 289.219 191.8C288.899 192.04 288.499 192.36 288.019 192.76C286.899 193.96 285.459 195.6 283.699 197.68C282.019 199.68 280.139 201.68 278.059 203.68C276.699 204.96 275.339 206.16 273.979 207.28C272.699 208.32 271.459 209.24 270.259 210.04C269.139 210.84 268.099 211.48 267.139 211.96C266.259 212.44 265.579 212.68 265.099 212.68C264.459 212.68 264.019 212.4 263.779 211.84C263.619 211.2 263.539 210.6 263.539 210.04C263.539 208.92 263.939 207.36 264.739 205.36C265.539 203.28 266.459 201.16 267.499 199C268.619 196.84 269.699 194.8 270.739 192.88C271.859 190.96 272.739 189.56 273.379 188.68C273.459 188.6 273.499 188.4 273.499 188.08C273.499 187.44 273.139 186.64 272.419 185.68C271.699 184.64 271.059 184.12 270.499 184.12C269.859 184.12 269.139 184.48 268.339 185.2C267.539 185.84 266.699 186.72 265.819 187.84C265.019 188.96 264.179 190.28 263.299 191.8C262.419 193.32 261.579 194.92 260.779 196.6C259.419 199.64 258.219 202.72 257.179 205.84C256.219 208.88 255.739 211.32 255.739 213.16C255.739 213.8 255.939 214.44 256.339 215.08C256.739 215.64 257.259 216.16 257.899 216.64C258.539 217.12 259.219 217.52 259.939 217.84C260.739 218.16 261.459 218.32 262.099 218.32C262.979 218.32 264.179 217.88 265.699 217C267.219 216.12 268.819 215 270.499 213.64C272.259 212.28 274.019 210.8 275.779 209.2C277.619 207.52 279.259 206 280.699 204.64C282.219 203.2 283.459 202 284.419 201.04C285.459 200 286.059 199.4 286.219 199.24L286.459 199.48C286.139 200.04 285.699 201.04 285.139 202.48C284.659 203.92 284.419 205.8 284.419 208.12C284.419 210.28 284.939 212.2 285.979 213.88C287.019 215.48 288.219 216.28 289.579 216.28C290.059 216.28 290.579 216.04 291.139 215.56C291.699 215.08 292.259 214.56 292.819 214C293.379 213.36 293.859 212.76 294.259 212.2C294.659 211.56 294.939 211.16 295.099 211C295.739 210.36 296.059 210 296.059 209.92ZM337.147 199.84C337.387 199.44 337.507 199 337.507 198.52C337.587 197.96 337.427 197.68 337.027 197.68C336.787 197.92 336.267 198.44 335.467 199.24C334.747 199.96 333.827 200.84 332.707 201.88C331.667 202.84 330.507 203.92 329.227 205.12C328.027 206.24 326.827 207.28 325.627 208.24C323.307 210.08 321.147 211.48 319.147 212.44C317.227 213.4 315.787 213.88 314.827 213.88C313.867 213.88 313.387 213.32 313.387 212.2C313.387 211.48 314.027 210.36 315.307 208.84C316.667 207.24 318.107 205.52 319.627 203.68C321.227 201.84 322.667 200 323.947 198.16C325.307 196.32 325.987 194.8 325.987 193.6C325.987 191.44 325.227 189.92 323.707 189.04C322.187 188.08 320.307 187.6 318.067 187.6C316.707 187.6 315.547 187.56 314.587 187.48C313.707 187.4 313.267 187.16 313.267 186.76C313.267 186.6 313.707 186 314.587 184.96C315.467 183.92 316.467 182.76 317.587 181.48C318.867 180.12 319.907 178.8 320.707 177.52C321.587 176.24 322.027 175.4 322.027 175C322.027 173.64 320.787 172.96 318.307 172.96C317.027 172.96 315.587 173.52 313.987 174.64C312.387 175.76 310.867 177.08 309.427 178.6C307.987 180.04 306.747 181.56 305.707 183.16C304.747 184.68 304.267 185.88 304.267 186.76C304.267 188.12 304.827 189.16 305.947 189.88C307.067 190.6 308.507 190.96 310.267 190.96C311.867 190.96 313.307 190.88 314.587 190.72C315.947 190.56 317.147 190.48 318.187 190.48C319.467 190.48 320.107 190.76 320.107 191.32C320.107 192.12 319.427 193.36 318.067 195.04C316.787 196.64 315.347 198.44 313.747 200.44C312.227 202.36 310.787 204.32 309.427 206.32C308.147 208.32 307.507 210.08 307.507 211.6C307.507 213.44 308.067 214.84 309.187 215.8C310.387 216.68 311.667 217.12 313.027 217.12C315.187 217.12 317.507 216.44 319.987 215.08C322.467 213.64 324.827 211.96 327.067 210.04C330.027 207.56 332.387 205.36 334.147 203.44C335.907 201.44 336.907 200.24 337.147 199.84ZM374.798 190.96C375.198 190.32 375.278 189.68 375.038 189.04C374.878 188.32 374.438 187.96 373.718 187.96C372.358 189.8 370.318 192.12 367.598 194.92C364.958 197.72 362.078 200.48 358.958 203.2C357.278 204.64 355.558 206 353.798 207.28C352.118 208.56 350.438 209.72 348.758 210.76C347.078 211.72 345.438 212.48 343.838 213.04C342.318 213.6 340.918 213.88 339.638 213.88C338.358 213.88 337.318 213.44 336.518 212.56C335.798 211.6 335.438 210.32 335.438 208.72C335.438 207.28 335.718 205.72 336.278 204.04C336.838 202.36 337.558 200.68 338.438 199C340.278 198.52 342.518 197.72 345.158 196.6C347.878 195.48 350.438 194.2 352.838 192.76C355.318 191.32 357.438 189.84 359.198 188.32C360.958 186.72 361.838 185.2 361.838 183.76C361.838 182.48 361.318 181.56 360.278 181C359.238 180.44 358.358 179.92 357.638 179.44C356.918 178.96 356.158 178.36 355.358 177.64C354.638 176.84 353.718 176.44 352.598 176.44C350.998 176.44 348.878 177.36 346.238 179.2C343.678 180.96 341.118 183.32 338.558 186.28C335.998 189.16 333.798 192.44 331.958 196.12C330.118 199.8 329.198 203.48 329.198 207.16C329.198 210.44 330.118 212.96 331.958 214.72C333.798 216.4 336.158 217.24 339.038 217.24C340.718 217.24 342.478 216.92 344.318 216.28C346.238 215.56 348.158 214.64 350.078 213.52C351.998 212.32 353.918 210.96 355.838 209.44C357.758 207.92 359.638 206.36 361.478 204.76C365.078 201.56 367.958 198.76 370.118 196.36C372.278 193.88 373.838 192.08 374.798 190.96ZM357.398 184.48C357.398 184.88 356.838 185.52 355.718 186.4C354.678 187.28 353.358 188.2 351.758 189.16C350.238 190.12 348.558 191.04 346.718 191.92C344.878 192.72 343.198 193.28 341.678 193.6C342.718 192.08 343.798 190.64 344.918 189.28C346.118 187.92 347.278 186.76 348.398 185.8C349.598 184.76 350.718 183.96 351.758 183.4C352.798 182.76 353.678 182.44 354.398 182.44C355.678 182.44 356.478 182.64 356.798 183.04C357.198 183.44 357.398 183.92 357.398 184.48Z" transform="translate(-49 -23)" fill="white"/>
</svg>
